<svg width="143" height="143" viewBox="0 0 143 143" fill="none" xmlns="http://www.w3.org/2000/svg">
<path d="M143 109.366H0V109.438H143V109.366Z" fill="#EBEBEB"/>
<path d="M128.671 113.968H119.199V114.04H128.671V113.968Z" fill="#EBEBEB"/>
<path d="M77.18 113.096H68.537V113.167H77.18V113.096Z" fill="#EBEBEB"/>
<path d="M118.913 111.314H98.9246V111.386H118.913V111.314Z" fill="#EBEBEB"/>
<path d="M62.8056 111.795H15.0035V111.866H62.8056V111.795Z" fill="#EBEBEB"/>
<path d="M67.1614 111.795H65.351V111.866H67.1614V111.795Z" fill="#EBEBEB"/>
<path d="M67.782 96.6108H12.5582C12.1256 96.61 11.711 96.4377 11.4053 96.1315C11.0997 95.8253 10.928 95.4104 10.928 94.9777V17.3488C10.9318 16.9186 11.1051 16.5073 11.4104 16.2042C11.7156 15.9012 12.1281 15.7307 12.5582 15.73H67.782C68.2151 15.73 68.6305 15.902 68.9367 16.2083C69.243 16.5146 69.415 16.9299 69.415 17.3631V94.9777C69.415 95.4109 69.243 95.8262 68.9367 96.1325C68.6305 96.4388 68.2151 96.6108 67.782 96.6108ZM12.5582 15.7872C12.1446 15.788 11.7481 15.9528 11.4559 16.2456C11.1637 16.5383 10.9995 16.9351 10.9995 17.3488V94.9777C10.9995 95.3914 11.1637 95.7881 11.4559 96.0809C11.7481 96.3737 12.1446 96.5385 12.5582 96.5393H67.782C68.1959 96.5385 68.5927 96.3738 68.8853 96.0811C69.178 95.7884 69.3428 95.3917 69.3435 94.9777V17.3488C69.3428 16.9348 69.178 16.5381 68.8853 16.2454C68.5927 15.9527 68.1959 15.788 67.782 15.7872H12.5582Z" fill="#EBEBEB"/>
<path d="M129.647 96.6108H74.42C73.9872 96.61 73.5722 96.4377 73.2661 96.1317C72.96 95.8256 72.7877 95.4106 72.787 94.9777V17.3488C72.7915 16.9184 72.9655 16.5071 73.2711 16.2041C73.5768 15.9011 73.9896 15.7307 74.42 15.73H129.647C130.076 15.7315 130.488 15.9022 130.793 16.2052C131.097 16.5083 131.27 16.9191 131.274 17.3488V94.9777C131.274 95.4099 131.103 95.8244 130.798 96.1305C130.493 96.4366 130.079 96.6093 129.647 96.6108ZM74.42 15.7872C74.0061 15.788 73.6094 15.9527 73.3167 16.2454C73.024 16.5381 72.8592 16.9348 72.8585 17.3488V94.9777C72.8592 95.3917 73.024 95.7884 73.3167 96.0811C73.6094 96.3738 74.0061 96.5385 74.42 96.5393H129.647C130.061 96.5385 130.457 96.3738 130.75 96.0811C131.043 95.7884 131.207 95.3917 131.208 94.9777V17.3488C131.207 16.9348 131.043 16.5381 130.75 16.2454C130.457 15.9527 130.061 15.788 129.647 15.7872H74.42Z" fill="#EBEBEB"/>
<path d="M98.9074 74.0969C109.143 84.5016 105.691 93.8452 98.7758 107.999C98.5499 108.454 98.3354 108.912 98.1095 109.366H115.155C120.469 97.5117 120.186 79.8283 104.839 64.2242C96.3477 55.5898 95.7299 51.5629 95.687 51.0024C96.0903 50.3446 97.9378 49.3293 99.5881 49.0633C102.216 48.6286 104.101 45.514 103.769 42.082C103.438 38.65 101.058 36.2019 98.4126 36.5823C97.3887 36.731 88.3426 38.3326 86.3663 47.5589C84.1956 57.7091 92.4895 67.5618 98.9074 74.0969Z" fill="#EBEBEB"/>
<path d="M68.068 60.4375L98.1638 63.8952C100.712 64.1812 103.186 62.7884 104.559 60.2773C106.057 57.5403 107.287 54.0626 105.437 52.0148C104.677 51.162 104.094 50.1665 103.723 49.0862C103.352 48.0059 103.199 46.8626 103.275 45.7228C103.821 37.0227 100.26 26.1633 88.9746 25.2309C82.5854 24.7018 80.3374 29.1749 79.7425 34.0397C79.1905 38.5814 75.4725 41.633 71.6058 40.6949C68.2024 39.8655 65.1765 40.8351 65.4196 47.1013C65.5398 50.1587 64.1212 53.0272 61.7789 54.4286C58.4069 56.4421 56.5365 59.774 68.068 60.4375Z" fill="#E0E0E0"/>
<path d="M45.2967 108.817C45.5512 109.012 45.8086 109.192 46.0717 109.366H101.782C106.727 107.161 109.218 105.076 105.869 103.847C102.886 102.745 100.074 100.194 98.5785 97.1599C96.668 93.3104 90.9651 92.8041 85.8286 93.236C81.4699 93.5964 76.2819 90.0528 74.1483 85.1365C71.8775 79.9084 67.4531 74.5774 58.8674 74.8405C45.188 75.2809 40.8293 84.656 43.5006 94.992C44.3271 98.1838 43.595 101.095 41.4643 102.517C39.4994 103.832 42.5539 106.724 45.2967 108.817Z" fill="#FAFAFA"/>
<path d="M7.55327 108.943C7.66392 109.091 7.7833 109.233 7.91077 109.366H50.6992C55.4583 107.673 58.2754 106.072 56.2419 105.125C54.4287 104.281 53.3819 102.322 53.5506 99.9913C53.768 97.0341 49.5981 96.6451 45.4683 96.9712C41.9648 97.2572 39.5195 94.5287 40.0343 90.7535C40.5662 86.7352 39.488 82.6426 32.7756 82.8513C28.1542 82.944 23.6792 84.4885 19.9844 87.266C16.2896 90.0435 13.5625 93.9132 12.1893 98.3268C11.4371 100.778 9.61533 103.014 7.35307 104.104C5.27099 105.116 6.35779 107.336 7.55327 108.943Z" fill="#E6E6E6"/>
<path d="M82.92 76.4363L130.416 64.8219C132.89 64.5359 135.124 62.8571 136.442 59.9828C137.44 57.8006 137.729 55.3867 135.161 54.1512C132.203 52.7212 130.047 49.9384 129.023 46.658C126.589 38.8588 118.155 30.928 102.019 32.5382C93.6535 33.3705 90.7935 36.894 90.3788 40.8322C89.7525 46.7581 85.1508 51.1282 79.5652 51.1911C74.8891 51.2397 71.0824 52.5325 71.663 56.7939C71.939 58.7876 71.6748 60.8188 70.8981 62.6756C70.1214 64.5324 68.8605 66.1468 67.2472 67.3501C63.8638 69.8498 67.0756 78.2725 82.92 76.4363Z" fill="#F5F5F5"/>
<path d="M59.1409 32.7641C62.8402 31.2317 64.5969 26.9907 63.0646 23.2913C61.5323 19.592 57.2912 17.8353 53.5919 19.3676C49.8926 20.8999 48.1359 25.141 49.6682 28.8403C51.2005 32.5397 55.4416 34.2964 59.1409 32.7641Z" fill="#F0F0F0"/>
<path d="M53.8366 24.024C57.0884 21.9419 56.4106 19.9571 49.601 20.3518C42.7913 20.7464 41.6873 23.8467 41.6873 23.8467C41.6873 23.8467 31.3913 23.4691 32.2493 25.6656C26.3778 26.1833 24.7762 26.6924 28.8173 26.9583L58.3268 24.9134C58.3268 24.9134 59.3793 23.5521 53.8366 24.024Z" fill="#FAFAFA"/>
<path d="M19.2278 45.1537L35.3096 44.0383C35.3096 44.0383 41.5272 41.8704 37.6147 41.919C40.5949 40.2288 42.614 37.569 36.425 37.9408C30.2359 38.3126 28.2253 41.9247 28.2253 41.9247C28.2253 41.9247 22.1764 40.02 19.9313 43.8724C18.4699 43.9754 11.3885 45.6971 19.2278 45.1537Z" fill="#F5F5F5"/>
<path d="M104.799 25.3968L116.551 24.596C116.551 24.596 121.095 23.0116 118.235 23.0459C120.415 21.8104 121.89 19.8656 117.377 20.1373C112.864 20.409 111.386 23.0487 111.386 23.0487C111.386 23.0487 106.967 21.6559 105.325 24.4787C104.247 24.5359 99.0704 25.7943 104.799 25.3968Z" fill="#F5F5F5"/>
<path d="M71.5 122.282C102.126 122.282 126.953 120.833 126.953 119.045C126.953 117.257 102.126 115.807 71.5 115.807C40.8744 115.807 16.0475 117.257 16.0475 119.045C16.0475 120.833 40.8744 122.282 71.5 122.282Z" fill="#F5F5F5"/>
<path d="M49.5867 33.5735C49.1891 31.7832 46.7467 29.3808 45.3424 28.4942C43.9382 27.6076 43.7866 31.7088 44.0812 33.1331C44.3758 34.5574 45.371 36.4993 46.3692 36.9684C45.351 37.2544 42.6884 39.8284 44.5016 40.7722C46.3148 41.716 48.5943 40.4433 48.5943 40.4433L49.5867 33.5735Z" fill="#92E3A9"/>
<path d="M52.3666 42.9972L52.3094 42.7112C52.6908 42.6428 53.0461 42.4706 53.3361 42.2136L53.5277 42.4281C53.1995 42.7197 52.7981 42.9164 52.3666 42.9972Z" fill="#92E3A9"/>
<path d="M54.2885 41.0124L54.0025 40.9609C54.1237 40.0107 53.9437 39.0464 53.4877 38.2039L53.7394 38.0695C54.2285 38.9679 54.4208 39.998 54.2885 41.0124Z" fill="#92E3A9"/>
<path d="M49.8584 33.6136C50.8165 32.0091 53.9196 30.3818 55.5441 29.9185C57.1685 29.4551 56.0417 33.7766 55.2123 34.9807C54.3829 36.1847 53.379 37.6405 52.2694 37.8121C53.1502 38.3612 54.2056 41.613 52.1721 42.0163C50.1387 42.4195 48.6 40.4433 48.6 40.4433L49.8584 33.6136Z" fill="#92E3A9"/>
<path d="M48.3598 40.5805L49.1348 33.2961C49.1393 33.1752 49.1915 33.0611 49.2799 32.9785C49.3683 32.896 49.4858 32.8518 49.6067 32.8557L50.07 32.9215C50.1276 32.9352 50.1818 32.9607 50.2291 32.9963C50.2765 33.0318 50.316 33.0768 50.3452 33.1283C50.3745 33.1798 50.3928 33.2367 50.3991 33.2956C50.4054 33.3545 50.3995 33.4141 50.3818 33.4706L48.783 40.6406C48.7144 40.9495 48.334 40.898 48.3598 40.5805Z" fill="#263238"/>
<path d="M49.7239 33.3104L49.5523 33.2589C49.5523 33.2389 50.1987 31.0024 48.8002 30.2016L48.8888 30.0443C50.4103 30.9166 49.764 33.2132 49.7239 33.3104Z" fill="#263238"/>
<path d="M50.05 33.3362L49.8727 33.3133C49.8898 33.1789 50.3188 30.0443 52.072 29.9642V30.1415C50.4876 30.2159 50.0643 33.3047 50.05 33.3362Z" fill="#263238"/>
<path d="M31.5458 49.0633C31.5659 47.9193 32.6069 46.2433 33.2618 45.5913C33.9168 44.9392 35.1351 47.2043 35.1294 48.1109C35.1237 49.0175 34.1084 50.5762 33.6251 50.9395C34.1971 51.0424 35.893 52.4524 35.0293 53.1731C34.1656 53.8939 32.8157 53.2675 32.8157 53.2675L31.5458 49.0633Z" fill="#92E3A9"/>
<path opacity="0.3" d="M31.5458 49.0633C31.5659 47.9193 32.6069 46.2433 33.2618 45.5913C33.9168 44.9392 35.1351 47.2043 35.1294 48.1109C35.1237 49.0175 34.1084 50.5762 33.6251 50.9395C34.1971 51.0424 35.893 52.4524 35.0293 53.1731C34.1656 53.8939 32.8157 53.2675 32.8157 53.2675L31.5458 49.0633Z" fill="white"/>
<path d="M31.4057 49.1062C30.7221 48.1796 28.8946 47.3902 27.9737 47.2243C27.0528 47.0584 27.5189 49.7097 28.0909 50.3989C28.6629 51.0882 29.9585 51.8718 30.5677 51.8976C30.1587 52.3037 29.9471 54.4029 31.0739 54.5059C32.2007 54.6088 32.8071 53.2675 32.8071 53.2675L31.4057 49.1062Z" fill="#92E3A9"/>
<path opacity="0.3" d="M31.4057 49.1062C30.7221 48.1796 28.8946 47.3902 27.9737 47.2243C27.0528 47.0584 27.5189 49.7097 28.0909 50.3989C28.6629 51.0882 29.9585 51.8718 30.5677 51.8976C30.1587 52.3037 29.9471 54.4029 31.0739 54.5059C32.2007 54.6088 32.8071 53.2675 32.8071 53.2675L31.4057 49.1062Z" fill="white"/>
<path d="M32.9615 53.3333L31.849 48.8431C31.8428 48.8058 31.8292 48.7702 31.8091 48.7382C31.7891 48.7062 31.7628 48.6785 31.732 48.6567C31.7011 48.6349 31.6663 48.6194 31.6294 48.6111C31.5926 48.6029 31.5544 48.602 31.5172 48.6086L31.2312 48.6886C31.1627 48.7188 31.1087 48.7747 31.0809 48.8442C31.0531 48.9137 31.0537 48.9913 31.0825 49.0604L32.6984 53.4077C32.7699 53.5936 33.0101 53.5278 32.9615 53.3333Z" fill="#263238"/>
<path d="M31.4829 48.906C31.4486 48.8345 30.6564 47.0928 31.5344 46.4178L31.6059 46.5065C30.7965 47.1271 31.5773 48.8431 31.5859 48.8602L31.4829 48.906Z" fill="#263238"/>
<path d="M31.2741 48.9432C31.2741 48.9432 30.9595 47.3387 29.9528 47.4274V47.3158C31.0596 47.2129 31.3828 48.8545 31.3828 48.9232L31.2741 48.9432Z" fill="#263238"/>
<path d="M54.443 59.3393C54.443 58.364 53.5449 56.9855 52.9872 56.4593C52.4295 55.933 51.3713 57.9179 51.3713 58.6901C51.3713 59.4623 52.2293 60.7435 52.6526 61.0324C52.1607 61.1439 50.6964 62.4224 51.4371 62.9944C52.1778 63.5664 53.339 62.9743 53.339 62.9743L54.443 59.3393Z" fill="#92E3A9"/>
<path opacity="0.7" d="M54.443 59.3393C54.443 58.364 53.5449 56.9855 52.9872 56.4593C52.4295 55.933 51.3713 57.9179 51.3713 58.6901C51.3713 59.4623 52.2293 60.7435 52.6526 61.0324C52.1607 61.1439 50.6964 62.4224 51.4371 62.9944C52.1778 63.5664 53.339 62.9743 53.339 62.9743L54.443 59.3393Z" fill="white"/>
<path d="M54.2142 59.3393C54.7176 58.5471 56.1762 57.9665 56.9226 57.8807C57.6691 57.7949 57.4546 60.1687 57.0256 60.7407C56.5966 61.3127 55.5784 61.939 55.0751 61.919C55.4411 62.3165 55.7472 64.2356 54.8234 64.2471C53.8996 64.2585 53.3162 62.9972 53.3162 62.9972L54.2142 59.3393Z" fill="#92E3A9"/>
<path opacity="0.7" d="M54.2142 59.3393C54.7176 58.5471 56.1762 57.9665 56.9226 57.8807C57.6691 57.7949 57.4546 60.1687 57.0256 60.7407C56.5966 61.3127 55.5784 61.939 55.0751 61.919C55.4411 62.3165 55.7472 64.2356 54.8234 64.2471C53.8996 64.2585 53.3162 62.9972 53.3162 62.9972L54.2142 59.3393Z" fill="white"/>
<path d="M53.196 63.0373L54.1684 58.5499C54.2027 58.384 54.3372 58.2639 54.4544 58.3154L54.7004 58.3955C54.7646 58.4292 54.8137 58.4861 54.8376 58.5546C54.8615 58.6231 54.8584 58.6981 54.8291 58.7644L53.4162 63.1116C53.3733 63.2975 53.1646 63.2317 53.196 63.0373Z" fill="#263238"/>
<path d="M54.503 58.6043L54.4058 58.5671C54.4058 58.5471 55.0979 56.8282 54.3886 56.2019L54.4573 56.1246C55.2238 56.7967 54.5316 58.5328 54.503 58.6043Z" fill="#263238"/>
<path d="M54.6861 58.6472L54.5831 58.63C54.5831 58.5614 54.8691 56.914 55.8472 57.0255V57.1285C54.9578 57.0427 54.6889 58.63 54.6861 58.6472Z" fill="#263238"/>
<path d="M90.376 49.8183L89.987 48.4112L87.842 50.2159C88.2597 50.5227 88.6951 50.8045 89.1462 51.0596C89.309 51.1516 89.5014 51.1762 89.6821 51.1281C89.8628 51.08 90.0174 50.963 90.1129 50.8022L90.2873 50.5162C90.3485 50.4119 90.3879 50.2963 90.4031 50.1763C90.4183 50.0564 90.4091 49.9346 90.376 49.8183Z" fill="#B55B52"/>
<path d="M88.0022 46.8897L87.024 48.9317L87.8477 50.2159L89.9927 48.4112L88.0022 46.8897Z" fill="#B55B52"/>
<path d="M91.3192 43.9372L85.7372 43.2152C85.0981 43.1326 84.5129 43.5837 84.4303 44.2228L84.0003 47.547C83.9176 48.1861 84.3687 48.7713 85.0079 48.8539L90.5898 49.5759C91.229 49.6586 91.8141 49.2075 91.8968 48.5684L92.3267 45.2442C92.4094 44.605 91.9583 44.0199 91.3192 43.9372Z" fill="#263238"/>
<path d="M95.3581 59.8398C94.0453 59.8398 91.6229 58.7272 88.4941 56.1761C85.0935 53.3933 85.4167 51.2083 85.6512 49.5981C85.7653 49.0977 85.7799 48.5798 85.6941 48.0737L85.9944 47.9908C86.0951 48.5385 86.0834 49.1009 85.9601 49.6439C85.7227 51.2512 85.4281 53.2532 88.6914 55.9359C92.8527 59.3421 95.4811 59.957 96.0159 59.3078C96.3619 58.8903 95.8815 57.732 94.0139 56.1618C91.9204 54.4172 91.8145 51.746 91.7402 49.7983C91.7463 49.2216 91.6878 48.646 91.5657 48.0823L91.8517 47.9879C91.9867 48.5798 92.051 49.1856 92.0433 49.7926C92.1177 51.6831 92.2149 54.2714 94.2055 55.9273C96.0302 57.446 96.8138 58.8159 96.2504 59.4994C96.1357 59.6181 95.9963 59.71 95.8421 59.7688C95.6879 59.8276 95.5227 59.8519 95.3581 59.8398Z" fill="#263238"/>
<path d="M90.2587 45.0021L88.64 44.4673C88.5488 44.4336 88.4713 44.3708 88.4196 44.2886C88.3679 44.2063 88.3448 44.1093 88.354 44.0125L88.4798 43.023C88.4854 42.9806 88.5004 42.9401 88.5237 42.9043C88.547 42.8685 88.5781 42.8384 88.6146 42.8162C88.6511 42.7939 88.6921 42.7802 88.7346 42.7759C88.7771 42.7716 88.82 42.7769 88.8602 42.7913L90.4789 43.3261C90.5698 43.3602 90.647 43.4231 90.6987 43.5053C90.7503 43.5874 90.7736 43.6842 90.7649 43.7809L90.6362 44.7704C90.6306 44.8125 90.6156 44.8527 90.5924 44.8882C90.5693 44.9237 90.5386 44.9536 90.5024 44.9758C90.4663 44.998 90.4257 45.0118 90.3835 45.0164C90.3414 45.0209 90.2988 45.0161 90.2587 45.0021Z" fill="#263238"/>
<path d="M89.6238 43.2575L88.6886 42.9486C88.636 42.9298 88.5911 42.894 88.5611 42.8469C88.531 42.7998 88.5175 42.744 88.5227 42.6884L88.5942 42.1164C88.5969 42.0916 88.6053 42.0678 88.6187 42.0468C88.632 42.0258 88.65 42.0081 88.6713 41.9951C88.6926 41.9821 88.7165 41.9742 88.7413 41.9719C88.7661 41.9696 88.7911 41.9731 88.8144 41.982L89.7468 42.2908C89.8001 42.3097 89.8457 42.3458 89.8763 42.3935C89.9068 42.4411 89.9207 42.4976 89.9155 42.554L89.8412 43.126C89.839 43.1506 89.8311 43.1745 89.818 43.1955C89.8049 43.2165 89.7871 43.2341 89.7659 43.247C89.7447 43.2598 89.7208 43.2674 89.6961 43.2693C89.6714 43.2711 89.6466 43.2671 89.6238 43.2575Z" fill="#263238"/>
<path d="M78.4041 42.6489L75.7747 42.3088C75.3408 42.2527 74.9436 42.5589 74.8875 42.9928L74.4589 46.3057C74.4028 46.7396 74.7091 47.1369 75.143 47.193L77.7723 47.5331C78.2062 47.5892 78.6035 47.283 78.6596 46.849L79.0881 43.5362C79.1442 43.1022 78.838 42.705 78.4041 42.6489Z" fill="black"/>
<path d="M81.0074 43.4646L78.1426 43.0941C77.4095 42.9993 76.7383 43.5167 76.6435 44.2498L76.4769 45.5375C76.3821 46.2707 76.8995 46.9418 77.6327 47.0367L80.4974 47.4072C81.2305 47.502 81.9017 46.9846 81.9965 46.2515L82.1631 44.9638C82.2579 44.2306 81.7405 43.5595 81.0074 43.4646Z" fill="#263238"/>
<path d="M77.6318 47.1157C77.4471 47.0922 77.269 47.0321 77.1079 46.9388C76.9468 46.8454 76.806 46.7208 76.6938 46.5723C76.5798 46.4256 76.4959 46.2579 76.4468 46.0788C76.3977 45.8997 76.3845 45.7126 76.4078 45.5284L76.5765 44.2414C76.6278 43.8705 76.8225 43.5346 77.1187 43.3057C77.415 43.0769 77.7892 42.9733 78.1609 43.0173C78.1711 43.0186 78.1808 43.0219 78.1897 43.027C78.1986 43.0321 78.2064 43.0389 78.2126 43.047C78.2188 43.0551 78.2234 43.0643 78.2261 43.0742C78.2288 43.0841 78.2294 43.0944 78.2281 43.1045C78.2268 43.1146 78.2235 43.1244 78.2184 43.1333C78.2133 43.1422 78.2065 43.1499 78.1984 43.1562C78.1903 43.1624 78.1811 43.167 78.1712 43.1697C78.1613 43.1723 78.151 43.173 78.1409 43.1717C77.8095 43.1296 77.4749 43.2206 77.2106 43.4249C76.9462 43.6292 76.7737 43.93 76.7309 44.2614L76.5622 45.5484C76.5216 45.8798 76.6131 46.214 76.8171 46.4784C77.021 46.7429 77.3209 46.9163 77.6519 46.9612C77.6622 46.9619 77.6722 46.9647 77.6814 46.9695C77.6906 46.9743 77.6986 46.9809 77.7051 46.989C77.7116 46.997 77.7163 47.0064 77.7189 47.0164C77.7216 47.0264 77.7221 47.0368 77.7205 47.047C77.7176 47.0678 77.7068 47.0866 77.6902 47.0994C77.6736 47.1123 77.6527 47.1181 77.6318 47.1157Z" fill="white"/>
<path d="M82.4654 43.5573L80.2388 43.2693C79.8723 43.2219 79.5367 43.4806 79.4893 43.8472L79.1265 46.6523C79.079 47.0189 79.3378 47.3545 79.7043 47.4019L81.9309 47.6899C82.2974 47.7373 82.633 47.4786 82.6804 47.112L83.0433 44.3068C83.0907 43.9403 82.832 43.6047 82.4654 43.5573Z" fill="#263238"/>
<path d="M82.9956 43.6274L80.7691 43.3394C80.4025 43.292 80.0669 43.5508 80.0195 43.9173L79.6567 46.7225C79.6093 47.0891 79.868 47.4246 80.2345 47.4721L82.4611 47.76C82.8276 47.8075 83.1632 47.5487 83.2106 47.1822L83.5735 44.377C83.6209 44.0104 83.3622 43.6749 82.9956 43.6274Z" fill="black"/>
<path d="M85.192 44.3167L82.7697 44.0034C82.1494 43.9231 81.5815 44.361 81.5013 44.9813L81.3604 46.0704C81.2801 46.6908 81.718 47.2587 82.3383 47.3389L84.7606 47.6522C85.3809 47.7325 85.9488 47.2946 86.0291 46.6743L86.1699 45.5852C86.2502 44.9648 85.8124 44.3969 85.192 44.3167Z" fill="#263238"/>
<path d="M82.3394 47.4159C82.0215 47.3739 81.7332 47.2077 81.5376 46.9536C81.3419 46.6996 81.2549 46.3784 81.2955 46.0603L81.4356 44.9706C81.4776 44.6528 81.6439 44.3645 81.8979 44.1688C82.152 43.9732 82.4732 43.8862 82.7913 43.9267C82.8013 43.9278 82.8111 43.9309 82.8199 43.9358C82.8287 43.9408 82.8365 43.9474 82.8426 43.9555C82.8488 43.9635 82.8532 43.9727 82.8557 43.9825C82.8582 43.9923 82.8586 44.0026 82.857 44.0125C82.8542 44.0328 82.8437 44.0511 82.8278 44.0639C82.8118 44.0767 82.7916 44.0828 82.7712 44.0812C82.4942 44.0463 82.2146 44.1223 81.9933 44.2926C81.772 44.463 81.6271 44.7139 81.59 44.9907L81.4499 46.0803C81.415 46.3574 81.491 46.637 81.6613 46.8582C81.8317 47.0795 82.0826 47.2245 82.3594 47.2615C82.3695 47.2625 82.3792 47.2656 82.388 47.2706C82.3969 47.2755 82.4046 47.2822 82.4108 47.2902C82.4169 47.2983 82.4214 47.3075 82.4239 47.3173C82.4263 47.3271 82.4268 47.3373 82.4252 47.3473C82.4245 47.3576 82.4217 47.3677 82.4169 47.3769C82.4121 47.386 82.4055 47.3941 82.3974 47.4006C82.3893 47.407 82.38 47.4117 82.37 47.4144C82.36 47.417 82.3496 47.4176 82.3394 47.4159Z" fill="white"/>
<path opacity="0.6" d="M91.1566 44.5968L89.7781 44.4185C89.6214 44.3982 89.478 44.5088 89.4578 44.6654L89.3514 45.488C89.3311 45.6446 89.4417 45.7881 89.5983 45.8083L90.9768 45.9866C91.1335 46.0069 91.2769 45.8963 91.2971 45.7397L91.4035 44.9171C91.4238 44.7605 91.3132 44.6171 91.1566 44.5968Z" fill="#92E3A9"/>
<path d="M86.1062 43.2629L85.7374 43.2152C85.0983 43.1326 84.5132 43.5837 84.4305 44.2228L84.0005 47.547C83.9179 48.1861 84.369 48.7713 85.0081 48.8539L85.3768 48.9016C86.0159 48.9843 86.6011 48.5332 86.6838 47.8941L87.1137 44.5698C87.1964 43.9307 86.7453 43.3456 86.1062 43.2629Z" fill="black"/>
<path d="M89.9012 53.9768H89.8211C89.7483 53.977 89.6757 53.9828 89.6038 53.9939C86.2232 56.2533 90.0556 57.9522 89.3807 57.3773L89.4979 57.4059H89.5408H89.5551H89.5065L89.3607 57.3888L89.0489 57.3516C88.8373 57.3258 88.6285 57.2944 88.4197 57.2629C87.9993 57.2029 87.5789 57.1342 87.1613 57.0627C86.3205 56.9197 85.4854 56.7395 84.6502 56.5365C82.8995 56.1354 81.2104 55.5016 79.6281 54.6517C79.1801 54.3972 78.7569 54.1013 78.3639 53.768C78.261 53.6765 78.158 53.5821 78.0579 53.482L77.9063 53.3219L77.8692 53.2818L77.7948 53.196C77.7026 53.0866 77.6239 52.9666 77.5603 52.8385C77.4494 52.6207 77.3805 52.384 77.3572 52.1407C77.3515 52.0454 77.3515 51.9499 77.3572 51.8547C77.3572 51.7717 77.3572 51.7002 77.3772 51.623C77.4094 51.4042 77.468 51.19 77.5517 50.9852C77.6679 50.7113 77.8096 50.4489 77.975 50.2016C78.1209 49.9842 78.261 49.7897 78.4097 49.6067C78.6894 49.2549 78.9873 48.918 79.302 48.5971C80.4891 47.3813 81.7832 46.2748 83.1687 45.291L84.3414 46.5437C83.3432 47.8135 82.3136 49.0948 81.4098 50.356C81.1868 50.6706 80.9751 50.9881 80.7892 51.2912C80.7018 51.4319 80.6216 51.577 80.549 51.726C80.4955 51.8262 80.4551 51.9329 80.4289 52.0434C80.4289 52.0663 80.4289 52.072 80.4489 52.0005C80.4505 51.9748 80.4505 51.949 80.4489 51.9233C80.4531 51.8815 80.4531 51.8393 80.4489 51.7975C80.4354 51.656 80.3956 51.5183 80.3316 51.3914C80.2907 51.3083 80.2398 51.2305 80.1801 51.1597C80.1343 51.1082 80.1543 51.1311 80.16 51.1339L80.1743 51.1482L80.2401 51.2083C80.2887 51.2484 80.3373 51.2884 80.3917 51.3284C80.6425 51.5093 80.9085 51.6682 81.1868 51.8032C81.8353 52.1205 82.5099 52.3818 83.2031 52.584C83.9238 52.8071 84.676 52.9958 85.4367 53.156C86.1975 53.3161 86.9754 53.4706 87.7533 53.6107C88.1423 53.6793 88.5341 53.7423 88.9259 53.7995L89.5151 53.8881L89.8011 53.9339L89.9584 53.9568L90.0642 53.9739H90.1157H90.1786L90.3045 54.0054C89.6324 53.4334 93.4676 55.1322 90.0842 57.3916C90.0095 57.4035 89.934 57.4102 89.8583 57.4117H89.7096L89.9012 53.9768Z" fill="#B55B52"/>
<path d="M84.4586 43.595H85.514L85.1479 45.025L83.1745 44.3157L83.5177 43.9868C83.7689 43.7395 84.1061 43.5991 84.4586 43.595Z" fill="#B55B52"/>
<path d="M82.6711 46.2548L83.1631 44.31L85.1365 45.0193C85.1365 45.0193 85.1222 47.3616 83.6006 47.2415L82.6711 46.2548Z" fill="#B55B52"/>
<path d="M98.7357 58.384C98.5641 58.447 98.4955 58.4641 98.3897 58.4984L98.1037 58.5757C97.9235 58.6214 97.7433 58.6615 97.566 58.6929C97.2113 58.7616 96.8624 58.7987 96.5164 58.8331C95.8317 58.8856 95.1439 58.8808 94.46 58.8188C93.7857 58.7633 93.1164 58.6572 92.458 58.5013C92.132 58.4298 91.8117 58.3383 91.4971 58.241L91.2597 58.1695L91.1224 58.1266C91.048 58.1038 90.9708 58.078 90.8965 58.0494C90.615 57.9363 90.3519 57.7821 90.1157 57.5918C89.7405 57.2794 89.4288 56.8978 89.1976 56.4678C89.0109 56.1236 88.8567 55.7626 88.7371 55.3896C88.5409 54.7367 88.4088 54.0662 88.3425 53.3876C88.2144 52.114 88.2356 50.8297 88.4054 49.5609H90.1214C90.3119 50.6897 90.562 51.8077 90.8707 52.91C91.0108 53.4133 91.1926 53.9041 91.4141 54.3772C91.5037 54.5685 91.6119 54.7505 91.7373 54.9206C91.8009 55.0194 91.8897 55.0994 91.9947 55.1522C92.0119 55.1522 92.0119 55.1522 91.9947 55.1322C91.9775 55.1122 91.9947 55.1322 91.9947 55.1322H92.0262H92.0776L92.2778 55.1694L92.6782 55.238L93.0815 55.2895C93.3475 55.3353 93.6135 55.3467 93.8794 55.3753C94.1454 55.4039 94.4085 55.4125 94.6688 55.4125C95.1862 55.4253 95.7039 55.4062 96.2189 55.3553C96.4677 55.3296 96.7166 55.2981 96.9539 55.2552L97.3 55.1894L97.4544 55.1551C97.4945 55.1551 97.5717 55.1208 97.5402 55.1351L98.7357 58.384Z" fill="#B55B52"/>
<path d="M96.8081 47.2472C96.2876 49.5667 96.1589 51.2941 96.6279 53.1245C96.6279 53.1245 96.1045 54.8205 92.9957 54.8205C89.5637 54.8205 91.4256 53.1245 91.4256 53.1245C93.3103 52.6783 93.316 51.2913 93.0386 49.9928L96.8081 47.2472Z" fill="#B55B52"/>
<path d="M97.24 54.1741C97.5059 53.6364 97.812 53.0301 97.24 52.8271C96.6336 52.6154 93.2789 52.4009 92.1063 52.7985C91.7929 52.8808 91.5243 53.0826 91.3581 53.3606C91.1918 53.6386 91.1411 53.9707 91.2168 54.2857L97.24 54.1741Z" fill="#263238"/>
<path d="M113.21 116.173C113.398 116.059 113.574 115.924 113.734 115.773C113.742 115.764 113.748 115.754 113.75 115.742C113.753 115.73 113.752 115.718 113.748 115.707C113.744 115.696 113.737 115.687 113.728 115.68C113.719 115.673 113.708 115.67 113.696 115.67C113.588 115.67 112.641 115.636 112.472 115.896C112.455 115.925 112.445 115.959 112.445 115.993C112.445 116.027 112.455 116.061 112.472 116.09C112.495 116.144 112.53 116.192 112.576 116.229C112.621 116.266 112.675 116.291 112.733 116.302C112.902 116.313 113.07 116.268 113.21 116.173ZM113.542 115.784C113.216 116.07 112.924 116.216 112.75 116.185C112.711 116.176 112.674 116.159 112.643 116.133C112.612 116.108 112.588 116.076 112.572 116.039C112.552 115.996 112.572 115.973 112.572 115.959C112.658 115.83 113.164 115.781 113.542 115.784Z" fill="#92E3A9"/>
<path d="M113.722 115.779C113.732 115.773 113.74 115.765 113.745 115.756C113.751 115.747 113.754 115.736 113.754 115.726C113.754 115.715 113.751 115.705 113.745 115.696C113.728 115.67 113.319 115.072 112.947 115.009C112.902 115.002 112.857 115.003 112.812 115.013C112.768 115.024 112.726 115.043 112.69 115.069C112.652 115.092 112.623 115.127 112.607 115.169C112.592 115.21 112.59 115.256 112.604 115.298C112.695 115.567 113.402 115.793 113.696 115.787C113.706 115.787 113.715 115.784 113.722 115.779ZM112.781 115.149C112.825 115.126 112.875 115.117 112.924 115.126C113.162 115.166 113.439 115.493 113.571 115.661C113.25 115.618 112.767 115.418 112.713 115.258C112.713 115.244 112.698 115.209 112.758 115.164L112.781 115.149Z" fill="#92E3A9"/>
<path d="M116.356 114.712L114.692 116.065L110.731 111.995L112.392 110.642L116.356 114.712Z" fill="#B55B52"/>
<path d="M113.885 115.544L115.999 114.08C116.035 114.054 116.08 114.041 116.125 114.045C116.17 114.048 116.213 114.068 116.245 114.1L117.463 115.681C117.499 115.718 117.527 115.761 117.544 115.809C117.562 115.857 117.568 115.908 117.564 115.959C117.56 116.01 117.544 116.06 117.519 116.104C117.494 116.148 117.459 116.187 117.417 116.216C116.759 116.671 116.075 117.088 115.37 117.466C114.766 117.809 114.306 119.219 112.238 119.219C111.3 119.219 110.985 118.473 111.38 118.361C113.413 117.74 113.47 116.645 113.668 115.881C113.697 115.746 113.774 115.627 113.885 115.544Z" fill="#263238"/>
<path d="M87.27 73.5392H99.528C99.6681 71.8546 99.016 64.31 100.432 56.3792C100.497 56.007 100.483 55.6254 100.393 55.2587C100.302 54.8919 100.137 54.548 99.9061 54.2487C99.6757 53.9493 99.3855 53.7012 99.054 53.52C98.7226 53.3388 98.3571 53.2285 97.9807 53.196C97.6318 53.1617 97.2743 53.1331 96.9168 53.1159C95.1841 53.0172 93.4471 53.0172 91.7144 53.1159C90.9451 53.1874 90.1901 53.3104 89.578 53.4305C88.5827 53.6279 87.6532 54.3314 87.5045 55.3353C86.5807 61.5272 87.27 73.5334 87.27 73.5334" fill="#92E3A9"/>
<path d="M89.7496 72.3351H86.1317C85.9446 72.3388 85.7588 72.302 85.5872 72.2272C85.4156 72.1524 85.2622 72.0414 85.1375 71.9018C85.0128 71.7622 84.9198 71.5972 84.8648 71.4183C84.8098 71.2393 84.7942 71.0506 84.819 70.8651L85.228 66.9555C85.279 66.5565 85.4712 66.189 85.7697 65.9194C86.0681 65.6497 86.4532 65.4958 86.8553 65.4854H90.4732C90.6603 65.4817 90.8461 65.5185 91.0177 65.5933C91.1893 65.6681 91.3427 65.7791 91.4674 65.9188C91.5921 66.0584 91.6851 66.2233 91.7401 66.4023C91.7951 66.5812 91.8107 66.7699 91.7859 66.9555L91.3627 70.8651C91.3131 71.2621 91.1233 71.6284 90.8276 71.898C90.5318 72.1675 90.1495 72.3225 89.7496 72.3351Z" fill="#263238"/>
<path d="M90.4847 65.494L89.7496 72.3437C90.1516 72.3338 90.5366 72.18 90.8347 71.9102C91.1328 71.6404 91.3242 71.2726 91.3741 70.8737L91.806 66.9555C91.8295 66.7699 91.8127 66.5813 91.7566 66.4028C91.7005 66.2243 91.6065 66.06 91.481 65.9212C91.3555 65.7824 91.2015 65.6724 91.0296 65.5987C90.8576 65.5249 90.6717 65.4892 90.4847 65.494Z" fill="black"/>
<path d="M91.4856 67.0041C91.4558 67.0045 91.4267 66.9956 91.4022 66.9787C91.3777 66.9617 91.3591 66.9375 91.349 66.9095C91.3389 66.8814 91.3379 66.851 91.3459 66.8223C91.354 66.7936 91.3709 66.7682 91.3941 66.7495C91.4742 66.6838 99.4021 60.1858 97.8434 53.2332C97.8392 53.2148 97.8387 53.1957 97.8418 53.1771C97.845 53.1585 97.8519 53.1407 97.862 53.1247C97.8721 53.1088 97.8853 53.095 97.9007 53.0841C97.9162 53.0733 97.9336 53.0656 97.9521 53.0616C97.9703 53.0574 97.9892 53.0569 98.0076 53.0601C98.0261 53.0633 98.0437 53.0702 98.0594 53.0803C98.0751 53.0905 98.0886 53.1036 98.0992 53.1191C98.1097 53.1345 98.1171 53.1519 98.1208 53.1703C99.7138 60.2974 91.6572 66.8983 91.5743 66.9726C91.549 66.9926 91.5178 67.0037 91.4856 67.0041Z" fill="#263238"/>
<path d="M90.539 65.7514H86.2976C86.1556 65.754 86.0155 65.7852 85.8858 65.8429C85.7087 65.9777 85.5605 66.1466 85.45 66.3396C85.3395 66.5327 85.2688 66.746 85.2423 66.9669L85.0449 68.783C85.1671 68.8688 85.3132 68.9138 85.4625 68.9117H89.7039C89.981 68.8902 90.2446 68.7832 90.4582 68.6054C90.6719 68.4277 90.825 68.1879 90.8965 67.9193L91.2082 66.7524C91.3512 66.2004 91.0509 65.7514 90.539 65.7514Z" fill="black"/>
<path d="M89.7325 68.6572H85.4911C84.9791 68.6572 84.6788 68.2081 84.8218 67.659L85.1307 66.4921C85.203 66.2232 85.3567 65.9832 85.5707 65.805C85.7847 65.6268 86.0486 65.5192 86.3262 65.4969H90.5676C91.0795 65.4969 91.3798 65.9487 91.234 66.495L90.9251 67.6619C90.853 67.9304 90.6997 68.1701 90.4863 68.3482C90.2728 68.5264 90.0095 68.6343 89.7325 68.6572Z" fill="#263238"/>
<path opacity="0.2" d="M87.2729 57.3716C87.167 58.5871 87.1013 59.9141 87.0641 61.2698C88.4283 59.754 89.3578 57.8664 87.2729 57.3716Z" fill="black"/>
<path d="M90.1386 57.9894C88.5141 59.4423 85.2051 57.5232 85.2051 57.5232L84.2184 52.7813C84.2184 52.7813 87.882 52.7813 90.7478 53.1359C93.9481 53.5135 91.9661 56.342 90.1386 57.9894Z" fill="#92E3A9"/>
<g opacity="0.2">
<path opacity="0.2" d="M112.392 110.642L110.731 111.998L112.773 114.094L114.437 112.738L112.392 110.642Z" fill="black"/>
</g>
<path d="M89.4979 73.5392C89.4979 73.5392 93.5334 86.495 94.7088 93.0472C95.993 100.223 111.245 113.751 111.245 113.751L114.088 111.102C114.088 111.102 104.693 98.5699 101.547 93.6993C100.878 85.9773 99.5108 73.5392 99.5108 73.5392H89.4979Z" fill="#263238"/>
<path d="M110.076 113.491L111.406 114.472L114.986 111.4L114.028 110.33L110.076 113.491Z" fill="#92E3A9"/>
<path opacity="0.2" d="M91.4857 80.2144C91.8088 81.3413 92.1463 82.5425 92.4781 83.7637C94.2856 81.1039 94.5344 77.8692 94.5344 77.8692L91.4857 80.2144Z" fill="black"/>
<path d="M91.0566 44.9706C91.0309 45.1537 90.9136 45.291 90.7935 45.2795C90.6734 45.2681 90.5962 45.1079 90.6219 44.9277C90.6476 44.7476 90.7678 44.6046 90.8879 44.6189C91.008 44.6332 91.0824 44.7876 91.0566 44.9706Z" fill="#263238"/>
<path d="M90.9308 45.2938C90.6317 45.8322 90.2624 46.3285 89.8326 46.7696C90.1186 47.1042 90.6906 47.0213 90.6906 47.0213L90.9308 45.2938Z" fill="#A02724"/>
<path d="M90.9851 43.7752C90.9686 43.77 90.9536 43.7607 90.9416 43.7482C90.9296 43.7357 90.921 43.7204 90.9165 43.7037C90.9126 43.6898 90.9115 43.6752 90.9133 43.6609C90.9151 43.6466 90.9197 43.6328 90.9269 43.6203C90.9341 43.6078 90.9437 43.5968 90.9552 43.588C90.9667 43.5793 90.9797 43.5729 90.9937 43.5692C91.1613 43.5339 91.3349 43.5396 91.4997 43.586C91.6646 43.6323 91.8158 43.7178 91.9404 43.8352C91.9506 43.8453 91.9587 43.8574 91.9642 43.8706C91.9697 43.8839 91.9726 43.8981 91.9726 43.9124C91.9726 43.9268 91.9697 43.941 91.9642 43.9543C91.9587 43.9675 91.9506 43.9796 91.9404 43.9897C91.9305 43.9998 91.9187 44.0078 91.9057 44.0133C91.8927 44.0188 91.8787 44.0216 91.8646 44.0216C91.8505 44.0216 91.8365 44.0188 91.8235 44.0133C91.8104 44.0078 91.7987 43.9998 91.7888 43.9897C91.6903 43.8972 91.5713 43.8294 91.4416 43.7916C91.3119 43.7538 91.1751 43.7472 91.0423 43.7723C91.0243 43.7803 91.0039 43.7813 90.9851 43.7752Z" fill="#263238"/>
<path d="M97.24 45.2109C96.7824 47.4417 96.6308 48.7687 95.3266 49.804C94.9099 50.1461 94.4075 50.3677 93.8739 50.4447C93.3403 50.5217 92.7958 50.4512 92.2993 50.2408C91.8029 50.0305 91.3735 49.6883 91.0577 49.2513C90.7418 48.8144 90.5516 48.2993 90.5075 47.762C90.3102 45.6942 91.0795 42.3938 93.4218 41.7245C93.9213 41.5663 94.4536 41.5423 94.9652 41.6549C95.4769 41.7676 95.9499 42.0128 96.3368 42.3661C96.7237 42.7193 97.0108 43.1682 97.1694 43.6675C97.3279 44.1669 97.3522 44.6991 97.24 45.2109Z" fill="#B55B52"/>
<path d="M92.1806 46.2862L91.2025 46.372C91.2025 46.372 91.0566 44.9706 91.826 44.1756C91.3112 44.0812 90.8393 43.2689 90.9251 42.1478C91.0137 40.9609 92.8212 39.0991 94.134 40.2945C95.5468 41.5815 98.3239 41.8818 97.7719 42.6655C98.5841 42.5139 100.506 45.1966 98.5841 46.5122C96.6622 47.8278 97.3143 49.1062 96.3991 49.6267C95.4839 50.1472 92.458 49.6096 92.1806 46.2862Z" fill="#263238"/>
<path d="M97.6804 42.7113C97.6804 42.7113 98.0751 42.348 97.6289 41.5672C98.2781 41.9076 98.1466 42.5825 97.6804 42.7113Z" fill="#263238"/>
<path d="M93.2646 46.2233C93.1361 46.7784 92.8359 47.2788 92.4066 47.6533C91.8346 48.1452 91.3684 47.7448 91.3827 47.0813C91.3827 46.4721 91.7088 45.4826 92.3551 45.2509C93.0015 45.0193 93.4076 45.5541 93.2646 46.2233Z" fill="#B55B52"/>
<path d="M70.7878 116.871C71.0087 116.865 71.2283 116.835 71.4428 116.782C71.4541 116.779 71.4642 116.773 71.4721 116.765C71.4799 116.756 71.485 116.745 71.4869 116.734C71.4887 116.722 71.4871 116.71 71.4823 116.7C71.4775 116.689 71.4698 116.68 71.4599 116.674C71.3684 116.616 70.5619 116.122 70.2845 116.265C70.2539 116.28 70.2284 116.304 70.2107 116.333C70.193 116.363 70.1838 116.396 70.1844 116.431C70.1771 116.489 70.1845 116.549 70.206 116.603C70.2275 116.658 70.2623 116.707 70.3073 116.745C70.4486 116.84 70.618 116.885 70.7878 116.871ZM71.2712 116.699C70.845 116.782 70.519 116.768 70.3817 116.654C70.3518 116.627 70.3288 116.594 70.3148 116.556C70.3009 116.519 70.2963 116.479 70.3016 116.439C70.3009 116.425 70.304 116.411 70.3106 116.398C70.3171 116.386 70.3268 116.375 70.3388 116.368C70.4818 116.296 70.9423 116.508 71.2712 116.688V116.699Z" fill="#92E3A9"/>
<path d="M71.4285 116.782C71.4387 116.785 71.4496 116.785 71.4599 116.782C71.4688 116.777 71.476 116.768 71.4805 116.759C71.4851 116.749 71.4868 116.739 71.4857 116.728C71.4857 116.697 71.4256 115.976 71.1339 115.738C71.0995 115.709 71.0594 115.687 71.0161 115.674C70.9728 115.66 70.9272 115.656 70.8822 115.661C70.8374 115.662 70.7942 115.678 70.7598 115.706C70.7255 115.735 70.702 115.775 70.6934 115.819C70.642 116.105 71.1425 116.645 71.3999 116.785C71.4095 116.787 71.4195 116.786 71.4285 116.782ZM70.928 115.77C70.9783 115.771 71.0268 115.789 71.0652 115.821C71.2363 116.048 71.3359 116.321 71.3512 116.605C71.0938 116.411 70.7792 115.996 70.8078 115.83C70.8078 115.816 70.8078 115.781 70.8936 115.773H70.928V115.77Z" fill="#92E3A9"/>
<path d="M74.1197 116.777H71.8317L71.8088 111.477H74.0968L74.1197 116.777Z" fill="#B55B52"/>
<path d="M71.8575 116.428H74.36C74.405 116.427 74.4488 116.443 74.4834 116.471C74.5181 116.5 74.5412 116.541 74.5487 116.585L74.9234 118.619C74.9322 118.669 74.9299 118.72 74.9165 118.769C74.9031 118.819 74.8791 118.864 74.846 118.903C74.8129 118.942 74.7717 118.973 74.7253 118.994C74.6788 119.015 74.6283 119.025 74.5773 119.025C73.6764 119.01 72.378 118.956 71.2426 118.956C69.9184 118.956 69.8555 119.03 68.2996 119.03C67.3616 119.03 67.1356 118.081 67.5332 117.995C69.3378 117.603 69.7211 117.56 71.3026 116.605C71.4686 116.498 71.6601 116.437 71.8575 116.428Z" fill="#263238"/>
<path opacity="0.2" d="M71.8088 111.477L71.8203 114.208H74.1083L74.0968 111.477H71.8088Z" fill="black"/>
<path d="M87.27 73.5392C87.27 73.5392 71.5142 85.7399 70.8336 92.684C70.1271 99.9084 70.988 113.596 70.988 113.596H74.8633C74.8633 113.596 77.0741 99.3993 77.5231 92.2693C85.9773 83.9753 95.1922 81.6244 97.7719 73.5392H87.27Z" fill="#263238"/>
<path d="M70.3016 112.052C70.2844 112.052 70.4589 113.662 70.4589 113.662H75.1722L75.3552 112.232L70.3016 112.052Z" fill="#92E3A9"/>
</svg>
