<svg width="114" height="108" viewBox="0 0 114 108" fill="none" xmlns="http://www.w3.org/2000/svg">
<path d="M41.6095 3.03688H39.3414V51.8031H41.6095V3.03688Z" fill="#E0E0E0"/>
<path d="M38.963 3.4153H6.4736C6.45519 3.4153 6.44028 3.43022 6.44028 3.44862V51.8388C6.44028 51.8572 6.45519 51.8721 6.4736 51.8721H38.963C38.9814 51.8721 38.9963 51.8572 38.9963 51.8388V3.44862C38.9963 3.43022 38.9814 3.4153 38.963 3.4153Z" fill="#F5F5F5"/>
<path d="M39.3414 52.2481H6.09518C6.09091 52.2481 6.08668 52.2473 6.08276 52.2456C6.07884 52.2439 6.07532 52.2414 6.07242 52.2383C6.06951 52.2351 6.06728 52.2314 6.06587 52.2274C6.06447 52.2234 6.06391 52.2191 6.06424 52.2148V3.0702C6.06391 3.06594 6.06447 3.06166 6.06587 3.05763C6.06728 3.05359 6.06951 3.0499 6.07242 3.04677C6.07532 3.04364 6.07884 3.04114 6.08276 3.03944C6.08668 3.03774 6.09091 3.03687 6.09518 3.03688H39.3414C39.3502 3.03688 39.3587 3.04039 39.365 3.04664C39.3712 3.05289 39.3747 3.06136 39.3747 3.0702V52.2148C39.3747 52.2237 39.3712 52.2321 39.365 52.2384C39.3587 52.2446 39.3502 52.2481 39.3414 52.2481ZM6.84964 51.4937H38.5869C38.5958 51.4937 38.6043 51.4902 38.6105 51.4839C38.6168 51.4777 38.6203 51.4692 38.6203 51.4604V3.82466C38.6203 3.81582 38.6168 3.80735 38.6105 3.8011C38.6043 3.79485 38.5958 3.79134 38.5869 3.79134H6.84964C6.84537 3.79133 6.84114 3.7922 6.83722 3.7939C6.83331 3.7956 6.82978 3.7981 6.82688 3.80123C6.82397 3.80436 6.82174 3.80806 6.82034 3.81209C6.81893 3.81612 6.81837 3.8204 6.8187 3.82466V51.4651C6.8193 51.4729 6.82282 51.4802 6.82856 51.4855C6.8343 51.4908 6.84183 51.4937 6.84964 51.4937Z" fill="#EBEBEB"/>
<path d="M35.7428 6.40459H9.75085C9.73245 6.40459 9.71753 6.41951 9.71753 6.43791V48.8162C9.71753 48.8346 9.73245 48.8495 9.75085 48.8495H35.7428C35.7612 48.8495 35.7761 48.8346 35.7761 48.8162V6.43791C35.7761 6.41951 35.7612 6.40459 35.7428 6.40459Z" fill="white"/>
<path d="M30.0213 18.4379H15.4176C15.4097 18.4379 15.4034 18.4442 15.4034 18.4521V35.5715C15.4034 35.5794 15.4097 35.5858 15.4176 35.5858H30.0213C30.0292 35.5858 30.0356 35.5794 30.0356 35.5715V18.4521C30.0356 18.4442 30.0292 18.4379 30.0213 18.4379Z" fill="#EBEBEB"/>
<path d="M28.8765 33.4866C28.8956 33.5413 28.1625 33.8579 26.7988 33.6984C25.9548 33.5874 25.1521 33.2667 24.464 32.7655C23.528 32.0697 22.8821 31.0525 22.6505 29.9095C22.514 29.1943 22.5706 28.4556 22.8144 27.7695C23.0583 27.0835 23.4807 26.4748 24.038 26.0063C24.3521 25.744 24.7076 25.5357 25.09 25.3898C25.5104 25.2355 25.9617 25.184 26.4061 25.2399C26.8943 25.2878 27.3548 25.4885 27.7223 25.8135C27.9278 26.0068 28.0826 26.2478 28.1731 26.515C28.2636 26.7823 28.2869 27.0678 28.2411 27.3462C28.1434 27.8476 27.8941 28.307 27.5271 28.6623C27.201 28.9848 26.8299 29.2582 26.4252 29.4739C25.621 29.9204 24.7257 30.1777 23.8072 30.226C22.8322 30.2787 21.8619 30.0578 21.0059 29.5882C20.1204 29.0953 19.4019 28.3495 18.9424 27.4462C18.4671 26.5238 18.3363 25.4622 18.5735 24.4521C18.8063 23.4757 19.3624 22.6068 20.1515 21.9864C20.5455 21.6806 20.9948 21.4535 21.4748 21.3177C21.9603 21.1878 22.4693 21.1715 22.9623 21.2701C23.4844 21.3697 23.9594 21.6381 24.3141 22.034C24.6561 22.4378 24.8441 22.9496 24.8448 23.4787C24.8498 23.9602 24.7284 24.4345 24.4926 24.8543C24.2759 25.2354 23.9931 25.5747 23.6572 25.8563C23.0518 26.366 22.3453 26.7415 21.5842 26.9583C20.877 27.1645 20.1347 27.2221 19.4042 27.1272C18.7216 27.0354 18.0698 26.7861 17.5002 26.399C17.0108 26.0774 16.5957 25.655 16.283 25.16C15.9702 24.6649 15.7668 24.1087 15.6866 23.5287C15.5905 22.653 15.8304 21.7734 16.3578 21.0678C16.6732 20.6294 17.1029 20.2861 17.6001 20.0753C17.9428 19.9468 18.138 19.9492 18.1451 19.9825C18.1523 20.0158 17.9904 20.1039 17.7144 20.2895C17.3199 20.5602 16.99 20.9145 16.7481 21.3272C16.3674 21.9581 16.2271 22.7051 16.353 23.4311C16.448 23.8981 16.6387 24.3403 16.9132 24.7298C17.1876 25.1194 17.5398 25.4479 17.9476 25.6945C18.4465 25.9865 19.0031 26.1662 19.5786 26.2208C20.1541 26.2755 20.7346 26.2039 21.2796 26.011C21.8949 25.8126 22.4622 25.4884 22.9456 25.059C23.4216 24.6306 23.75 24.0785 23.7215 23.5001C23.7168 23.2249 23.6108 22.961 23.4237 22.759C23.2367 22.557 22.9817 22.4311 22.7076 22.4053C22.3909 22.3487 22.0655 22.3642 21.7556 22.4505C21.4272 22.5517 21.1205 22.7131 20.8512 22.9265C20.2812 23.388 19.8809 24.0261 19.7136 24.7401C19.5447 25.4755 19.6443 26.247 19.9944 26.9154C20.346 27.6037 20.8934 28.1726 21.5676 28.5505C22.2286 28.9167 22.9786 29.0914 23.7334 29.055C24.4826 29.027 25.2153 28.8275 25.8754 28.4719C26.1856 28.3144 26.4717 28.1132 26.725 27.8746C26.9365 27.6847 27.0865 27.4361 27.1558 27.1606C27.1772 27.0595 27.1725 26.9547 27.1421 26.856C27.1117 26.7573 27.0566 26.668 26.9821 26.5965C26.7826 26.4204 26.5328 26.3113 26.2681 26.2847C25.9902 26.2431 25.7065 26.2676 25.4398 26.3561C25.16 26.4528 24.8985 26.5961 24.6663 26.7798C24.2235 27.1285 23.8803 27.5877 23.6714 28.1113C23.4625 28.6348 23.3952 29.2041 23.4763 29.7619C23.6321 30.7252 24.1267 31.6013 24.871 32.2323C25.4525 32.7163 26.1385 33.0585 26.875 33.2319C28.1245 33.5247 28.867 33.3771 28.8765 33.4866Z" fill="#E0E0E0"/>
<path d="M83.6356 49.059C83.6665 49.0732 81.2556 54.3711 78.2472 60.8899C75.2389 67.4087 72.7732 72.6876 72.7471 72.6733C72.7209 72.659 75.1271 67.3611 78.1354 60.84C81.1437 54.3188 83.6023 49.0447 83.6356 49.059Z" fill="#E0E0E0"/>
<path d="M88.0743 53.3501C101.303 53.3501 112.027 42.6262 112.027 29.3978C112.027 16.1693 101.303 5.44543 88.0743 5.44543C74.8458 5.44543 64.1219 16.1693 64.1219 29.3978C64.1219 42.6262 74.8458 53.3501 88.0743 53.3501Z" fill="#F5F5F5"/>
<path d="M112.027 29.3978C112.027 29.3978 112.027 29.2669 112.01 29.0098C112.01 28.8789 112.01 28.7195 111.993 28.5338C111.977 28.3482 111.993 28.1221 111.96 27.8722C111.799 25.3562 111.237 22.8822 110.294 20.5442C109.83 19.3778 109.273 18.2508 108.628 17.1741C107.05 14.5443 104.987 12.2378 102.549 10.3768C101.135 9.29742 99.6028 8.38164 97.9822 7.64695C96.2284 6.84347 94.3817 6.26068 92.4844 5.91193C89.3845 5.33832 86.2024 5.37551 83.1167 6.02141C82.0336 6.25543 80.9668 6.55911 79.9228 6.93057C75.479 8.55071 71.6136 11.4489 68.8129 15.2606C68.0825 16.2533 67.4315 17.3022 66.8661 18.3974C66.7281 18.6759 66.5734 18.9472 66.4496 19.2328L66.0641 20.0872C65.8261 20.6679 65.588 21.251 65.4048 21.8532C65.0003 23.0582 64.6955 24.2944 64.4933 25.5493C64.2936 26.821 64.1894 28.1058 64.1815 29.393C64.1881 30.6811 64.2924 31.9668 64.4933 33.2391C64.6938 34.4982 64.9987 35.7385 65.4048 36.9471C65.5952 37.5493 65.8332 38.1371 66.0641 38.7131C66.2949 39.289 66.571 39.8555 66.8661 40.4029C67.431 41.4984 68.082 42.5473 68.8129 43.5397C71.6133 47.3527 75.4799 50.2511 79.9252 51.8697C80.9695 52.2434 82.0372 52.5479 83.1215 52.7813C86.2068 53.424 89.3876 53.4604 92.4868 52.8884C96.1448 52.2053 99.5924 50.6763 102.554 48.4235C104.991 46.5612 107.051 44.2529 108.626 41.6214C109.273 40.5458 109.83 39.4186 110.292 38.2514C110.686 37.2724 111.014 36.2682 111.275 35.2454C111.633 33.8284 111.861 32.3817 111.958 30.9233C111.981 30.6734 111.986 30.4473 111.991 30.2641C111.996 30.0808 112.003 29.9142 112.008 29.7881C112.008 29.531 112.024 29.4001 112.024 29.4001C112.024 29.4001 112.024 29.531 112.024 29.7881C112.024 29.9166 112.024 30.0761 112.024 30.2641C112.024 30.4521 112.024 30.6758 111.996 30.9257C111.851 33.4467 111.299 35.9277 110.363 38.2728C109.901 39.4446 109.344 40.5765 108.697 41.6571C107.121 44.2997 105.057 46.6179 102.614 48.4877C99.6448 50.7562 96.1853 52.2969 92.513 52.9859C89.4002 53.564 86.2046 53.5301 83.1048 52.886C82.0155 52.6529 80.943 52.3476 79.8942 51.9721C75.4234 50.3514 71.5333 47.4418 68.7154 43.6111C67.9805 42.614 67.3255 41.5603 66.7566 40.46C66.4615 39.9102 66.2092 39.3343 65.9498 38.7607C65.6904 38.1871 65.4738 37.5921 65.2882 36.9852C64.8824 35.7737 64.5759 34.5312 64.3719 33.27C63.9546 30.7094 63.9546 28.0981 64.3719 25.5374C64.5751 24.2763 64.8808 23.0338 65.2858 21.8222C65.4786 21.2177 65.7166 20.6322 65.9498 20.0491C66.0783 19.7611 66.2092 19.4755 66.3378 19.1899C66.4663 18.9043 66.6186 18.6306 66.7566 18.3498C67.3261 17.2498 67.981 16.1962 68.7154 15.1987C71.5312 11.3683 75.4175 8.45678 79.8847 6.83061C80.9338 6.45693 82.0064 6.15243 83.0953 5.91907C84.1563 5.69586 85.2315 5.54636 86.3131 5.47163C88.3821 5.31811 90.4623 5.43492 92.5011 5.81911C96.1724 6.51002 99.6313 8.04959 102.602 10.3149C105.045 12.1847 107.11 14.5029 108.685 17.1455C110.628 20.4073 111.758 24.0889 111.979 27.8793C112.003 28.1173 112.005 28.3553 112.008 28.5386C112.01 28.7218 112.008 28.8884 112.008 29.0146C112.027 29.2669 112.027 29.3978 112.027 29.3978Z" fill="#E0E0E0"/>
<path d="M74.0584 72.2758C74.0775 72.5354 74.0192 72.7949 73.8908 73.0213C73.7624 73.2478 73.5698 73.4311 73.3372 73.548C73.1047 73.665 72.8427 73.7104 72.5843 73.6784C72.326 73.6465 72.0829 73.5387 71.8859 73.3686C71.6888 73.1985 71.5466 72.9738 71.4773 72.7229C71.4079 72.472 71.4145 72.2061 71.4963 71.959C71.578 71.7118 71.7312 71.4945 71.9365 71.3344C72.1418 71.1743 72.3899 71.0787 72.6495 71.0597C72.9976 71.0341 73.3416 71.1479 73.6058 71.376C73.8701 71.604 74.0329 71.9277 74.0584 72.2758Z" fill="#E0E0E0"/>
<path d="M75.208 79.323V88.0029H73.2683V89.1929H75.208V95.1429H111.455V89.7165H108.771V88.5265H111.455V86.7581H112.645V85.9751H111.244V79.3349L75.208 79.323Z" fill="#F5F5F5"/>
<path d="M101.828 79.3492V95.0334H111.455V89.6165H108.771V88.536L111.455 88.5741V86.8034L112.672 86.8057L112.648 85.8918L111.232 85.8633V79.323L101.828 79.3492Z" fill="#EBEBEB"/>
<path d="M102.626 89.2476C102.626 89.3214 96.0663 89.3833 87.9791 89.3833C79.8918 89.3833 73.3278 89.3214 73.3278 89.2476C73.3278 89.1739 79.8871 89.112 87.9791 89.112C96.0711 89.112 102.626 89.1715 102.626 89.2476Z" fill="#E0E0E0"/>
<path d="M102.626 88.0029C102.626 88.0767 96.0663 88.1385 87.9791 88.1385C79.8918 88.1385 73.3278 88.0767 73.3278 88.0029C73.3278 87.9291 79.8871 87.8672 87.9791 87.8672C96.0711 87.8672 102.626 87.9267 102.626 88.0029Z" fill="#E0E0E0"/>
<path d="M104.396 82.1671C104.396 82.2409 97.837 82.3028 89.7498 82.3028C81.6626 82.3028 75.0985 82.2409 75.0985 82.1671C75.0985 82.0933 81.6578 82.0315 89.7498 82.0315C97.8418 82.0315 104.396 82.0838 104.396 82.1671Z" fill="#E0E0E0"/>
<path d="M104.58 91.2897C104.58 91.3634 98.0203 91.4253 89.933 91.4253C81.8458 91.4253 75.2818 91.3634 75.2818 91.2897C75.2818 91.2159 81.841 91.1516 89.933 91.1516C98.025 91.1516 104.58 91.2111 104.58 91.2897Z" fill="#E0E0E0"/>
<path d="M113.005 95.131C113.005 95.1643 87.7078 95.1929 56.506 95.1929C25.3042 95.1929 0 95.1643 0 95.131C0 95.0977 25.2946 95.0691 56.506 95.0691C87.7173 95.0691 113.005 95.0953 113.005 95.131Z" fill="#263238"/>
<path d="M84.7923 88.1171C84.7923 88.1171 89.9807 86.2821 94.7883 88.1171L93.8696 89.7831L85.2754 90.1139L84.7994 88.1338" fill="#92E3A9"/>
<path d="M85.6562 78.8065H85.749C85.8231 78.801 85.8976 78.8102 85.9682 78.8336C86.0387 78.857 86.1039 78.894 86.1601 78.9427C86.2163 78.9913 86.2623 79.0506 86.2955 79.1171C86.3287 79.1836 86.3484 79.256 86.3536 79.3301L87.584 96.3995L86.3631 96.4876L85.1326 79.4182C85.1264 79.3436 85.1351 79.2685 85.1581 79.1972C85.1812 79.126 85.2181 79.06 85.2668 79.0031C85.3155 78.9463 85.375 78.8996 85.4418 78.8659C85.5087 78.8321 85.5815 78.812 85.6562 78.8065Z" fill="#E0E0E0"/>
<path d="M85.6562 78.8066C85.5373 78.8229 85.4257 78.8733 85.3349 78.9517C85.2271 79.0484 85.1613 79.1833 85.1516 79.3278C85.1516 79.4968 85.1802 79.6991 85.1945 79.9252C85.2635 80.8343 85.3658 82.1409 85.4896 83.7546C85.7276 87.0033 86.0584 91.4872 86.4249 96.4757L86.3583 96.4186L87.0128 96.371L87.5793 96.3305L87.5221 96.3972C87.1675 91.3849 86.8486 86.8771 86.6201 83.6118C86.5106 81.9862 86.4226 80.6725 86.3607 79.7562C86.3607 79.6435 86.3535 79.5364 86.3393 79.4349C86.3404 79.3429 86.3268 79.2512 86.2988 79.1636C86.2467 79.0275 86.1433 78.9173 86.0108 78.8565C85.9288 78.8192 85.8392 78.8012 85.749 78.8042H85.6562L85.749 78.7899C85.8402 78.7843 85.9314 78.7998 86.0156 78.8351C86.1571 78.8956 86.2691 79.0093 86.3274 79.1517C86.3592 79.2428 86.3761 79.3384 86.3773 79.4349C86.3773 79.5348 86.394 79.6419 86.4035 79.7562C86.4749 80.6701 86.5749 81.9839 86.701 83.607C86.939 86.8724 87.2722 91.3801 87.653 96.39V96.4519H87.5911L87.0247 96.4924L86.3702 96.54H86.3083V96.4781C85.9561 91.4801 85.6395 87.0009 85.4111 83.7546C85.3016 82.1386 85.2159 80.8319 85.154 79.9204C85.1421 79.6943 85.1207 79.4968 85.1231 79.3183C85.1368 79.1655 85.2103 79.0243 85.3278 78.9256C85.3965 78.8676 85.4781 78.8268 85.5658 78.8066C85.5957 78.8018 85.6262 78.8018 85.6562 78.8066Z" fill="#263238"/>
<path d="M85.7419 91.1183L87.4793 90.9922L87.891 96.6851C87.9074 96.9158 87.8317 97.1435 87.6804 97.3184C87.5292 97.4932 87.3148 97.601 87.0842 97.6181C86.8537 97.6338 86.6263 97.5579 86.4516 97.4068C86.2769 97.2556 86.1689 97.0416 86.1512 96.8113L85.7419 91.1183Z" fill="#455A64"/>
<path d="M85.7462 95.9064L86.0833 95.8821L85.5497 88.4924L85.2126 88.5167L85.7462 95.9064Z" fill="#455A64"/>
<path d="M87.4793 90.9921C87.4793 91.0302 86.7653 91.1326 85.7276 91.2444L85.8061 91.154C85.8371 91.5514 85.8704 91.9822 85.9061 92.4368C85.968 93.2793 86.0108 94.0409 86.0346 94.5931C86.0672 94.8913 86.0672 95.1921 86.0346 95.4903C85.9598 95.1999 85.9159 94.9023 85.9037 94.6026C85.8466 94.0528 85.7823 93.2912 85.7205 92.4606C85.6919 92.006 85.6633 91.5729 85.6372 91.1754V91.0921H85.7205C86.7558 90.9921 87.4769 90.9564 87.4793 90.9921Z" fill="#263238"/>
<path d="M88.8335 79.254H87.6102V93.0556H88.8335V79.254Z" fill="#E0E0E0"/>
<path d="M88.8335 93.0556C88.8335 93.0556 88.8335 93.0294 88.8335 92.9818C88.8335 92.9342 88.8335 92.8605 88.8335 92.7724C88.8335 92.582 88.8335 92.3154 88.8335 91.9727C88.8335 91.273 88.8335 90.2734 88.8144 89.0334C88.8144 86.5487 88.8002 83.1096 88.7883 79.254L88.8501 79.3159H87.6292C87.7506 79.1921 87.6625 79.2849 87.6887 79.2588V81.5317C87.6887 82.2742 87.6887 82.9969 87.6887 83.6998C87.6887 85.1064 87.6887 86.4226 87.6887 87.6173C87.6768 89.9973 87.6673 91.9013 87.6625 93.0556L87.6364 93.0318L88.5384 93.0461H88.7764H88.8597C88.8344 93.0502 88.8087 93.0502 88.7835 93.0461H88.5455L87.6292 93.0604H87.6054V93.0342C87.6054 91.8751 87.5911 89.9759 87.5792 87.5959C87.5792 86.4059 87.5792 85.085 87.5792 83.6784C87.5792 82.9755 87.5792 82.2528 87.5792 81.5102C87.5792 81.139 87.5792 80.7629 87.5792 80.3821V79.2373C87.6078 79.2088 87.5174 79.2945 87.6435 79.1707H88.9263V79.2326C88.9263 83.1072 88.9073 86.5606 88.9001 89.0572C88.9001 90.2901 88.8858 91.2849 88.8811 91.9822C88.8811 92.3186 88.8811 92.5804 88.8811 92.7676V92.9699C88.8382 93.0366 88.8359 93.058 88.8335 93.0556Z" fill="#263238"/>
<path d="M89.0691 84.6471H87.327V78.9351C87.327 78.7041 87.4187 78.4825 87.5821 78.3191C87.7455 78.1558 87.967 78.064 88.198 78.064C88.3124 78.064 88.4257 78.0865 88.5314 78.1303C88.6371 78.1741 88.7331 78.2382 88.814 78.3191C88.8949 78.4 88.959 78.496 89.0028 78.6017C89.0466 78.7074 89.0691 78.8207 89.0691 78.9351V84.6471Z" fill="#455A64"/>
<path d="M89.4071 79.8704H89.0691V87.2794H89.4071V79.8704Z" fill="#455A64"/>
<path d="M87.327 84.6471C87.327 84.609 88.041 84.559 89.0905 84.521L89.0072 84.6066C89.0072 84.2092 89.0072 83.776 89.0072 83.3191C89.0072 82.4765 89.0072 81.7125 89.0334 81.1604C89.0235 80.8606 89.0458 80.5605 89.1001 80.2655C89.1543 80.5605 89.1766 80.8606 89.1667 81.1604C89.1834 81.7125 89.1953 82.4765 89.1953 83.3191C89.1953 83.776 89.1953 84.2092 89.1953 84.6066V84.6923H89.112C88.0505 84.7018 87.327 84.6852 87.327 84.6471Z" fill="#263238"/>
<path d="M91.2992 82.4932H90.0759V96.2948H91.2992V82.4932Z" fill="#E0E0E0"/>
<path d="M91.2992 96.2948C91.2972 96.2702 91.2972 96.2456 91.2992 96.221C91.2992 96.1687 91.2992 96.0996 91.2992 96.0116C91.2992 95.8212 91.2992 95.5522 91.2992 95.2119C91.2992 94.5122 91.2873 93.5126 91.2801 92.2726C91.2801 89.7879 91.2635 86.3488 91.2539 82.4932L91.3158 82.5551H90.0925C90.2163 82.4313 90.1258 82.5241 90.1544 82.4979V84.7708C90.1544 85.5134 90.1544 86.2361 90.1544 86.939C90.1544 88.3432 90.1544 89.6617 90.1544 90.8565C90.1544 93.2365 90.133 95.1405 90.1258 96.2948L90.102 96.271L91.0017 96.2853H91.2397H91.3253C91.3001 96.2891 91.2744 96.2891 91.2492 96.2853H91.0112L90.0973 96.2996H90.0616V96.2734C90.0616 95.1143 90.0449 93.2151 90.033 90.8351C90.033 89.6451 90.033 88.3218 90.033 86.9176C90.033 86.2155 90.033 85.4896 90.033 84.7494V82.4765C90.0616 82.448 89.9711 82.5336 90.0949 82.4099H91.3801V82.4718C91.3801 86.3464 91.361 89.7998 91.3539 92.2964C91.3539 93.5292 91.3396 94.5241 91.3349 95.2214C91.3349 95.557 91.3349 95.8188 91.3349 96.0068V96.2091C91.3015 96.2758 91.2992 96.2972 91.2992 96.2948Z" fill="#263238"/>
<path d="M91.5348 87.8791H89.7903V82.1671C89.7903 82.0525 89.8129 81.9391 89.8568 81.8332C89.9007 81.7274 89.9651 81.6312 90.0462 81.5503C90.1274 81.4694 90.2237 81.4053 90.3296 81.3617C90.4356 81.318 90.5491 81.2957 90.6637 81.296C90.8947 81.296 91.1163 81.3878 91.2797 81.5512C91.443 81.7145 91.5348 81.9361 91.5348 82.1671V87.8791Z" fill="#455A64"/>
<path d="M91.8727 83.1096H91.5348V90.5185H91.8727V83.1096Z" fill="#455A64"/>
<path d="M89.7903 87.8791C89.7903 87.841 90.5043 87.7911 91.5562 87.753L91.4729 87.8387C91.4729 87.4388 91.4729 87.008 91.4729 86.5511C91.4729 85.7086 91.4848 84.9446 91.5015 84.3924C91.4915 84.0926 91.5139 83.7926 91.5681 83.4975C91.6224 83.7926 91.6447 84.0926 91.6348 84.3924C91.6514 84.9446 91.6609 85.7086 91.6609 86.5511C91.6609 87.008 91.6609 87.4388 91.6609 87.8387V87.9243H91.58C90.5138 87.941 89.7926 87.9243 89.7903 87.8791Z" fill="#263238"/>
<path d="M93.6221 78.7495H92.3987V92.5511H93.6221V78.7495Z" fill="#E0E0E0"/>
<path d="M93.6316 92.5511C93.6316 92.5511 93.6316 92.5249 93.6316 92.4773C93.6316 92.4297 93.6316 92.3535 93.6316 92.2678C93.6316 92.0774 93.6316 91.8085 93.6316 91.4682C93.6316 90.7684 93.6197 89.7665 93.6125 88.5289C93.6125 86.0441 93.5983 82.605 93.5864 78.7494L93.6482 78.8113H92.4273L92.4868 78.7518V81.0247C92.4868 81.7673 92.4868 82.4932 92.4868 83.1953C92.4868 84.5995 92.4868 85.9156 92.4868 87.1128C92.4749 89.4928 92.4654 91.3968 92.4606 92.5511L92.4344 92.5273L93.3365 92.5415H93.5745H93.6578C93.6324 92.5439 93.6069 92.5439 93.5816 92.5415H93.3436L92.4273 92.5558H92.4035V92.532C92.4035 91.3706 92.3892 89.4737 92.3773 87.0937C92.3773 85.9037 92.3773 84.5804 92.3773 83.1762V81.0247C92.3773 80.6534 92.3773 80.2774 92.3773 79.899V78.7518L92.4416 78.6876H93.7244V78.7494C93.7244 82.6217 93.7054 86.0775 93.6982 88.5741C93.6982 89.8069 93.6839 90.8018 93.6792 91.4967C93.6792 91.8323 93.6792 92.0965 93.6792 92.2845V92.4844C93.6663 92.5086 93.6503 92.531 93.6316 92.5511Z" fill="#263238"/>
<path d="M93.8696 84.1401H92.1274V78.4281C92.1271 78.3135 92.1494 78.2 92.193 78.0941C92.2367 77.9881 92.3008 77.8918 92.3817 77.8106C92.4626 77.7295 92.5588 77.6651 92.6646 77.6212C92.7704 77.5773 92.8839 77.5547 92.9985 77.5547C93.1131 77.5547 93.2265 77.5773 93.3324 77.6212C93.4382 77.6651 93.5344 77.7295 93.6153 77.8106C93.6962 77.8918 93.7603 77.9881 93.8039 78.0941C93.8476 78.2 93.8699 78.3135 93.8696 78.4281V84.1401Z" fill="#455A64"/>
<path d="M94.1956 79.3659H93.8577V86.7748H94.1956V79.3659Z" fill="#455A64"/>
<path d="M92.1155 84.1401C92.1155 84.1021 92.8295 84.0545 93.8791 84.0164L93.7958 84.1021C93.7958 83.7022 93.7958 83.2691 93.7958 82.8145C93.7958 81.9696 93.8077 81.208 93.8244 80.6534C93.8146 80.3536 93.8369 80.0536 93.891 79.7585C93.945 80.0536 93.9674 80.3536 93.9576 80.6534C93.9743 81.208 93.9862 81.9696 93.9862 82.8145C93.9862 83.2691 93.9862 83.7022 93.9862 84.1021V84.1854H93.9029C92.8367 84.1949 92.1155 84.1782 92.1155 84.1401Z" fill="#263238"/>
<path d="M93.6649 99.5792C91.0731 100.803 88.4575 100.783 85.8252 99.5792L84.7923 88.1171C87.9481 89.0406 91.2968 88.9525 94.7883 88.1171L93.6649 99.5792Z" fill="#92E3A9"/>
<path d="M94.7906 88.0481C94.6705 88.1047 94.5454 88.1501 94.417 88.1838C94.179 88.2647 93.8172 88.3646 93.3745 88.4694C92.9319 88.5741 92.394 88.674 91.7942 88.755C91.1435 88.836 90.4888 88.8804 89.8331 88.8882C89.1781 88.8914 88.5234 88.8589 87.872 88.7907C87.3395 88.7327 86.8104 88.6469 86.2869 88.5336C85.8418 88.4384 85.4825 88.3456 85.2397 88.2694C85.1114 88.2358 84.9857 88.1928 84.8637 88.1409C84.9951 88.1567 85.1249 88.1838 85.2516 88.2218C85.4896 88.2837 85.8585 88.3623 86.3036 88.4479C86.7486 88.5336 87.2865 88.6145 87.8839 88.6859C89.18 88.8153 90.4864 88.8033 91.7799 88.6502C92.3773 88.5765 92.9104 88.4884 93.3555 88.3932C93.8006 88.298 94.1576 88.2147 94.4027 88.1552C94.5288 88.1089 94.6586 88.0731 94.7906 88.0481Z" fill="#263238"/>
<path d="M52.072 99.0651L32.1609 99.5959L52.072 107.688L73.4849 106.422L52.072 99.0651Z" fill="#E0E0E0"/>
<path d="M46.3957 98.263L26.487 98.7914L46.3957 106.883L67.8109 105.617L46.3957 98.263Z" fill="#F5F5F5"/>
<path d="M27.7865 96.1567L47.6952 104.249V105.72L27.7865 97.3444V96.1567Z" fill="#E0E0E0"/>
<path d="M47.6952 105.72L69.108 104.351V102.985L47.6952 104.249V105.72Z" fill="#EBEBEB"/>
<path d="M47.6952 95.6284L27.7865 96.1567L47.6952 104.249L69.108 102.983L47.6952 95.6284Z" fill="white"/>
<path d="M47.6975 95.6284C47.6975 95.6284 47.7309 95.6284 47.7975 95.6569L48.095 95.7545L49.2469 96.1425L53.6118 97.6371L69.1175 102.933C69.131 102.937 69.1421 102.947 69.1483 102.96C69.1545 102.973 69.1555 102.988 69.1509 103.002C69.1478 103.012 69.1415 103.021 69.133 103.027C69.1244 103.034 69.114 103.037 69.1033 103.037L49.0327 104.227L47.6975 104.301C47.6889 104.303 47.68 104.303 47.6714 104.301L27.7674 96.2091C27.7544 96.2038 27.7439 96.1937 27.7381 96.1808C27.7324 96.1679 27.7318 96.1534 27.7365 96.1401C27.7411 96.1311 27.7478 96.1233 27.7561 96.1175C27.7644 96.1117 27.774 96.108 27.7841 96.1068L42.2402 95.7331L46.2719 95.6403L47.3334 95.6189H47.6975L47.3334 95.6355L46.2695 95.6712L42.2235 95.7926L27.7865 96.2091L27.8055 96.1091L47.719 104.201H47.6904L49.0351 104.123L69.1175 102.93L69.1033 103.035L53.5999 97.6895L49.2398 96.1758L48.0902 95.7736L47.7951 95.6665L47.6975 95.6284Z" fill="#263238"/>
<path d="M47.6809 105.774C47.5984 105.276 47.5984 104.768 47.6809 104.27C47.7634 104.768 47.7634 105.276 47.6809 105.774Z" fill="#263238"/>
<path d="M61.3659 101.445C61.3659 101.481 58.1196 101.702 54.114 101.943C50.1085 102.183 46.855 102.349 46.8527 102.316C46.8503 102.283 50.0966 102.059 54.1069 101.819C58.1172 101.578 61.3635 101.421 61.3659 101.445Z" fill="#263238"/>
<path d="M59.2549 100.641C59.2549 100.676 56.0085 100.898 52.0006 101.138C47.9927 101.378 44.744 101.545 44.7416 101.509C44.7392 101.474 47.9856 101.255 51.9935 101.014C56.0014 100.774 59.2525 100.607 59.2549 100.641Z" fill="#263238"/>
<path d="M57.1438 99.8267C57.1438 99.86 53.8975 100.084 49.8896 100.322C45.8816 100.56 42.6306 100.729 42.6282 100.695C42.6258 100.662 45.8745 100.438 49.8824 100.198C53.8903 99.9576 57.1414 99.791 57.1438 99.8267Z" fill="#263238"/>
<path d="M54.6876 99.0128C54.6876 99.0461 51.4413 99.2674 47.4334 99.5078C43.4255 99.7482 40.1744 99.9148 40.172 99.8815C40.1696 99.8481 43.4183 99.6244 47.4262 99.384C51.4342 99.1437 54.6852 98.9771 54.6876 99.0128Z" fill="#263238"/>
<path d="M52.5813 98.1964C52.5813 98.2321 49.335 98.4535 45.3271 98.6938C41.3192 98.9342 38.0681 99.1008 38.0681 99.0651C38.0681 99.0294 41.312 98.8105 45.3199 98.5701C49.3279 98.3297 52.5789 98.1631 52.5813 98.1964Z" fill="#263238"/>
<path d="M50.0062 97.3682C50.0062 97.4015 46.7622 97.6252 42.7543 97.8632C38.7464 98.1012 35.4953 98.2702 35.4929 98.2369C35.4905 98.2036 38.7369 97.9798 42.7472 97.7394C46.7575 97.4991 50.0038 97.3325 50.0062 97.3682Z" fill="#263238"/>
<path d="M65.6 39.1724C65.6 39.1724 63.7507 39.0368 63.6127 35.8856C63.4746 32.7345 62.4488 24.7853 62.6607 23.2098C62.8725 21.6342 64.3743 21.3605 64.9217 20.8131C65.4691 20.2657 79.5825 14.2348 80.8843 14.4418C82.1862 14.6489 99.9243 20.7441 99.9243 20.7441L107.793 42.9995C107.793 42.9995 103.694 44.5845 100.474 44.6536C97.254 44.7226 87.3841 41.5715 87.3841 41.5715L85.7181 42.2997C85.7181 42.2997 86.4845 44.8249 85.1112 45.4366C83.7379 46.0482 82.2552 45.5365 82.2552 45.5365C82.2552 45.5365 82.1766 48.5139 79.9156 48.4473C77.6547 48.3806 75.0652 46.4362 75.0652 46.4362C75.0652 46.4362 73.8324 47.2573 73.0779 46.6409C72.3235 46.0244 68.0799 41.5715 68.0799 41.5715L65.6 39.1724Z" fill="#AE7461"/>
<path d="M80.6416 25.6754C80.5735 25.5913 80.513 25.5013 80.4607 25.4065C80.3073 25.1568 80.1682 24.8985 80.0442 24.633C79.8564 24.2406 79.6935 23.8368 79.5563 23.424C79.2194 22.4104 79.0349 21.3525 79.0089 20.2847C78.9974 19.8502 79.0133 19.4154 79.0565 18.9829C79.0838 18.6911 79.1275 18.4011 79.1874 18.1142C79.2026 18.007 79.2289 17.9017 79.2659 17.8C79.266 17.9079 79.2557 18.0155 79.235 18.1213C79.204 18.326 79.1707 18.6211 79.1445 18.99C79.1103 19.4215 79.1 19.8545 79.1136 20.2871C79.1352 20.8137 79.19 21.3383 79.2778 21.8579C79.372 22.377 79.4984 22.8897 79.6562 23.393C79.7868 23.8043 79.9401 24.2079 80.1156 24.6021C80.2631 24.9376 80.3964 25.2066 80.494 25.3875C80.5525 25.4784 80.6019 25.5748 80.6416 25.6754Z" fill="#6F4439"/>
<path d="M84.8946 22.779C84.8215 22.9406 84.7262 23.0912 84.6114 23.2264C84.3582 23.5693 84.0857 23.8975 83.7951 24.2094C83.5041 24.5208 83.1958 24.8156 82.8716 25.0924C82.7435 25.2147 82.6004 25.3203 82.4456 25.4065C82.4218 25.3779 83.0287 24.8496 83.7046 24.1237C84.3805 23.3978 84.8661 22.7576 84.8946 22.779Z" fill="#6F4439"/>
<path d="M72.54 37.7278C72.6448 37.8094 72.7412 37.901 72.828 38.0015C73.0065 38.1823 73.2612 38.4489 73.5682 38.7869C73.8752 39.1248 74.2322 39.5342 74.5964 40.0149C75.0027 40.5331 75.3469 41.097 75.6221 41.6952C75.8848 42.3038 76.0255 42.9579 76.0363 43.6206C76.047 44.162 75.9558 44.7005 75.7673 45.2081C75.6374 45.5482 75.4481 45.8626 75.208 46.1363C75.145 46.2126 75.0758 46.2834 75.001 46.3481C74.9777 46.3729 74.9513 46.3945 74.9224 46.4124C74.9224 46.4124 75.0152 46.3053 75.1723 46.1054C75.3913 45.8253 75.5641 45.5119 75.684 45.1772C75.8573 44.6779 75.938 44.1512 75.922 43.623C75.9053 42.9764 75.7648 42.3389 75.5079 41.7452C75.2373 41.1541 74.9012 40.5953 74.5059 40.0792C74.1489 39.6032 73.7919 39.1843 73.5016 38.8392C73.2112 38.4941 72.9732 38.2371 72.7876 38.0276C72.6986 37.9332 72.6159 37.833 72.54 37.7278Z" fill="#6F4439"/>
<path d="M80.0656 35.2264C80.064 35.2507 80.0592 35.2747 80.0513 35.2978C80.0369 35.3654 80.0186 35.4322 79.9966 35.4977C79.9141 35.7495 79.8073 35.9926 79.6777 36.2236C79.4821 36.5845 79.237 36.9161 78.9494 37.2089C78.772 37.3931 78.5712 37.5532 78.352 37.6849C78.1091 37.8329 77.8338 37.9195 77.5499 37.9372L77.588 37.8444C77.9207 38.2371 78.1411 38.7124 78.2259 39.22C78.3491 39.771 78.3302 40.3443 78.1711 40.886C78.1061 41.0836 78.0053 41.2676 77.8736 41.4287L77.8522 41.3311C78.6241 41.6736 79.3674 42.0771 80.0751 42.5377C80.3792 42.7424 80.6672 42.9699 80.9367 43.2184C81.1666 43.4376 81.3768 43.6765 81.565 43.9324C81.8351 44.3024 82.0447 44.7129 82.1862 45.1486C82.2245 45.2663 82.2555 45.3864 82.279 45.508C82.2926 45.5487 82.3006 45.5912 82.3028 45.6341C82.2909 45.6341 82.2457 45.4651 82.1433 45.1581C81.9877 44.732 81.7704 44.3311 81.4984 43.9681C81.3094 43.7187 81.0983 43.4869 80.8677 43.2755C80.5997 43.0333 80.3141 42.8113 80.0132 42.6115C79.3068 42.1591 78.5668 41.7613 77.7998 41.4215L77.7284 41.3882L77.7808 41.3263C77.9006 41.1762 77.9932 41.0062 78.0545 40.8241C78.2076 40.3018 78.2265 39.7492 78.1092 39.2176C78.0294 38.731 77.8215 38.2743 77.5071 37.8944L77.4262 37.8063H77.5452C77.8129 37.7891 78.0726 37.7074 78.302 37.5683C78.515 37.447 78.7111 37.2982 78.8851 37.1256C79.1716 36.8425 79.4189 36.5223 79.6205 36.1736C79.7544 35.9456 79.8691 35.7067 79.9633 35.4596C79.9914 35.3794 80.0256 35.3014 80.0656 35.2264Z" fill="#6F4439"/>
<path d="M83.4523 40.9074C83.4234 40.846 83.4056 40.7799 83.4 40.7123C83.3762 40.5861 83.3381 40.4052 83.2857 40.1815C83.1549 39.6024 82.9375 39.0464 82.6408 38.5322C82.3294 38.0263 81.9314 37.5792 81.465 37.2113C81.108 36.9257 80.87 36.771 80.8795 36.752C80.9438 36.7724 81.0047 36.802 81.0604 36.84C81.1723 36.9067 81.3317 37.0042 81.5198 37.1423C82.0122 37.4993 82.4295 37.9497 82.7478 38.4679C83.0526 38.9922 83.2636 39.5657 83.3714 40.1625C83.4064 40.3419 83.4319 40.523 83.4476 40.7051C83.4579 40.7721 83.4595 40.8401 83.4523 40.9074Z" fill="#6F4439"/>
<path d="M85.8942 42.9995C85.8546 42.9169 85.8227 42.8309 85.799 42.7424C85.7178 42.5108 85.5996 42.2938 85.4492 42.0998C85.0826 41.581 84.233 41.2811 83.3452 40.9336C82.8954 40.7646 82.4599 40.6385 82.0553 40.5243C81.6507 40.41 81.3008 40.272 81.0057 40.1625L80.3036 39.8983C80.2165 39.8713 80.1327 39.8345 80.0537 39.7888C80.1451 39.7965 80.2348 39.8174 80.3203 39.8507C80.4892 39.9007 80.732 39.9816 81.0343 40.0887C81.3365 40.1958 81.6888 40.3077 82.0886 40.4219C82.4884 40.5362 82.9359 40.6599 83.3881 40.8241C83.8403 40.9884 84.2639 41.174 84.6423 41.3549C84.9883 41.5111 85.2894 41.7517 85.5182 42.0546C85.6672 42.2599 85.7777 42.4905 85.8442 42.7353C85.8733 42.8205 85.8901 42.9095 85.8942 42.9995Z" fill="#6F4439"/>
<path d="M86.2536 37.0876C86.309 37.3058 86.3488 37.5277 86.3726 37.7516C86.4369 38.1609 86.5392 38.725 86.6891 39.3367C86.8391 39.9483 87.0104 40.4981 87.1413 40.8908C87.2234 41.1001 87.291 41.3148 87.3436 41.5334C87.2257 41.3409 87.1299 41.1357 87.058 40.9217C86.6634 39.9073 86.4033 38.8455 86.2845 37.7635C86.2486 37.5401 86.2382 37.3133 86.2536 37.0876Z" fill="#6F4439"/>
<path d="M102.464 38.6131C102.411 38.635 102.357 38.6533 102.302 38.6678L101.826 38.8035L101.481 38.8987L101.067 38.9915C100.769 39.0582 100.431 39.1343 100.05 39.1914L99.4555 39.289L98.8057 39.3652C98.3583 39.4295 97.8751 39.4437 97.3777 39.4818C96.2758 39.5211 95.1725 39.4797 94.0767 39.3581C92.9807 39.2237 91.8985 38.9943 90.8422 38.6726C90.3662 38.5108 89.8902 38.3632 89.488 38.1776C89.281 38.0871 89.0739 38.0133 88.8883 37.9181L88.3385 37.6611C88.03 37.5053 87.7297 37.3337 87.4388 37.147C87.3079 37.0661 87.1842 36.9971 87.0771 36.9233L86.7867 36.7139L86.3893 36.4187C86.3416 36.3873 86.297 36.3514 86.256 36.3116C86.3086 36.3348 86.3582 36.3643 86.4035 36.3997L86.8153 36.6734L87.108 36.8733C87.2175 36.9447 87.346 37.0114 87.4745 37.0875C87.7674 37.2678 88.0693 37.433 88.3789 37.5826L88.9168 37.8467C89.1048 37.9372 89.3095 38.0086 89.5166 38.0966C89.9283 38.2775 90.3877 38.4179 90.8684 38.5726C91.9188 38.8858 92.9935 39.1103 94.0814 39.2438C95.171 39.3648 96.2677 39.4094 97.3634 39.3771C97.868 39.3414 98.3488 39.3319 98.7914 39.2724L99.4388 39.2057L100.031 39.1129C100.41 39.0629 100.745 38.9915 101.048 38.932L101.464 38.8511L101.809 38.7654L102.285 38.6536C102.343 38.634 102.403 38.6204 102.464 38.6131Z" fill="#6F4439"/>
<path d="M70.2838 26.7679C70.2671 26.7798 70.0601 26.4608 69.6698 25.9944C68.6424 24.7797 67.4391 23.7256 66.0998 22.867C65.5857 22.541 65.243 22.3768 65.2525 22.3577C65.339 22.3813 65.4228 22.414 65.5024 22.4553C65.7229 22.5547 65.9374 22.6667 66.145 22.7909C66.8317 23.2011 67.4786 23.6744 68.0775 24.2046C68.6821 24.729 69.2352 25.31 69.7293 25.9396C69.8799 26.1291 70.0197 26.327 70.1481 26.5322C70.2028 26.6049 70.2484 26.6841 70.2838 26.7679Z" fill="#6F4439"/>
<path d="M67.9514 29.1098C67.7661 28.8883 67.564 28.6814 67.3469 28.491C67.106 28.3331 66.8538 28.1931 66.5924 28.0721C66.8941 28.0982 67.1821 28.2096 67.4227 28.3934C67.6634 28.5771 67.8468 28.8256 67.9514 29.1098Z" fill="#6F4439"/>
<path d="M63.8102 47.4191V47.4382C63.7145 47.8168 63.6516 48.203 63.6222 48.5925C63.6579 48.8162 63.8816 48.6663 63.8816 48.6663L64.4647 47.6666L63.8102 47.4191Z" fill="#263238"/>
<path d="M63.7388 47.4643L65.3858 40.291L68.1918 41.4786L64.4956 47.7618L63.7388 47.4643Z" fill="#E0E0E0"/>
<path d="M77.8379 6.08804C77.8379 6.08804 65.4857 39.8531 65.3857 40.291L68.1918 41.481C68.1918 41.481 76.3599 21.727 76.498 21.3724C76.636 21.0178 81.5245 7.41132 81.5245 7.41132L77.8379 6.08804Z" fill="#92E3A9"/>
<path d="M77.8379 6.08805L78.8209 3.69377L79.5848 3.46767L81.9482 4.22689L82.329 4.96707L81.5245 7.40895L77.8379 6.08805Z" fill="#E0E0E0"/>
<path d="M79.5896 3.46528L80.9248 0C81.746 0.0183015 82.5431 0.280971 83.2143 0.75446L81.9529 4.22688L79.5896 3.46528Z" fill="#E0E0E0"/>
<path d="M82.4289 5.02418C82.2377 5.00963 82.049 4.97125 81.8673 4.90994C81.5245 4.8195 81.0557 4.67194 80.5463 4.4982C80.037 4.32446 79.5943 4.13406 79.2588 3.98888C79.0794 3.92161 78.9085 3.83376 78.7495 3.72708C78.936 3.76864 79.1179 3.82925 79.2921 3.90796C79.6229 4.03172 80.0799 4.20308 80.5868 4.38396C81.0938 4.56484 81.5555 4.71716 81.8911 4.82664C82.0763 4.87491 82.2565 4.94107 82.4289 5.02418Z" fill="#263238"/>
<path d="M81.5245 7.40894C81.856 7.52651 82.1276 7.77036 82.2801 8.08734C82.4326 8.40433 82.4536 8.76873 82.3385 9.10112L78.5019 20.1967C78.4683 20.294 78.4148 20.3832 78.3448 20.4587C78.2749 20.5342 78.19 20.5944 78.0955 20.6353C78.0011 20.6763 77.8992 20.6972 77.7962 20.6966C77.6933 20.6961 77.5916 20.6742 77.4976 20.6322C77.3266 20.5561 77.1907 20.4181 77.1174 20.2458C77.0441 20.0736 77.0388 19.88 77.1025 19.704L81.5245 7.40894Z" fill="#E0E0E0"/>
<g opacity="0.2">
<path opacity="0.2" d="M71.4976 42.9424C71.4009 42.836 71.2817 42.7524 71.1488 42.6977C71.0159 42.6429 70.8724 42.6184 70.7288 42.6258C70.2528 42.6663 69.9934 43.0328 69.9006 43.4874C71.0906 44.7464 72.2497 45.9435 73.085 46.667C73.1318 46.7056 73.1889 46.7296 73.2493 46.7361L73.3968 46.748C73.1497 45.3209 72.4893 43.9978 71.4976 42.9424Z" fill="white"/>
</g>
<g opacity="0.2">
<path opacity="0.2" d="M79.7229 48.4473C79.7855 47.9014 79.7419 47.3486 79.5944 46.8194C79.5192 46.5555 79.3886 46.3108 79.2113 46.1015C79.034 45.8921 78.8141 45.7231 78.5662 45.6055C78.3368 45.512 78.088 45.4762 77.8416 45.5011C77.5951 45.526 77.3585 45.6109 77.1525 45.7483C76.7431 46.0244 76.4884 46.8503 76.498 47.343C77.1264 47.6928 77.7832 47.9889 78.4615 48.2283C78.873 48.3459 79.2958 48.4193 79.7229 48.4473Z" fill="white"/>
</g>
<g opacity="0.2">
<path opacity="0.2" d="M84.283 45.6841C84.8089 45.5056 84.9065 44.3013 84.6043 43.8325C84.3835 43.4797 84.0469 43.2147 83.6523 43.0828C83.2028 42.8893 82.7096 42.8203 82.2243 42.8828C81.6364 42.9995 81.3389 43.2113 81.1628 43.5231C81.1628 43.5231 82.0386 44.4275 82.2385 45.5365C82.9003 45.7388 83.5991 45.7892 84.283 45.6841Z" fill="white"/>
</g>
<path d="M107.79 42.9995L99.9219 20.7441L108.864 17.8C108.864 17.8 113.486 26.3323 111.496 34.3791C109.604 42.0689 107.79 42.9995 107.79 42.9995Z" fill="#AE7461"/>
<path d="M88.8264 23.2883C85.9299 24.4236 82.8502 25.0043 79.8181 25.7111C76.786 26.418 73.2017 27.3081 71.0835 28.8908C69.0391 30.4212 66.5139 32.6179 65.6737 34.9122C65.4885 35.3887 65.4137 35.9009 65.4549 36.4104C65.4961 36.9199 65.6523 37.4134 65.9117 37.8539C66.0707 38.1285 66.2892 38.3641 66.5512 38.5432C66.8131 38.7224 67.1118 38.8406 67.4254 38.8892C69.2176 39.1748 71.0644 38.487 72.4234 37.7801C73.7491 37.0947 78.4805 34.7575 78.4805 34.7575L82.4242 34.6956L85.4515 35.5429" fill="#AE7461"/>
<path d="M90.0901 33.1629C90.0563 33.2221 90.0147 33.2766 89.9664 33.3248C89.8445 33.4651 89.715 33.5985 89.5785 33.7246C89.1276 34.1413 88.6272 34.501 88.0886 34.7956C87.5494 35.0909 86.9753 35.3172 86.3797 35.4691C86.2003 35.5164 86.0183 35.5537 85.8347 35.581C85.7677 35.5968 85.6986 35.6016 85.63 35.5953C85.63 35.5762 85.9109 35.5191 86.3559 35.3858C86.9331 35.2096 87.4913 34.976 88.0219 34.6885C88.5522 34.3964 89.0514 34.0511 89.5118 33.658C89.8736 33.3557 90.0735 33.1391 90.0901 33.1629Z" fill="#6F4439"/>
<path d="M83.7522 32.5275C83.6614 32.9478 83.4909 33.3469 83.25 33.7032C83.0447 34.0816 82.7702 34.4183 82.4408 34.6956C82.4147 34.6694 82.7859 34.2387 83.1548 33.6389C83.5237 33.0392 83.7189 32.5156 83.7522 32.5275Z" fill="#6F4439"/>
<path d="M77.1786 33.2248C77.6796 33.6794 78.1225 34.1942 78.4972 34.7575C78.2298 34.5463 77.9899 34.3025 77.7832 34.0316C77.5499 33.788 77.3469 33.5171 77.1786 33.2248Z" fill="#6F4439"/>
<path d="M74.6439 34.1602C74.5777 34.1273 74.5167 34.0848 74.4631 34.034C74.3075 33.9065 74.1604 33.7689 74.0228 33.6223C73.1042 32.6459 72.5424 31.3879 72.4282 30.0523C72.4108 29.8513 72.4068 29.6493 72.4163 29.4478C72.4158 29.374 72.4246 29.3004 72.4424 29.2288C72.4662 29.2288 72.4424 29.543 72.5162 30.0428C72.6729 31.3505 73.2203 32.5806 74.087 33.5723C74.4202 33.9412 74.6606 34.1435 74.6439 34.1602Z" fill="#6F4439"/>
<path d="M74.5225 32.8678C74.4845 32.8678 74.3678 32.0277 73.999 31.0495C73.6301 30.0713 73.1683 29.3549 73.2017 29.3359C73.3336 29.4699 73.4443 29.6231 73.5301 29.7905C73.7609 30.1744 73.9568 30.5782 74.1156 30.9971C74.2742 31.4199 74.3929 31.8565 74.4702 32.3014C74.5148 32.4867 74.5325 32.6775 74.5225 32.8678Z" fill="#6F4439"/>
<g opacity="0.2">
<path opacity="0.2" d="M67.4373 38.0157C67.99 38.1495 68.5592 38.2024 69.1271 38.1728C69.7245 38.1109 70.3338 37.7825 70.5551 37.2208C70.805 36.5758 70.4861 35.8666 70.1743 35.2502L69.4008 33.7222C69.1937 33.3152 68.9248 32.8607 68.3465 32.9844C68.2009 33.0158 68.0628 33.0748 67.9395 33.1582C67.0536 33.7436 66.371 34.5892 65.9855 35.5786C65.8739 35.8577 65.8372 36.1611 65.879 36.4587C65.9207 36.7564 66.0395 37.0379 66.2235 37.2756C66.5286 37.6572 66.9583 37.9192 67.4373 38.0157Z" fill="white"/>
</g>
<path d="M85.4682 35.5429C85.4682 35.5429 85.3968 35.5286 85.2659 35.4929L84.6756 35.3358L82.4456 34.7242L78.5019 34.8004H78.521L75.1318 36.4997L73.2278 37.4517C72.5709 37.7753 71.9022 38.1442 71.1691 38.4203C70.4224 38.7196 69.6372 38.9119 68.8367 38.9915C68.4215 39.0296 68.0033 39.0224 67.5896 38.9701C67.1546 38.9328 66.7404 38.7672 66.3996 38.4941C66.0639 38.2069 65.804 37.8416 65.6428 37.4302C65.4768 37.0167 65.3959 36.5739 65.4048 36.1284C65.4078 35.6765 65.4958 35.2292 65.6642 34.8099C65.8306 34.3882 66.0354 33.9827 66.2759 33.5984C67.2279 32.1014 68.5059 30.9091 69.7768 29.85C70.0942 29.5866 70.4171 29.3311 70.7455 29.0836C70.9073 28.9622 71.0668 28.8456 71.2358 28.7218L71.4738 28.5481L71.7308 28.391C72.4047 27.9907 73.1118 27.6491 73.8442 27.37C75.195 26.8599 76.5765 26.4354 77.9807 26.0991C79.2968 25.773 80.5273 25.4993 81.6506 25.2494C83.9021 24.7591 85.7109 24.2974 86.939 23.9214C87.553 23.7334 88.0267 23.5691 88.3456 23.4454L88.7073 23.3145L88.8335 23.274C88.8335 23.274 88.1814 23.5644 86.9533 23.9571C85.7252 24.3498 83.9188 24.821 81.6721 25.3232C80.5487 25.5779 79.3182 25.8563 78.0069 26.1871C76.6049 26.5308 75.2258 26.9616 73.8776 27.4771C73.1532 27.758 72.4534 28.0987 71.7856 28.4957C71.1057 28.9359 70.4554 29.4201 69.8387 29.9452C68.5726 31.0019 67.3064 32.1895 66.3639 33.6651C65.9046 34.4291 65.5024 35.2573 65.5119 36.1332C65.5065 36.5629 65.5874 36.9895 65.7499 37.3874C65.9004 37.7792 66.1458 38.1275 66.4639 38.4013C66.7858 38.6598 67.178 38.8157 67.5896 38.8487C67.9953 38.9006 68.4055 38.9086 68.8129 38.8725C69.6023 38.7935 70.3768 38.6053 71.1144 38.3132C71.8403 38.0395 72.5043 37.6754 73.1636 37.3612L75.0676 36.4092L78.4638 34.7242L82.4075 34.6742L84.6423 35.3144L85.2254 35.4858C85.4015 35.5191 85.4682 35.5429 85.4682 35.5429Z" fill="#6F4439"/>
<g opacity="0.4">
<path opacity="0.4" d="M100.922 38.7726C100.663 38.7505 100.402 38.7838 100.158 38.8702C97.9327 39.4505 95.6106 39.556 93.3422 39.18C91.0739 38.804 88.91 37.9548 86.9914 36.6877C86.0394 36.0451 85.6015 35.5858 84.8494 35.3858L84.2615 35.2264C86.4535 37.435 88.8121 39.1462 91.7514 40.1672C94.6907 41.1883 98.0417 41.2525 100.848 39.9078C101.117 39.7793 101.419 39.577 101.417 39.2771C101.402 39.15 101.345 39.0313 101.256 38.94C101.166 38.8486 101.048 38.7897 100.922 38.7726Z" fill="#6F4439"/>
</g>
<path d="M47.4334 97.0826L46.4386 96.5614L46.9265 96.1211L47.4334 97.0826Z" fill="#263238"/>
<path d="M45.0867 95.9378L46.2529 94.9001L46.936 96.1615L46.4386 96.5614L45.0867 95.9378Z" fill="white"/>
<path d="M25.4755 60.6614L32.1229 58.4456L35.8261 55.3183L36.6258 56.5845L39.7317 55.8729L48.5211 58.1577L49.9395 60.6638L57.4413 62.7177L57.477 73.2397L56.1133 92.4916L56.3132 95.5522H20.4156L19.823 82.7645L19.7968 74.8081L25.4755 60.6614Z" fill="#92E3A9"/>
<path d="M44.4608 90.0639L52.2196 89.6879C52.2196 89.6879 53.7237 90.5447 54.1236 93.0032C54.5234 95.4618 54.1236 95.4594 54.1236 95.4594L50.2204 96.7779L41.9404 96.5875L38.9368 92.8152L41.2002 91.48L44.4608 90.0639Z" fill="#AE7461"/>
<path d="M17.6549 87.227C17.6549 87.227 25.0876 75.5079 23.8429 77.2025C23.6905 77.4119 24.5997 76.5313 25.7707 73.6586C26.894 70.8978 29.8167 59.312 29.8167 59.312L23.1193 61.0898C21.3581 61.5658 19.923 61.7086 18.4069 62.7178C17.0837 63.596 15.7056 65.3191 14.8084 66.6281C11.4764 71.5047 5.34549 81.0009 4.57437 82.2147C3.47005 83.9474 1.24237 88.4194 1.26141 91.0898C1.28283 93.415 1.73741 95.488 5.28599 97.3396C8.56087 99.0485 29.4954 97.8585 29.4954 97.8585L29.3716 89.1548L17.6549 87.227Z" fill="#92E3A9"/>
<path d="M78.1878 84.9946C77.8807 84.2282 66.1759 71.2858 60.2973 65.2953C59.4135 64.3634 58.4586 63.5017 57.4413 62.7178L55.504 75.3318C55.504 75.3318 56.1704 78.2401 56.575 80.3916C56.6631 80.8557 62.7416 84.9922 62.7416 84.9922L64.0434 85.8252L52.1601 88.9668L52.6575 96.5161L73.9323 95.9711C76.6955 94.9025 81.0937 92.2369 78.1878 84.9946Z" fill="#92E3A9"/>
<path d="M73.9323 95.9711H73.8252L73.5087 95.983L72.2901 96.0259L67.78 96.1639L52.6599 96.5804H52.6051V96.5233C52.5575 95.8093 52.5099 95.0667 52.46 94.3075C52.3386 92.4654 52.222 90.6709 52.1101 88.9739V88.9239L52.1577 88.912C53.431 88.6502 54.6496 88.3218 55.8158 88.0053L59.1478 87.0818C61.2588 86.4963 63.139 85.9989 64.7241 85.6538C65.9599 85.3699 67.2128 85.1664 68.475 85.0445C68.9177 84.9969 69.2628 84.9969 69.4936 84.9922H69.8482H69.7578L69.496 85.0065C69.258 85.0065 68.92 85.0231 68.4797 85.0779C67.2212 85.214 65.9725 85.4286 64.7408 85.7205C63.1604 86.0727 61.2826 86.5749 59.1739 87.1675L55.8419 88.1005C54.6757 88.4194 53.4619 88.7502 52.1791 89.0168L52.2243 88.9549C52.3386 90.6542 52.4623 92.4463 52.5766 94.2885C52.6266 95.0477 52.6765 95.7997 52.7218 96.5042L52.6623 96.4495L67.7824 96.0711L72.3044 95.9711L73.523 95.9497H73.9466L73.9323 95.9711Z" fill="#263238"/>
<path d="M45.9983 93.2008C45.9515 93.1 45.8803 93.0125 45.7912 92.9461L44.5322 91.8228L43.8015 93.9981C43.9554 94.1153 44.1308 94.2011 44.3179 94.2505C44.5049 94.2998 44.6998 94.3118 44.8915 94.2857C45.0832 94.2596 45.2678 94.196 45.4349 94.0984C45.6019 94.0009 45.7481 93.8714 45.865 93.7172C45.9288 93.6493 45.9745 93.5664 45.9978 93.4761C46.0211 93.3858 46.0212 93.2911 45.9983 93.2008Z" fill="#6F4439"/>
<path d="M29.086 81.0699L45.0796 95.9378L46.5909 96.6518L47.4263 97.0802L47.036 96.3662L46.2458 94.9049L30.0547 80.0251C29.9226 79.9027 29.7492 79.8346 29.5691 79.8346C29.3891 79.8346 29.2156 79.9027 29.0836 80.0251C29.0121 80.0921 28.9551 80.1731 28.9162 80.263C28.8773 80.353 28.8573 80.45 28.8575 80.548C28.8577 80.6461 28.8781 80.743 28.9175 80.8328C28.9568 80.9225 29.0141 81.0033 29.086 81.0699Z" fill="#455A64"/>
<path d="M29.3835 89.4285L30.6377 89.6522C30.6377 89.6522 37.1375 87.2532 38.0657 87.1318C38.7797 87.039 42.2022 87.8458 43.7182 88.2123C44.017 88.2804 44.283 88.45 44.4709 88.6921C44.6588 88.9342 44.757 89.234 44.7488 89.5404C44.7499 89.5499 44.7499 89.5594 44.7488 89.5689C44.7294 89.817 44.6408 90.0546 44.4932 90.2549C44.3455 90.4551 44.1446 90.61 43.9134 90.7018C43.9134 90.7018 45.1891 91.0993 44.6107 92.4487C44.1847 93.446 42.8376 93.2936 42.8376 93.2936L40.5885 93.3365C40.5885 93.3365 41.1621 93.5078 42.0165 93.7101C42.9447 93.9267 43.1922 94.0957 43.1922 94.0957C43.1922 94.0957 44.5488 95.3999 43.2375 95.945C42.8081 96.1392 42.3363 96.2211 41.8666 96.183C41.8666 96.183 42.2593 97.5848 41.2097 97.8275C40.1601 98.0703 33.2248 97.5419 33.2248 97.5419C33.2248 97.5419 32.8583 97.3373 31.4446 97.2159L29.4882 97.0802L29.3835 89.4285Z" fill="#AE7461"/>
<path d="M29.3835 89.4285C29.3835 89.4285 29.3835 89.4761 29.3835 89.5665C29.3835 89.657 29.3835 89.8045 29.3835 89.964C29.3835 90.3162 29.4025 90.8256 29.4144 91.4848C29.4406 92.8033 29.4763 94.7121 29.5215 97.0802L29.4811 97.0397L31.278 97.1611C31.5921 97.1825 31.9158 97.2159 32.2442 97.2635C32.5844 97.3016 32.9185 97.3816 33.2391 97.5015H33.22C34.6671 97.6062 36.2426 97.7085 37.9158 97.7823C38.7512 97.818 39.6103 97.8513 40.4909 97.837C40.7092 97.834 40.9271 97.8165 41.1431 97.7847C41.3522 97.7528 41.5413 97.6421 41.6714 97.4753C41.7952 97.2968 41.8632 97.0856 41.8666 96.8684C41.8777 96.6457 41.8552 96.4227 41.7999 96.2067L41.7809 96.1234H41.8666C42.1579 96.1471 42.451 96.1197 42.7329 96.0425C43.0245 95.9829 43.2992 95.8593 43.5373 95.6808C43.6415 95.5797 43.71 95.4476 43.7328 95.3043C43.7555 95.161 43.7312 95.0142 43.6635 94.8858C43.539 94.6044 43.3621 94.3491 43.1423 94.1338C42.7966 93.9748 42.4341 93.855 42.0617 93.7768L40.5457 93.3817L40.1292 93.2746H40.56L42.8091 93.2317C43.1151 93.2578 43.4233 93.223 43.7158 93.1294C44.0062 93.0433 44.2582 92.8601 44.4298 92.6106C44.4703 92.5511 44.4989 92.482 44.5346 92.4178L44.6107 92.206C44.6321 92.1346 44.644 92.0632 44.6607 91.9918C44.6774 91.9204 44.675 91.8442 44.6774 91.7728C44.6742 91.6292 44.641 91.488 44.5799 91.358C44.5189 91.2281 44.4313 91.1124 44.3227 91.0183C44.2137 90.9216 44.091 90.8414 43.9586 90.7803L43.911 90.7589H43.8848H43.8729C43.8729 90.8541 43.861 90.6304 43.8729 90.6518L43.9705 90.6066C44.0335 90.5739 44.094 90.5365 44.1514 90.4947C44.3811 90.3289 44.5486 90.0909 44.6274 89.8188C44.7015 89.5507 44.6822 89.2653 44.5726 89.0096C44.4628 88.7596 44.276 88.5511 44.0395 88.4146C43.7947 88.2979 43.5341 88.2177 43.266 88.1766L42.4735 87.9862C41.9499 87.8648 41.4358 87.7482 40.936 87.6411C40.4362 87.534 39.9435 87.4317 39.4628 87.346C39.2248 87.3032 38.9868 87.2651 38.7488 87.2341C38.5215 87.1969 38.2912 87.1818 38.061 87.1889C37.6281 87.2801 37.2013 87.3978 36.7829 87.5411C36.3735 87.6697 35.9785 87.8029 35.5929 87.9291L33.5152 88.6431L30.6116 89.6784L29.6715 89.4999L29.4335 89.4547L29.3549 89.438H29.4287L29.6667 89.4761L30.6187 89.6356C31.2803 89.3857 32.2633 89.0215 33.5128 88.5717C34.1387 88.3337 34.8313 88.0957 35.5881 87.841C35.9642 87.7125 36.3593 87.5768 36.7781 87.4459C37.2017 87.2988 37.6341 87.1788 38.0729 87.0866C38.3116 87.0759 38.5508 87.0895 38.7869 87.127C39.0249 87.158 39.2629 87.1961 39.5009 87.2389C39.9769 87.3222 40.4743 87.4198 40.9765 87.5293C41.4786 87.6387 41.9927 87.7506 42.5163 87.872L43.3112 88.0576L43.7135 88.1552C43.8542 88.1896 43.9896 88.2433 44.1157 88.3146C44.3719 88.4648 44.5748 88.6911 44.6964 88.962C44.8159 89.2402 44.8368 89.5509 44.7559 89.8426C44.6717 90.139 44.4907 90.3988 44.2418 90.5804C44.1792 90.6259 44.1131 90.6664 44.0443 90.7018C44.011 90.7208 43.9753 90.7351 43.9396 90.7518C43.9396 90.7756 43.9396 90.5519 43.9396 90.6471H43.9538H43.9824L44.0348 90.6685C44.1768 90.7277 44.3092 90.808 44.4275 90.9065C44.5467 91.0112 44.6445 91.1381 44.7154 91.2801C44.7826 91.4259 44.819 91.5838 44.8225 91.7442C44.8225 91.8228 44.8225 91.9037 44.8059 91.9822C44.7892 92.0608 44.7749 92.1369 44.7511 92.2202L44.6726 92.444C44.6345 92.5154 44.6012 92.5891 44.5584 92.6558C44.3749 92.9259 44.1044 93.125 43.792 93.2198C43.4852 93.3198 43.1615 93.3571 42.84 93.3293L40.5909 93.3745L40.6076 93.2579L42.1189 93.6506C42.5053 93.7301 42.8808 93.8555 43.2375 94.0243C43.4703 94.2513 43.657 94.5212 43.7872 94.8192C43.8525 94.9688 43.8787 95.1326 43.8634 95.2952C43.8409 95.4656 43.7562 95.6216 43.6254 95.7331C43.3723 95.9252 43.0796 96.0585 42.7686 96.1234C42.4712 96.2048 42.1618 96.233 41.8547 96.2067L41.9213 96.133C41.9786 96.3615 42.0019 96.5973 41.9903 96.8327C41.9851 97.0716 41.9089 97.3036 41.7714 97.4991C41.6235 97.6888 41.4092 97.8155 41.1716 97.8537C40.9495 97.8874 40.7252 97.9049 40.5005 97.9061C39.6151 97.9227 38.7535 97.8846 37.9158 97.8489C36.2498 97.7704 34.6695 97.6633 33.2177 97.5562H33.2034C32.8964 97.4402 32.5769 97.3603 32.2514 97.3182C31.9253 97.2706 31.6064 97.2349 31.2994 97.2135L29.5049 97.085H29.4668V97.0469C29.4406 94.6669 29.4216 92.7486 29.4073 91.4206C29.4073 90.7684 29.4073 90.2591 29.4073 89.9116C29.4073 89.7427 29.4073 89.6141 29.4073 89.5213C29.4073 89.4285 29.3835 89.4285 29.3835 89.4285Z" fill="#6F4439"/>
<path d="M43.8015 90.7018C43.2057 90.7068 42.6101 90.6718 42.0189 90.5971C41.4236 90.5625 40.8313 90.4885 40.2458 90.3757C40.8417 90.3707 41.4372 90.4057 42.0284 90.4804C42.6236 90.5165 43.2158 90.5904 43.8015 90.7018Z" fill="#6F4439"/>
<path d="M36.7853 97.0826C36.7853 97.0945 36.6829 97.0588 36.5735 96.9445C36.4284 96.7897 36.3439 96.5878 36.3355 96.3757C36.3276 96.1648 36.397 95.9584 36.5306 95.795C36.633 95.6713 36.7258 95.6284 36.7329 95.6403C36.7401 95.6522 36.6758 95.7188 36.5996 95.8426C36.501 96.0018 36.4505 96.1861 36.4545 96.3733C36.4636 96.5597 36.5273 96.7393 36.6377 96.8898C36.721 97.0088 36.7948 97.0659 36.7853 97.0826Z" fill="#6F4439"/>
<path d="M36.6806 94.7287C36.6806 94.743 36.5592 94.7287 36.4045 94.6288C36.3048 94.5591 36.2212 94.4687 36.1596 94.3638C36.0979 94.2589 36.0596 94.1419 36.0472 94.0209C36.0347 93.8999 36.0485 93.7776 36.0876 93.6623C36.1267 93.5471 36.1901 93.4416 36.2736 93.3531C36.4021 93.2175 36.5116 93.1841 36.5116 93.196C36.5116 93.2079 36.4259 93.2698 36.326 93.4055C36.1953 93.5804 36.1334 93.7972 36.1522 94.0148C36.1803 94.2308 36.2881 94.4286 36.4545 94.5693C36.583 94.674 36.6877 94.7097 36.6806 94.7287Z" fill="#6F4439"/>
<path d="M36.6401 91.9894C36.6401 92.0013 36.5211 91.9346 36.4021 91.7633C36.2553 91.5357 36.1985 91.2617 36.2427 90.9945C36.2904 90.7269 36.4375 90.4872 36.6544 90.3234C36.8186 90.1996 36.9448 90.1782 36.9495 90.1901C36.9543 90.202 36.8448 90.2591 36.7115 90.3876C36.5278 90.5507 36.4043 90.7709 36.3612 91.0127C36.318 91.2545 36.3576 91.5039 36.4735 91.7204C36.5663 91.8894 36.6544 91.9751 36.6401 91.9894Z" fill="#6F4439"/>
<path d="M37.4636 88.4741C37.4636 88.4741 37.4017 88.4456 37.3589 88.3551C37.308 88.2339 37.2997 88.0991 37.3351 87.9725C37.3705 87.8459 37.4477 87.735 37.554 87.6578C37.6397 87.603 37.704 87.5983 37.7087 87.6102C37.7135 87.6221 37.516 87.7482 37.4493 88.0053C37.4209 88.1608 37.4257 88.3206 37.4636 88.4741Z" fill="#6F4439"/>
<path d="M40.7623 93.2936C40.442 93.3447 40.117 93.3583 39.7936 93.3341C39.4688 93.3482 39.1435 93.3226 38.825 93.2579C39.1448 93.2038 39.4702 93.1894 39.7936 93.2151C40.1185 93.201 40.4439 93.2274 40.7623 93.2936Z" fill="#6F4439"/>
<path d="M41.8142 96.1853C41.2231 96.1215 40.6371 96.0173 40.0602 95.8735C39.4748 95.7681 38.8968 95.625 38.3299 95.4451C38.9202 95.5091 39.5055 95.6133 40.0816 95.7569C40.6678 95.8619 41.2466 96.005 41.8142 96.1853Z" fill="#6F4439"/>
<path d="M24.5235 75.0747C24.5305 75.0242 24.5432 74.9747 24.5616 74.9271C24.5878 74.8296 24.6449 74.6892 24.6901 74.5083C24.8371 73.9928 24.9445 73.4669 25.0114 72.9351C25.1161 72.1464 25.1504 71.3499 25.1138 70.5551C25.0752 69.5858 24.9104 68.6257 24.6235 67.6991C24.3193 66.7762 23.8482 65.917 23.2336 65.1644C22.7307 64.5505 22.13 64.0238 21.4557 63.6055C20.9998 63.3245 20.5156 63.0923 20.0111 62.9129C19.8349 62.8415 19.6898 62.8082 19.5969 62.7749C19.5471 62.7608 19.4985 62.7425 19.4518 62.7201C19.5027 62.7248 19.553 62.7352 19.6017 62.7511C19.6993 62.7773 19.8397 62.8058 20.0253 62.8701C20.5403 63.033 21.0347 63.255 21.4986 63.5317C22.1881 63.9462 22.8029 64.474 23.3169 65.093C23.9488 65.8525 24.4331 66.7235 24.7449 67.661C25.0328 68.5999 25.1929 69.5734 25.2209 70.5551C25.2534 71.3554 25.2104 72.1571 25.0924 72.9494C25.0167 73.4837 24.8965 74.0107 24.733 74.5249C24.6782 74.7082 24.6164 74.8415 24.583 74.9367C24.5666 74.9841 24.5467 75.0302 24.5235 75.0747Z" fill="#263238"/>
<path d="M57.4556 72.8851C57.4587 72.9358 57.4587 72.9867 57.4556 73.0374C57.4556 73.1493 57.4556 73.2945 57.4389 73.4754C57.4151 73.8681 57.3866 74.4107 57.3485 75.0771C57.2604 76.4432 57.1414 78.3044 57.0082 80.3631C56.8749 82.4218 56.7297 84.2806 56.6321 85.6467L56.506 87.246C56.4893 87.4245 56.475 87.5697 56.4655 87.6816C56.4612 87.7319 56.4541 87.782 56.4441 87.8315C56.4384 87.7809 56.4384 87.7298 56.4441 87.6792C56.4441 87.5673 56.4441 87.4222 56.4631 87.2437C56.4846 86.851 56.5155 86.3059 56.5512 85.6395C56.6393 84.2758 56.7583 82.4123 56.8915 80.3559C57.0248 78.2996 57.17 76.4361 57.2676 75.0723L57.3937 73.473C57.4104 73.2921 57.4247 73.1493 57.4342 73.0374C57.4358 72.986 57.443 72.935 57.4556 72.8851Z" fill="#263238"/>
<path d="M43.5635 70.517C43.5347 70.4991 43.5083 70.4775 43.485 70.4527L43.2684 70.2528L42.4592 69.4841L41.2145 68.2751C40.7385 67.7991 40.1958 67.2754 39.6365 66.6638L39.7246 66.6424C39.4604 67.7848 39.1629 69.0747 38.8464 70.4504L38.8131 70.5956L38.7393 70.467C38.4061 69.8958 38.0657 69.2984 37.723 68.6868C36.1784 65.9236 34.848 63.3865 33.8508 61.5682L32.6608 59.4262L32.3442 58.8431L32.2609 58.6908C32.2443 58.6551 32.2347 58.6384 32.2371 58.636C32.2507 58.6506 32.2626 58.6666 32.2728 58.6836L32.3633 58.8312L32.706 59.4048C33.0011 59.9046 33.42 60.6329 33.9245 61.5468C34.9408 63.3556 36.2831 65.8855 37.8254 68.6487C38.1681 69.2604 38.5084 69.8554 38.8392 70.4266L38.7321 70.4432C39.0558 69.0676 39.3581 67.78 39.6246 66.6352L39.6484 66.54L39.7127 66.6138C40.2625 67.2231 40.8027 67.7562 41.2716 68.2346L42.4997 69.4603L43.2898 70.2481L43.4945 70.4575C43.5191 70.4754 43.5422 70.4953 43.5635 70.517Z" fill="#263238"/>
<path d="M44.0133 70.2195C44.0133 70.2195 44.0752 70.1291 44.1942 69.9672L44.7083 69.2675C45.1462 68.6606 45.7579 67.7943 46.4671 66.759L46.5076 66.6971L46.5528 66.7495C46.8687 67.1075 47.2258 67.4271 47.6167 67.7015C48.0236 67.9918 48.4735 68.2608 48.9161 68.5702L48.8257 68.6059L48.8447 68.5226C49.3207 66.5519 49.7444 64.7693 49.9372 63.4579C50.0371 62.8034 50.099 62.2679 50.1347 61.9014C50.1514 61.7253 50.1656 61.5849 50.1752 61.4754C50.1776 61.4255 50.1856 61.376 50.199 61.3278C50.2036 61.3777 50.2036 61.4279 50.199 61.4778C50.199 61.5754 50.199 61.7158 50.1799 61.9038C50.1585 62.2751 50.1109 62.8106 50.0205 63.4698C49.8491 64.7907 49.435 66.5829 48.959 68.5488C48.954 68.5768 48.9477 68.6046 48.9399 68.6321L48.9209 68.7177L48.8495 68.6678C48.4092 68.3607 47.9594 68.0894 47.5476 67.7943C47.1522 67.5148 46.7911 67.1897 46.4719 66.8256H46.5552C45.8412 67.8562 45.2129 68.713 44.7607 69.3104C44.5346 69.6079 44.3513 69.8387 44.2228 69.9934C44.1585 70.072 44.1062 70.1291 44.0705 70.1695C44.0348 70.21 44.0157 70.2219 44.0133 70.2195Z" fill="#263238"/>
<path d="M43.316 87.7292C43.3099 87.6706 43.3099 87.6116 43.316 87.5531C43.316 87.4269 43.316 87.2603 43.316 87.0509C43.316 86.6034 43.3398 85.9775 43.3541 85.2088C43.385 83.6403 43.4231 81.4936 43.4683 79.1231C43.5135 76.7526 43.5135 74.6011 43.5302 73.0374C43.5302 72.2687 43.5421 71.6428 43.5445 71.1929C43.5445 70.9859 43.5445 70.8193 43.5445 70.6931C43.5378 70.6346 43.5378 70.5755 43.5445 70.517C43.5521 70.5754 43.556 70.6342 43.5564 70.6931C43.5564 70.8169 43.5564 70.9859 43.5707 71.1929C43.5707 71.6428 43.5707 72.2687 43.5921 73.0374C43.5921 74.5963 43.5921 76.7479 43.5659 79.1255C43.5397 81.5031 43.4731 83.6475 43.416 85.2111C43.385 85.9799 43.3588 86.6058 43.3422 87.0533L43.3136 87.5554C43.3184 87.6132 43.3192 87.6713 43.316 87.7292Z" fill="#263238"/>
<path d="M29.4953 97.8584C29.4879 97.8016 29.4839 97.7444 29.4834 97.6871C29.4834 97.5657 29.4834 97.4015 29.4668 97.1944C29.4549 96.7541 29.4406 96.1329 29.4239 95.3618C29.3978 93.7958 29.3621 91.6228 29.3216 89.1548L29.3716 89.2119L27.5961 88.9168L20.2728 87.6744L18.0547 87.2841L17.4525 87.1651L17.2955 87.1318L17.2431 87.1175C17.2612 87.1139 17.2798 87.1139 17.2978 87.1175L17.4573 87.1389L18.0618 87.2294L20.2847 87.5816L27.6128 88.7906L29.3882 89.0881H29.4382V89.1381C29.4644 91.6062 29.4858 93.7767 29.5001 95.3452C29.5001 96.1163 29.5001 96.7375 29.5001 97.1778C29.5001 97.3848 29.5001 97.549 29.5001 97.6704C29.5053 97.7331 29.5037 97.7961 29.4953 97.8584Z" fill="#263238"/>
<path d="M17.6548 87.227C17.6548 87.2508 17.2574 87.277 16.6314 87.4269C16.2694 87.5146 15.9139 87.6275 15.5676 87.7649C15.1417 87.9391 14.7296 88.1451 14.3347 88.3813C13.9448 88.6256 13.574 88.8993 13.2257 89.2C12.9436 89.4491 12.6795 89.718 12.4355 90.0045C12.019 90.4947 11.8119 90.8398 11.7929 90.8256C11.8287 90.7417 11.8734 90.6619 11.9262 90.5876C11.981 90.4921 12.0414 90.3999 12.1071 90.3115C12.1832 90.2068 12.2641 90.0735 12.3712 89.9592C12.6095 89.6625 12.8705 89.3848 13.1519 89.1286C13.5008 88.8177 13.8758 88.5374 14.2729 88.2909C14.6719 88.0487 15.0917 87.8425 15.5271 87.6744C15.8841 87.5395 16.2509 87.432 16.6243 87.3531C16.7814 87.3151 16.9289 87.2984 17.0551 87.2794C17.1646 87.2611 17.275 87.2492 17.3859 87.2437C17.4748 87.2295 17.5649 87.2239 17.6548 87.227Z" fill="#263238"/>
<path d="M23.8357 77.2024C23.8242 77.2415 23.8065 77.2784 23.7833 77.3119L23.612 77.6094C23.4501 77.8807 23.2336 78.2473 22.967 78.6923C22.4172 79.6062 21.6485 80.8629 20.7964 82.2457C19.9444 83.6284 19.1638 84.8803 18.5949 85.7823L17.9166 86.8462L17.7286 87.1318C17.7077 87.1662 17.683 87.1982 17.6548 87.227C17.6548 87.227 17.6691 87.1889 17.7072 87.1199L17.8786 86.82C18.0404 86.5511 18.2594 86.1846 18.5235 85.7371C19.0733 84.8256 19.8421 83.5689 20.6941 82.1838C21.5461 80.7986 22.3268 79.5515 22.8956 78.6495L23.5739 77.5856L23.7619 77.3C23.7833 77.2652 23.808 77.2325 23.8357 77.2024Z" fill="#263238"/>
<g opacity="0.3">
<path opacity="0.3" d="M19.9896 86.3535C22.5267 84.1949 24.0666 80.4559 23.7976 77.1382L19.8683 83.7165L19.9896 86.3535Z" fill="black"/>
</g>
<g opacity="0.3">
<path opacity="0.3" d="M33.7651 61.3278L38.5322 72.1116L40.2458 68.8962L42.8614 69.8363L39.6746 66.6305L38.7893 70.4361L33.7651 61.3278Z" fill="black"/>
</g>
<g opacity="0.3">
<path opacity="0.3" d="M63.8816 85.8442C65.9165 84.7685 67.83 83.9402 70.122 84.1473C70.4361 84.1644 70.7463 84.2261 71.043 84.3305C71.1487 84.4082 71.2363 84.5077 71.3 84.6223C71.3636 84.7369 71.4018 84.8639 71.4119 84.9946C68.9423 84.903 66.4728 85.1781 64.0839 85.8109" fill="black"/>
</g>
<g opacity="0.3">
<path opacity="0.3" d="M57.546 71.5499C57.546 71.726 56.9486 80.6106 56.9367 80.7867C58.4409 77.8546 58.9288 74.5511 57.546 71.5499Z" fill="black"/>
</g>
<path d="M44.3275 27.9769C44.6443 27.5582 45.0833 27.2484 45.5839 27.0902C46.0845 26.932 46.6218 26.9333 47.1216 27.0939C47.8021 26.7263 48.586 26.5969 49.3485 26.7262C50.111 26.8556 50.8084 27.2364 51.3295 27.8079C51.8236 27.6112 52.3601 27.5453 52.8872 27.6164C53.4142 27.6874 53.9141 27.8932 54.3385 28.2137C54.7628 28.5343 55.0974 28.9588 55.3099 29.4464C55.5224 29.9339 55.6057 30.468 55.5516 30.9971C56.0923 30.9927 56.6207 31.1587 57.0618 31.4714C57.5029 31.7841 57.8344 32.2278 58.0092 32.7394C58.1841 33.2511 58.1934 33.8048 58.036 34.3221C57.8785 34.8394 57.5622 35.294 57.1319 35.6215C57.6809 35.8954 58.1085 36.3635 58.3319 36.9349C58.5553 37.5064 58.5585 38.1404 58.3409 38.714C58.1233 39.2877 57.7004 39.7601 57.1542 40.0396C56.6081 40.3191 55.9775 40.3858 55.385 40.2268L44.3656 30.9067C44.0564 30.4825 43.8866 29.9727 43.8798 29.4479C43.873 28.923 44.0294 28.409 44.3275 27.9769Z" fill="#263238"/>
<path d="M46.7741 29.512L46.2363 29.4311C40.3862 28.8979 36.6663 33.5699 36.295 39.4271L34.4648 56.7011L43.8729 69.2437L46.905 64.7931L47.857 59.5881C47.857 59.5881 53.569 59.5595 54.4663 53.9951C54.9042 51.308 55.354 45.7031 55.7039 40.6242C55.8872 37.9881 55.0696 35.3798 53.4143 33.32C51.7591 31.2602 49.3879 29.9004 46.7741 29.512Z" fill="#AE7461"/>
<path d="M47.8356 59.5881C47.8356 59.5881 44.3013 59.2596 40.9098 56.3465C40.9098 56.3465 42.0118 60.6305 47.5952 60.9661L47.8356 59.5881Z" fill="#6F4439"/>
<path d="M52.9336 46.2291C52.9045 46.4369 52.7954 46.6251 52.6296 46.7536C52.4638 46.882 52.2543 46.9407 52.0459 46.9169C51.9432 46.9098 51.843 46.8821 51.7512 46.8356C51.6593 46.7891 51.5777 46.7247 51.5112 46.6462C51.4447 46.5677 51.3945 46.4766 51.3637 46.3784C51.3329 46.2802 51.3221 46.1769 51.3319 46.0744C51.3637 45.8686 51.4739 45.6832 51.6393 45.5567C51.8048 45.4303 52.0127 45.3728 52.2196 45.3961C52.3214 45.4033 52.4207 45.4307 52.5119 45.4766C52.6031 45.5224 52.6842 45.586 52.7506 45.6635C52.817 45.7409 52.8674 45.8308 52.8988 45.9279C52.9302 46.025 52.942 46.1274 52.9336 46.2291Z" fill="#263238"/>
<path d="M54.1045 43.4564C53.9903 43.5445 53.4548 43.009 52.598 42.8828C51.7412 42.7567 51.0486 43.0899 50.9701 42.9709C50.932 42.9185 51.0605 42.7448 51.3652 42.5877C51.7739 42.3853 52.2357 42.3154 52.6861 42.3878C53.1347 42.4521 53.5513 42.6571 53.8761 42.9733C54.0998 43.216 54.1593 43.416 54.1045 43.4564Z" fill="#263238"/>
<path d="M45.6793 45.2771C45.6503 45.4849 45.5412 45.6731 45.3754 45.8016C45.2095 45.9301 45 45.9887 44.7916 45.9649C44.689 45.9581 44.5889 45.9307 44.4971 45.8845C44.4053 45.8382 44.3237 45.7741 44.2571 45.6957C44.1905 45.6174 44.1403 45.5265 44.1095 45.4284C44.0787 45.3304 44.0678 45.2271 44.0776 45.1248C44.1067 44.9169 44.2157 44.7284 44.3814 44.5996C44.5472 44.4707 44.7567 44.4115 44.9653 44.4346C45.0681 44.4414 45.1685 44.4689 45.2605 44.5152C45.3525 44.5616 45.4342 44.626 45.5008 44.7046C45.5674 44.7832 45.6175 44.8744 45.6482 44.9727C45.6789 45.0711 45.6895 45.1746 45.6793 45.2771Z" fill="#263238"/>
<path d="M45.9269 42.107C45.8126 42.195 45.2771 41.6595 44.4203 41.5334C43.5635 41.4072 42.871 41.7404 42.7948 41.6214C42.7567 41.5691 42.8829 41.3953 43.1875 41.2383C43.5963 41.0358 44.058 40.9659 44.5084 41.0383C44.957 41.1027 45.3737 41.3077 45.6984 41.6238C45.9221 41.8666 45.984 42.0665 45.9269 42.107Z" fill="#263238"/>
<path d="M47.7952 48.878C47.7952 48.8281 48.345 48.8162 49.2232 48.8352C49.4445 48.8471 49.6587 48.8352 49.7182 48.69C49.7699 48.4664 49.7525 48.2324 49.6682 48.0189C49.5421 47.4596 49.4112 46.8717 49.2708 46.2577C48.7305 43.7515 48.3711 41.7047 48.4735 41.6833C48.5758 41.6619 49.097 43.6754 49.6373 46.1815C49.7658 46.8003 49.8896 47.3882 50.0062 47.9498C50.0514 48.2116 50.1514 48.5163 49.9895 48.8257C49.9464 48.8981 49.8874 48.9598 49.8168 49.006C49.7463 49.0522 49.6662 49.0817 49.5826 49.0922C49.4569 49.108 49.3298 49.108 49.2041 49.0922C48.3307 49.0042 47.7928 48.928 47.7952 48.878Z" fill="#263238"/>
<path d="M46.3053 39.6603C46.172 39.8674 45.4628 39.558 44.5655 39.439C43.6682 39.32 42.8995 39.3937 42.8329 39.1581C42.8091 39.0463 42.9876 38.8654 43.3303 38.7226C43.7704 38.5536 44.2469 38.502 44.7131 38.5727C45.1748 38.6342 45.6114 38.8192 45.9768 39.1081C46.2553 39.339 46.3672 39.5651 46.3053 39.6603Z" fill="#263238"/>
<path d="M54.2616 41.0788C54.0974 41.2644 53.5167 41.0193 52.8003 40.9622C52.0839 40.9051 51.4699 41.005 51.3438 40.7908C51.289 40.6885 51.3985 40.4981 51.6746 40.3291C52.0463 40.1307 52.4685 40.0474 52.8877 40.0898C53.3069 40.1322 53.704 40.2984 54.0284 40.5671C54.2664 40.7789 54.3354 40.9931 54.2616 41.0788Z" fill="#263238"/>
<path d="M55.5516 37.98C55.5516 37.98 54.5996 34.2672 53.0454 33.201C51.1557 31.9086 49.9514 34.0126 48.0808 33.1796C46.2101 32.3466 44.4179 31.1066 42.2093 32.3109C39.7888 33.627 40.6337 34.9289 40.1292 37.385C38.08 47.3311 35.8214 49.8919 36.0094 45.0891C36.0308 44.5631 34.6576 43.9372 34.7718 41.719C34.9217 38.8416 35.3311 35.3835 36.2641 33.4676C37.0518 31.8515 38.1942 30.8257 40.122 29.7952C43.1661 28.1673 46.9312 28.6861 49.4445 29.3192C51.9578 29.9523 56.4274 33.6437 55.5516 37.98Z" fill="#263238"/>
<path d="M36.3759 44.9915C36.3999 44.7859 36.382 44.5776 36.3232 44.3792C36.2643 44.1807 36.1659 43.9963 36.0337 43.837C35.9016 43.6777 35.7385 43.5468 35.5543 43.4524C35.3701 43.3579 35.1687 43.3018 34.9622 43.2874C33.9079 43.2303 32.6631 43.6468 32.4085 45.8055C31.9587 49.6349 35.8952 49.2969 35.9142 49.1875C35.9333 49.078 36.2022 46.5956 36.3759 44.9915Z" fill="#AE7461"/>
<path d="M35.2502 47.6571C35.2359 47.6428 35.1788 47.6952 35.0598 47.7333C34.8933 47.7827 34.7142 47.7656 34.56 47.6857C34.1721 47.4905 33.9079 46.8075 33.9698 46.1149C33.9991 45.7855 34.1016 45.4668 34.2696 45.1819C34.3195 45.0666 34.3967 44.9651 34.4946 44.8864C34.5924 44.8076 34.708 44.7538 34.8313 44.7297C34.9114 44.7184 34.993 44.7361 35.0611 44.7798C35.1293 44.8235 35.1795 44.8902 35.2026 44.9677C35.2431 45.082 35.2026 45.1557 35.2288 45.1629C35.255 45.17 35.3192 45.1081 35.3073 44.9463C35.2956 44.8493 35.252 44.7589 35.1836 44.6893C35.0873 44.5979 34.9593 44.5476 34.8266 44.5488C34.668 44.5601 34.5149 44.6109 34.381 44.6965C34.2472 44.7821 34.1369 44.8999 34.0602 45.0391C33.8583 45.3516 33.7357 45.7086 33.7032 46.0792C33.6366 46.8527 33.9412 47.6214 34.4815 47.8475C34.5806 47.8895 34.688 47.9086 34.7956 47.9032C34.9032 47.8979 35.0081 47.8682 35.1026 47.8166C35.2335 47.7404 35.2621 47.6571 35.2502 47.6571Z" fill="#6F4439"/>
<path d="M37.5588 37.6207C38.0039 38.0324 38.4751 38.4584 39.063 38.6083C39.6508 38.7583 40.3815 38.5155 40.5719 37.9396C40.6576 37.6825 40.6385 37.3636 40.8432 37.1851C41.0812 36.9709 41.4596 37.1066 41.7762 37.1851C42.3263 37.3126 42.9037 37.2466 43.4109 36.9982C43.918 36.7498 44.3242 36.3342 44.5608 35.8214C44.7797 36.2855 45.4437 36.3664 45.9126 36.1546C46.3815 35.9427 46.7242 35.5334 47.1169 35.2026C47.5096 34.8718 48.0284 34.5981 48.5211 34.7456C48.7972 34.8289 49.0375 35.036 49.3231 35.0526C49.8301 35.0836 50.1633 34.5338 50.3132 34.0483C50.4632 33.5628 50.6107 32.9916 51.0748 32.7869C51.5389 32.5822 51.9911 32.8154 52.4433 32.9535C52.8955 33.0915 53.5024 33.0725 53.6881 32.6393C53.7258 32.522 53.7394 32.3982 53.7279 32.2755C53.7165 32.1528 53.6802 32.0336 53.6214 31.9253C53.381 31.418 52.9765 31.0065 52.4735 30.7574C51.9704 30.5082 51.398 30.4359 50.8487 30.5521C50.7561 29.8898 50.4693 29.2698 50.0245 28.7705C49.5796 28.2712 48.9968 27.915 48.3495 27.7469C47.7023 27.5788 47.0198 27.6063 46.3882 27.826C45.7566 28.0457 45.2043 28.4478 44.8011 28.9813C44.4516 28.5533 44.004 28.2161 43.4962 27.9982C42.9885 27.7803 42.4356 27.6883 41.8847 27.7299C41.3337 27.7715 40.8009 27.9455 40.3316 28.2371C39.8623 28.5287 39.4704 28.9293 39.1891 29.4049C38.7406 29.211 38.245 29.1536 37.7641 29.2397C37.2832 29.3258 36.8382 29.5516 36.4849 29.889C36.1315 30.2264 35.8853 30.6603 35.7771 31.1368C35.6688 31.6132 35.7033 32.111 35.8761 32.5679C35.1336 32.8559 34.4481 33.4485 34.3125 34.2339C34.1768 35.0193 34.8289 35.9237 35.6215 35.8285C35.4161 36.1159 35.3288 36.4711 35.3778 36.8209C35.4267 37.1707 35.6082 37.4884 35.8846 37.7083C36.161 37.9282 36.5113 38.0336 36.8632 38.0026C37.215 37.9717 37.5416 37.8069 37.7754 37.5421" fill="#263238"/>
<path d="M45.4723 49.9229C45.4065 49.8654 45.3216 49.8348 45.2343 49.8372C45.1961 49.85 45.1609 49.8702 45.1306 49.8968C45.1004 49.9233 45.0757 49.9557 45.0582 49.9919C44.8853 50.2696 44.7855 50.5865 44.768 50.9132C44.7506 51.2398 44.816 51.5656 44.9582 51.8602C44.9582 51.8602 44.9582 51.8721 44.9582 51.8792C45.3914 52.7265 46.6075 52.7527 47.1502 51.9697L47.5572 51.3818L45.4723 49.9229Z" fill="#6F4439"/>
<path d="M46.8931 52.2481C46.9217 52.2648 46.5742 52.5956 45.8697 52.5623C45.6756 52.5479 45.4885 52.4831 45.3271 52.3743C45.1336 52.2595 44.9742 52.0952 44.8654 51.8983C44.6637 51.442 44.6145 50.9329 44.725 50.4465C44.7469 50.3188 44.7787 50.1931 44.8202 50.0704C44.8418 49.9958 44.8788 49.9266 44.9288 49.8672C44.9789 49.8077 45.0407 49.7594 45.1105 49.7253C45.1854 49.703 45.2648 49.7002 45.341 49.7173C45.4173 49.7344 45.4879 49.7708 45.5461 49.8229L45.8126 50.0204L46.7265 50.7154C47.243 51.1152 47.55 51.3794 47.531 51.408C47.512 51.4365 47.1645 51.2247 46.6218 50.8606L45.6698 50.2108C45.4985 50.099 45.2819 49.8991 45.1938 49.9586C45.1058 50.0181 45.0082 50.2656 44.9558 50.4941C44.8571 50.9266 44.892 51.3789 45.0558 51.7912C45.142 51.9568 45.27 52.0971 45.4271 52.1981C45.558 52.2967 45.7121 52.3598 45.8745 52.3814C46.2198 52.4154 46.5682 52.3698 46.8931 52.2481Z" fill="#263238"/>
<path d="M35.343 35.7762C35.3311 35.7643 35.224 36.0856 35.4715 36.5449C35.623 36.816 35.8712 37.02 36.1665 37.1161C36.355 37.1758 36.5544 37.1929 36.7503 37.1661C36.9462 37.1394 37.1338 37.0695 37.2994 36.9614L37.1423 36.9138C37.2891 37.2998 37.4982 37.6592 37.7611 37.9777C37.9344 38.1953 38.1476 38.3779 38.3894 38.5155C38.704 38.6754 39.0603 38.7342 39.4096 38.6839C39.759 38.6337 40.0842 38.4768 40.341 38.2347C40.5304 38.0167 40.6752 37.7636 40.767 37.4898C40.8131 37.3945 40.839 37.2908 40.8432 37.1851C40.8265 37.1851 40.7789 37.2779 40.6885 37.4541C40.5721 37.7014 40.4161 37.9281 40.2268 38.1252C39.7841 38.6179 38.5608 38.7202 37.9301 37.8349C37.6835 37.5333 37.4837 37.1963 37.3374 36.8353L37.2875 36.7139L37.1804 36.7877C37.0418 36.8797 36.8852 36.9411 36.7211 36.9678C36.5569 36.9945 36.3889 36.9858 36.2284 36.9424C35.9661 36.8655 35.7404 36.6965 35.5929 36.4664C35.4651 36.2549 35.3802 36.0204 35.343 35.7762Z" fill="#455A64"/>
<path d="M43.8515 28.1554C43.8515 28.1673 43.9467 28.1958 44.1062 28.2934C44.334 28.4346 44.514 28.6411 44.6227 28.8861L44.656 28.9646L44.7202 28.9027C45.2946 28.3287 46.0055 27.9102 46.7861 27.6865C47.2898 27.5449 47.8175 27.51 48.3354 27.5842C48.9065 27.6747 49.4412 27.9219 49.8801 28.2982C50.2264 28.5881 50.5071 28.9483 50.7035 29.3549C50.8792 29.7337 50.9609 30.1493 50.9415 30.5663V30.6877L51.0629 30.6734C51.6171 30.6113 52.1739 30.7657 52.6171 31.1042C52.9644 31.3726 53.219 31.7429 53.3453 32.1633C53.4473 32.5425 53.47 32.9387 53.412 33.3271C53.4646 33.2335 53.4963 33.1296 53.5048 33.0225C53.5555 32.7255 53.5417 32.4211 53.4643 32.13C53.3487 31.6734 53.0891 31.2662 52.7242 30.9686C52.2499 30.5874 51.6444 30.4086 51.0391 30.4711L51.1534 30.5782C51.1769 30.1253 51.0895 29.6735 50.8987 29.2621C50.6911 28.8255 50.3915 28.4391 50.0205 28.1292C49.5468 27.7283 48.9691 27.47 48.3545 27.3843C47.8074 27.3082 47.2503 27.352 46.7218 27.5128C45.9154 27.7552 45.1894 28.2107 44.6203 28.8313L44.7179 28.848C44.5922 28.5877 44.3826 28.3773 44.1229 28.2506C44.0427 28.1948 43.9489 28.1619 43.8515 28.1554Z" fill="#455A64"/>
</svg>
