<svg width="133" height="133" viewBox="0 0 133 133" fill="none" xmlns="http://www.w3.org/2000/svg">
<path d="M66.327 97.6725H121.296V42.6105L66.327 97.6725ZM111.188 87.6071H91.1767L111.222 67.564L111.188 87.6071Z" fill="#DBDBDB"/>
<path d="M119.612 44.3129L119.367 44.5577L66.327 97.6725H121.296V42.6105L119.612 44.3129ZM111.188 87.6097H91.1767L111.225 67.564L111.188 87.6097Z" fill="#EBEBEB"/>
<path d="M121.304 44.9407H119.415V45.2041H121.304V44.9407Z" fill="#C7C7C7"/>
<path d="M121.304 46.1643H120.189V46.4276H121.304V46.1643Z" fill="#C7C7C7"/>
<path d="M121.304 47.3852H120.189V47.6486H121.304V47.3852Z" fill="#C7C7C7"/>
<path d="M121.304 48.6088H120.189V48.8722H121.304V48.6088Z" fill="#C7C7C7"/>
<path d="M121.304 49.8324H120.189V50.0958H121.304V49.8324Z" fill="#C7C7C7"/>
<path d="M121.304 51.0534H120.189V51.3194H121.304V51.0534Z" fill="#C7C7C7"/>
<path d="M121.304 52.277H120.189V52.5403H121.304V52.277Z" fill="#C7C7C7"/>
<path d="M121.304 53.5006H119.415V53.7639H121.304V53.5006Z" fill="#C7C7C7"/>
<path d="M121.304 54.7268H120.189V54.9902H121.304V54.7268Z" fill="#C7C7C7"/>
<path d="M121.304 55.9451H120.189V56.2085H121.304V55.9451Z" fill="#C7C7C7"/>
<path d="M121.304 57.1714H120.189V57.4347H121.304V57.1714Z" fill="#C7C7C7"/>
<path d="M121.304 58.395H120.189V58.6583H121.304V58.395Z" fill="#C7C7C7"/>
<path d="M121.304 59.6159H120.189V59.8793H121.304V59.6159Z" fill="#C7C7C7"/>
<path d="M121.304 60.8395H120.189V61.1029H121.304V60.8395Z" fill="#C7C7C7"/>
<path d="M121.304 62.0631H119.415V62.3265H121.304V62.0631Z" fill="#C7C7C7"/>
<path d="M121.304 63.2841H120.189V63.5474H121.304V63.2841Z" fill="#C7C7C7"/>
<path d="M121.304 64.5077H120.189V64.771H121.304V64.5077Z" fill="#C7C7C7"/>
<path d="M121.304 65.7313H120.189V65.9946H121.304V65.7313Z" fill="#C7C7C7"/>
<path d="M121.304 66.9522H120.189V67.2182H121.304V66.9522Z" fill="#C7C7C7"/>
<path d="M121.304 68.1758H120.189V68.4391H121.304V68.1758Z" fill="#C7C7C7"/>
<path d="M121.304 69.4021H120.189V69.6654H121.304V69.4021Z" fill="#C7C7C7"/>
<path d="M121.304 70.6257H119.415V70.889H121.304V70.6257Z" fill="#C7C7C7"/>
<path d="M121.304 71.8439H120.189V72.1073H121.304V71.8439Z" fill="#C7C7C7"/>
<path d="M121.304 73.0702H120.189V73.3335H121.304V73.0702Z" fill="#C7C7C7"/>
<path d="M121.304 74.2938H120.189V74.5571H121.304V74.2938Z" fill="#C7C7C7"/>
<path d="M121.304 75.5147H120.189V75.7781H121.304V75.5147Z" fill="#C7C7C7"/>
<path d="M121.304 76.7383H120.189V77.0017H121.304V76.7383Z" fill="#C7C7C7"/>
<path d="M121.304 77.9619H120.189V78.2253H121.304V77.9619Z" fill="#C7C7C7"/>
<path d="M121.304 79.1829H119.415V79.4489H121.304V79.1829Z" fill="#C7C7C7"/>
<path d="M121.304 80.4065H120.189V80.6698H121.304V80.4065Z" fill="#C7C7C7"/>
<path d="M121.304 81.6301H120.189V81.8934H121.304V81.6301Z" fill="#C7C7C7"/>
<path d="M121.304 82.8563H120.189V83.1197H121.304V82.8563Z" fill="#C7C7C7"/>
<path d="M121.304 84.0746H120.189V84.338H121.304V84.0746Z" fill="#C7C7C7"/>
<path d="M121.304 85.3009H120.189V85.5642H121.304V85.3009Z" fill="#C7C7C7"/>
<path d="M121.304 86.5245H120.189V86.7878H121.304V86.5245Z" fill="#C7C7C7"/>
<path d="M121.304 87.7454H119.415V88.0088H121.304V87.7454Z" fill="#C7C7C7"/>
<path d="M121.304 88.969H120.189V89.2324H121.304V88.969Z" fill="#C7C7C7"/>
<path d="M121.304 90.1926H120.189V90.456H121.304V90.1926Z" fill="#C7C7C7"/>
<path d="M121.304 91.4136H120.189V91.6769H121.304V91.4136Z" fill="#C7C7C7"/>
<path d="M121.304 92.6372H120.189V92.9005H121.304V92.6372Z" fill="#C7C7C7"/>
<path d="M121.304 93.8608H120.189V94.1241H121.304V93.8608Z" fill="#C7C7C7"/>
<path d="M121.304 95.0817H120.189V95.3477H121.304V95.0817Z" fill="#C7C7C7"/>
<path d="M115.393 54.6284L116.859 52.269L116.136 51.8221C116.032 51.7568 115.949 51.664 115.895 51.5541C115.841 51.4443 115.818 51.3216 115.83 51.1997C115.838 51.0615 115.838 50.9229 115.83 50.7847C115.826 50.6627 115.856 50.542 115.917 50.4363C115.979 50.3306 116.068 50.244 116.175 50.1862L116.926 49.7846L115.622 47.348L114.872 47.7497C114.764 47.8068 114.643 47.8328 114.521 47.8248C114.399 47.8168 114.282 47.7752 114.183 47.7044C114.069 47.6252 113.951 47.5524 113.829 47.4863C113.722 47.4284 113.632 47.3419 113.571 47.2362C113.509 47.1306 113.478 47.01 113.481 46.8878L113.507 46.0366L110.733 45.9515L110.706 46.8054C110.701 46.9274 110.663 47.0456 110.595 47.147C110.527 47.2484 110.432 47.329 110.321 47.3799C110.257 47.4065 110.198 47.4384 110.137 47.4704C110.076 47.5023 110.018 47.5369 109.959 47.5714C109.855 47.6352 109.736 47.669 109.615 47.669C109.493 47.669 109.374 47.6352 109.27 47.5714L108.541 47.1219L107.078 49.4813L107.802 49.9309C107.905 49.9962 107.989 50.089 108.043 50.1988C108.097 50.3087 108.119 50.4314 108.108 50.5533C108.095 50.6904 108.091 50.828 108.094 50.9656C108.098 51.0876 108.068 51.2083 108.007 51.314C107.945 51.4197 107.856 51.5063 107.749 51.5641L106.998 51.9658L108.312 54.4156L109.06 53.998C109.168 53.9409 109.289 53.9148 109.411 53.9228C109.532 53.9308 109.65 53.9725 109.749 54.0432C109.862 54.1212 109.979 54.1931 110.1 54.2587C110.208 54.3161 110.298 54.4025 110.359 54.5083C110.421 54.614 110.452 54.7349 110.448 54.8572L110.425 55.711L113.199 55.7962L113.225 54.945C113.231 54.823 113.27 54.7049 113.338 54.6036C113.406 54.5022 113.5 54.4215 113.611 54.3704L113.797 54.28C113.856 54.2454 113.917 54.2135 113.976 54.1762C114.08 54.1122 114.199 54.0783 114.321 54.0783C114.444 54.0783 114.563 54.1122 114.667 54.1762L115.393 54.6284ZM113.05 52.8755C112.653 53.0877 112.203 53.1776 111.755 53.1338C111.308 53.09 110.883 52.9145 110.535 52.6294C110.187 52.3444 109.932 51.9627 109.801 51.5324C109.67 51.1022 109.67 50.6428 109.8 50.2123C109.93 49.7818 110.185 49.3995 110.532 49.1139C110.879 48.8282 111.304 48.6519 111.751 48.6072C112.199 48.5626 112.649 48.6516 113.046 48.8631C113.443 49.0745 113.768 49.3989 113.981 49.7952C114.123 50.0585 114.211 50.3471 114.241 50.6446C114.271 50.942 114.241 51.2424 114.155 51.5286C114.068 51.8148 113.926 52.081 113.737 52.3122C113.547 52.5433 113.314 52.7347 113.05 52.8755Z" fill="#DBDBDB"/>
<path d="M42.2434 32.5079L41.2698 30.8214L40.7538 31.122C40.6796 31.1646 40.595 31.1857 40.5095 31.1829C40.4239 31.1801 40.3409 31.1534 40.2697 31.106C40.1888 31.0525 40.1044 31.0045 40.017 30.9624C39.9386 30.9253 39.8722 30.867 39.8252 30.7941C39.7782 30.7213 39.7525 30.6368 39.751 30.5501V29.9516H37.8038V30.5474C37.8029 30.6343 37.7774 30.719 37.7304 30.792C37.6833 30.865 37.6166 30.9231 37.5378 30.9597C37.4508 31.0024 37.3664 31.0504 37.2851 31.1034C37.2139 31.1508 37.1309 31.1774 37.0454 31.1802C36.9598 31.183 36.8752 31.1619 36.801 31.1193L36.285 30.8214L35.3114 32.5079L35.8301 32.8058C35.9041 32.8495 35.9644 32.913 36.0044 32.9891C36.0443 33.0652 36.0623 33.151 36.0562 33.2367C36.0562 33.2846 36.0562 33.3298 36.0562 33.3803C36.0562 33.4309 36.0562 33.4761 36.0562 33.5213C36.0626 33.6064 36.0451 33.6917 36.0056 33.7673C35.9661 33.843 35.9063 33.9061 35.8328 33.9496L35.3008 34.2502L36.2743 35.9366L36.793 35.636C36.8677 35.5944 36.9523 35.5741 37.0377 35.5774C37.1231 35.5807 37.206 35.6074 37.2772 35.6546C37.3575 35.7076 37.441 35.7556 37.5272 35.7983C37.6059 35.8349 37.6727 35.8931 37.7197 35.966C37.7668 36.039 37.7923 36.1238 37.7932 36.2106V36.8064H39.7403V36.2106C39.7419 36.1239 39.7676 36.0394 39.8146 35.9665C39.8616 35.8937 39.928 35.8354 40.0063 35.7983C40.0929 35.7562 40.1764 35.7082 40.2564 35.6546C40.3281 35.6074 40.4114 35.5808 40.4972 35.5775C40.583 35.5742 40.668 35.5944 40.7432 35.636L41.2592 35.9366L42.2328 34.2502L41.7141 33.9522C41.6407 33.907 41.5814 33.8423 41.5429 33.7652C41.5043 33.6881 41.4881 33.6018 41.4959 33.516C41.4959 33.4681 41.4959 33.4202 41.4959 33.3724C41.4959 33.3245 41.4959 33.2766 41.4959 33.2287C41.4899 33.143 41.5078 33.0573 41.5478 32.9811C41.5877 32.905 41.6481 32.8416 41.722 32.7978L42.2434 32.5079ZM40.3814 33.3803C40.3814 33.696 40.2878 34.0046 40.1124 34.267C39.937 34.5295 39.6878 34.7341 39.3961 34.8549C39.1045 34.9756 38.7836 35.0073 38.474 34.9457C38.1644 34.8841 37.88 34.7321 37.6568 34.5089C37.4336 34.2857 37.2816 34.0013 37.2201 33.6917C37.1585 33.3821 37.1901 33.0612 37.3109 32.7696C37.4317 32.4779 37.6362 32.2287 37.8987 32.0533C38.1612 31.8779 38.4697 31.7843 38.7854 31.7843C39.2087 31.7843 39.6146 31.9525 39.9139 32.2518C40.2132 32.5511 40.3814 32.9571 40.3814 33.3803Z" fill="#DBDBDB"/>
<path d="M26.8873 66.923C25.3876 66.9224 23.9216 67.3667 22.6745 68.1995C21.4274 69.0323 20.4553 70.2162 19.8812 71.6016C19.3071 72.9869 19.1567 74.5114 19.4491 75.9823C19.7416 77.4531 20.4636 78.8041 21.524 79.8645C22.5844 80.9249 23.9354 81.647 25.4063 81.9394C26.8771 82.2318 28.4016 82.0815 29.7869 81.5074C31.1723 80.9332 32.3563 79.9612 33.1891 78.7141C34.0219 77.467 34.4661 76.0009 34.4656 74.5013C34.4656 72.4914 33.6672 70.5638 32.246 69.1426C30.8247 67.7214 28.8972 66.923 26.8873 66.923ZM26.8873 78.0417C26.187 78.0417 25.5025 77.8341 24.9203 77.4451C24.3381 77.056 23.8843 76.5031 23.6163 75.8562C23.3483 75.2092 23.2782 74.4974 23.4148 73.8106C23.5514 73.1238 23.8886 72.4929 24.3838 71.9978C24.8789 71.5027 25.5098 71.1655 26.1965 71.0289C26.8833 70.8922 27.5952 70.9624 28.2421 71.2303C28.8891 71.4983 29.442 71.9521 29.831 72.5343C30.2201 73.1165 30.4277 73.801 30.4277 74.5013C30.4281 74.9663 30.3367 75.4269 30.1589 75.8566C29.9811 76.2863 29.7203 76.6767 29.3915 77.0055C29.0627 77.3344 28.6722 77.5951 28.2425 77.773C27.8128 77.9508 27.3523 78.0421 26.8873 78.0417Z" fill="#EBEBEB"/>
<path d="M28.3449 67.2368H25.4296L25.5918 65.1753H28.1827L28.3449 67.2368Z" fill="#EBEBEB"/>
<path d="M22.7962 68.221L20.7347 70.2799L19.3914 68.7078L21.2241 66.8751L22.7962 68.221Z" fill="#EBEBEB"/>
<path d="M19.5695 72.8361V75.7515L17.5054 75.5892V72.9984L19.5695 72.8361Z" fill="#EBEBEB"/>
<path d="M20.5512 78.3849L22.6127 80.4464L21.0379 81.7897L19.2052 79.9569L20.5512 78.3849Z" fill="#EBEBEB"/>
<path d="M25.1663 81.6115H28.0816L27.922 83.6756H25.3285L25.1663 81.6115Z" fill="#EBEBEB"/>
<path d="M30.715 80.6299L32.7765 78.5711L34.1198 80.1431L32.287 81.9759L30.715 80.6299Z" fill="#EBEBEB"/>
<path d="M33.9442 76.0122V73.0995L36.0057 73.2591V75.8526L33.9442 76.0122Z" fill="#EBEBEB"/>
<path d="M32.9626 70.4661L30.9011 68.4046L32.4732 67.0613L34.3059 68.894L32.9626 70.4661Z" fill="#EBEBEB"/>
<path d="M99.0344 17.8991C97.5355 17.8991 96.0703 18.3436 94.8241 19.1763C93.5778 20.009 92.6065 21.1926 92.0329 22.5774C91.4593 23.9621 91.3093 25.4859 91.6017 26.9559C91.8941 28.426 92.6158 29.7763 93.6757 30.8362C94.7355 31.896 96.0859 32.6178 97.5559 32.9102C99.026 33.2026 100.55 33.0525 101.934 32.479C103.319 31.9054 104.503 30.934 105.336 29.6878C106.168 28.4415 106.613 26.9763 106.613 25.4775C106.613 24.4822 106.417 23.4966 106.037 22.577C105.656 21.6574 105.098 20.8218 104.394 20.118C103.69 19.4142 102.855 18.856 101.935 18.4753C101.015 18.0946 100.03 17.8988 99.0344 17.8991ZM99.0344 29.0153C98.334 29.0153 97.6494 28.8076 97.0671 28.4184C96.4849 28.0293 96.0311 27.4762 95.7632 26.8291C95.4953 26.182 95.4253 25.47 95.5622 24.7831C95.699 24.0963 96.0364 23.4654 96.5319 22.9704C97.0273 22.4754 97.6584 22.1384 98.3453 22.0021C99.0323 21.8658 99.7442 21.9362 100.391 22.2046C101.038 22.473 101.591 22.9272 101.979 23.5098C102.368 24.0924 102.575 24.7771 102.575 25.4775C102.575 25.9423 102.483 26.4026 102.305 26.832C102.127 27.2614 101.867 27.6515 101.538 27.98C101.209 28.3086 100.819 28.5691 100.389 28.7467C99.9595 28.9244 99.4992 29.0156 99.0344 29.0153Z" fill="#EBEBEB"/>
<path d="M100.492 18.213H97.5768L97.739 16.1489H100.33L100.492 18.213Z" fill="#EBEBEB"/>
<path d="M94.9433 19.1946L92.8845 21.2561L91.5386 19.6813L93.3713 17.8486L94.9433 19.1946Z" fill="#EBEBEB"/>
<path d="M91.7168 23.8123V26.725L89.6526 26.5654V23.9719L91.7168 23.8123Z" fill="#EBEBEB"/>
<path d="M92.6983 29.3584L94.7598 31.4199L93.1851 32.7632L91.3523 30.9305L92.6983 29.3584Z" fill="#EBEBEB"/>
<path d="M97.316 32.5877H100.229L100.069 34.6492H97.4756L97.316 32.5877Z" fill="#EBEBEB"/>
<path d="M102.862 31.6035L104.924 29.5446L106.267 31.1167L104.434 32.9494L102.862 31.6035Z" fill="#EBEBEB"/>
<path d="M106.091 26.9884V24.073L108.153 24.2353V26.8261L106.091 26.9884Z" fill="#EBEBEB"/>
<path d="M105.107 21.4396L103.048 19.3808L104.62 18.0348L106.453 19.8675L105.107 21.4396Z" fill="#EBEBEB"/>
<path d="M16.2206 0H15.9546V24.4374H16.2206V0Z" fill="#C7C7C7"/>
<path d="M17.3378 23.025H14.8401V25.7275H17.3378V23.025Z" fill="#DBDBDB"/>
<path d="M21.1975 34.3566H10.9778C11.1826 30.4676 13.0366 24.2486 16.0876 24.2486C19.1387 24.2486 20.9953 30.4676 21.1975 34.3566Z" fill="#DBDBDB"/>
<path d="M29.9915 0H29.7255V17.7608H29.9915V0Z" fill="#C7C7C7"/>
<path d="M31.1087 16.351H28.611V19.0536H31.1087V16.351Z" fill="#DBDBDB"/>
<path d="M34.9709 27.68H24.7379C24.9454 23.7937 26.7994 17.572 29.8478 17.572C32.8961 17.572 34.7661 23.7937 34.9709 27.68Z" fill="#DBDBDB"/>
<path d="M66.4999 122.065C95.2909 122.065 118.631 119.548 118.631 116.444C118.631 113.34 95.2909 110.824 66.4999 110.824C37.709 110.824 14.3693 113.34 14.3693 116.444C14.3693 119.548 37.709 122.065 66.4999 122.065Z" fill="#EBEBEB"/>
<path d="M10.2064 97.6592L24.2805 97.5954L38.3519 97.5715L66.5 97.5262L94.6481 97.5715L108.722 97.5954L122.794 97.6592L108.722 97.7257L94.6481 97.7497L66.5 97.7922L38.3519 97.747L24.2805 97.7231L10.2064 97.6592Z" fill="#263238"/>
<path d="M53.7826 111.858L56.9613 111.797L60.1533 111.763L66.5107 111.733L72.8681 111.763C74.9961 111.784 77.1081 111.808 79.2282 111.858V111.874C77.1002 111.925 74.9881 111.949 72.8681 111.97L66.5107 111.999L60.1533 111.97L56.9613 111.933L53.7826 111.874V111.858Z" fill="#263238"/>
<path d="M54.6631 112.954L54.8466 112.76L53.8837 111.866L54.8466 110.973L54.6631 110.778L53.4954 111.866L54.6631 112.954Z" fill="#263238"/>
<path d="M78.3371 112.954L78.1536 112.76L79.1165 111.866L78.1536 110.973L78.3371 110.778L79.5048 111.866L78.3371 112.954Z" fill="#263238"/>
<path d="M36.865 23.7272L44.2731 23.6634L51.6812 23.6288L66.5 23.5969L81.3162 23.6288L88.727 23.6634L96.1351 23.7272V23.7325L88.727 23.7964L81.3162 23.8336L66.5 23.8629L51.6812 23.8336L44.2731 23.7964L36.865 23.7325V23.7272Z" fill="#263238"/>
<path d="M37.7455 24.8178L37.929 24.6236L36.9661 23.7298L37.929 22.8387L37.7455 22.6419L36.5751 23.7298L37.7455 24.8178Z" fill="#263238"/>
<path d="M95.2546 24.8178L95.0737 24.6236L96.034 23.7298L95.0737 22.8387L95.2546 22.6419L96.425 23.7298L95.2546 24.8178Z" fill="#263238"/>
<path d="M47.4837 109.446C47.4331 107.53 47.4092 105.613 47.3879 103.695L47.348 97.9412L47.3773 92.1903C47.3986 90.2724 47.4225 88.3546 47.473 86.4367H47.489C47.5395 88.3546 47.5635 90.2724 47.5848 92.1903L47.614 97.9412L47.5848 103.695C47.5635 105.613 47.5395 107.53 47.489 109.446H47.4837Z" fill="#263238"/>
<path d="M48.5796 108.565L48.3854 108.384L47.4916 109.345L46.5979 108.384L46.4037 108.565L47.4916 109.736L48.5796 108.565Z" fill="#263238"/>
<path d="M48.5796 87.3198L48.3854 87.5007L47.4916 86.5404L46.5979 87.5007L46.4037 87.3198L47.4916 86.1494L48.5796 87.3198Z" fill="#263238"/>
<path d="M98.1089 109.446L98.045 99.2632L98.0211 89.0781L97.9785 68.7078L98.0211 48.3375L98.045 38.155L98.1089 27.9699H98.1115L98.178 38.155L98.1993 48.3375L98.2419 68.7078L98.1993 89.0781L98.1754 99.2632L98.1115 109.446H98.1089Z" fill="#263238"/>
<path d="M99.1994 108.565L99.0026 108.384L98.1115 109.345L97.2177 108.384L97.0236 108.565L98.1115 109.736L99.1994 108.565Z" fill="#263238"/>
<path d="M99.1994 28.8503L99.0026 29.0312L98.1115 28.071L97.2177 29.0312L97.0236 28.8503L98.1115 27.6799L99.1994 28.8503Z" fill="#263238"/>
<path d="M59.2249 86.1494C57.8444 86.2026 56.4638 86.2292 55.0833 86.2505C53.7027 86.2718 52.3222 86.2718 50.9417 86.2824C49.5611 86.293 48.1779 86.2824 46.7974 86.2505L44.7279 86.2132C44.0363 86.192 43.3474 86.1787 42.6558 86.1494C43.3474 86.1175 44.0363 86.1068 44.7279 86.0829L46.7974 86.0457C48.1779 86.0244 49.5611 86.0271 50.9417 86.0164C52.3222 86.0058 53.7027 86.0164 55.0833 86.0483C56.4638 86.0802 57.8444 86.0935 59.2249 86.1494Z" fill="#263238"/>
<path d="M64.3321 109.736C62.526 109.792 60.7198 109.815 58.9137 109.837C57.1075 109.858 55.3014 109.858 53.4953 109.869L48.0742 109.837L45.3663 109.799C44.4619 109.778 43.5602 109.765 42.6558 109.736C43.5602 109.706 44.4619 109.693 45.3663 109.669L48.0742 109.632L53.4953 109.603C55.3014 109.603 57.1075 109.603 58.9137 109.635C60.7198 109.666 62.526 109.68 64.3321 109.736Z" fill="#263238"/>
<path d="M53.4953 86.1494C53.5485 88.5993 53.5751 91.0518 53.5964 93.5017L53.6283 100.857L53.5964 108.209L53.5591 111.888L53.4953 115.564L53.4288 111.888L53.3916 108.209L53.3623 100.857L53.3916 93.5017C53.4128 91.0518 53.4394 88.5993 53.4953 86.1494Z" fill="#263238"/>
<path d="M79.5048 86.1494C79.5607 88.5993 79.5873 91.0518 79.6086 93.5017L79.6378 100.857L79.6086 108.209L79.5713 111.888L79.5048 115.564L79.441 111.888L79.4037 108.209L79.3718 100.857L79.4037 93.5017C79.425 91.0518 79.4516 88.5993 79.5048 86.1494Z" fill="#263238"/>
<path d="M67.8301 109.736C70.7933 109.68 73.7566 109.656 76.7198 109.635L85.6122 109.603L94.5019 109.632L98.9494 109.669L103.394 109.736L98.9494 109.799L94.5019 109.837L85.6122 109.869L76.7198 109.837C73.7645 109.815 70.8013 109.792 67.8301 109.736Z" fill="#263238"/>
<path d="M67.8301 27.68C70.7933 27.6268 73.7566 27.6002 76.7198 27.5789L85.6122 27.5496L94.5019 27.5789L98.9494 27.6161L103.394 27.68L98.9494 27.7465L94.5019 27.7837L85.6122 27.813L76.7198 27.7837C73.7645 27.7624 70.8013 27.7358 67.8301 27.68Z" fill="#263238"/>
<path d="M36.575 109.736L36.5112 98.6248L36.4873 87.5167L36.4447 65.295L36.4873 43.076L36.5112 31.9652L36.575 20.8571L36.6415 31.9652L36.6655 43.076L36.708 65.295L36.6655 87.5167L36.6415 98.6248L36.575 109.736Z" fill="#263238"/>
<path d="M96.425 109.736L96.3585 98.6248L96.3346 87.5167L96.292 65.295L96.3346 43.076L96.3585 31.9652L96.425 20.8571L96.4888 31.9652L96.5128 43.076L96.5553 65.295L96.5128 87.5167L96.4888 98.6248L96.425 109.736Z" fill="#263238"/>
<path d="M12.6323 101.894C12.6323 101.894 12.3663 112.43 12.3663 112.438C12.3663 114.385 12.4116 116.093 12.5153 116.974C12.514 116.979 12.514 116.984 12.5153 116.989C12.5173 117.198 12.5674 117.404 12.6616 117.591C13.2415 117.982 28.8078 118.389 29.3558 118.218C29.9037 118.048 29.4675 116.473 28.8743 115.976C28.2811 115.479 22.3892 112.659 22.3892 112.659L22.5728 102.144L12.6323 101.894Z" fill="#EB9481"/>
<path d="M12.3477 110.347C12.3477 110.347 12.3663 112.43 12.3663 112.438C12.3663 114.385 12.4115 116.093 12.5152 116.974C12.514 116.979 12.514 116.984 12.5152 116.989C12.5402 117.195 12.5893 117.397 12.6615 117.591C13.2414 117.982 28.8077 118.389 29.3557 118.218C29.9037 118.048 29.4674 116.473 28.8742 115.976C28.2811 115.479 22.3892 112.659 22.3892 112.659V110.531L12.3477 110.347Z" fill="white"/>
<path d="M23.3574 112.675C22.32 112.505 21.0618 112.691 20.2877 113.444C20.2585 113.473 20.2878 113.513 20.333 113.502C21.3132 113.162 22.3272 112.929 23.3574 112.805C23.3724 112.802 23.3859 112.794 23.3956 112.782C23.4053 112.77 23.4107 112.755 23.4107 112.74C23.4107 112.725 23.4053 112.71 23.3956 112.698C23.3859 112.686 23.3724 112.678 23.3574 112.675Z" fill="#263238"/>
<path d="M24.1129 113.109C23.0755 112.938 21.8173 113.124 21.0432 113.875C21.014 113.904 21.0432 113.946 21.0885 113.936C22.0679 113.596 23.0809 113.362 24.1102 113.239C24.1253 113.236 24.139 113.228 24.149 113.217C24.1589 113.205 24.1646 113.19 24.1649 113.175C24.1652 113.159 24.1602 113.144 24.1507 113.132C24.1412 113.12 24.1279 113.112 24.1129 113.109Z" fill="#263238"/>
<path d="M24.8683 113.542C23.8309 113.372 22.5701 113.542 21.7987 114.308C21.7668 114.337 21.7987 114.38 21.8439 114.369C22.8233 114.03 23.8364 113.796 24.8657 113.672C24.8808 113.67 24.8945 113.662 24.9044 113.65C24.9144 113.638 24.92 113.624 24.9203 113.608C24.9206 113.593 24.9156 113.578 24.9061 113.566C24.8967 113.554 24.8833 113.545 24.8683 113.542Z" fill="#263238"/>
<path d="M29.369 118.229C28.8211 118.397 13.2574 117.992 12.6749 117.601C12.4515 117.455 12.377 115.186 12.3663 112.438C12.3663 112.409 12.3663 112.38 12.3663 112.35L22.4105 112.499V112.67C22.4105 112.67 28.2971 115.489 28.8929 115.989C29.4888 116.489 29.9197 118.061 29.369 118.229Z" fill="#37474F"/>
<path d="M12.3663 112.35V112.438C12.3663 115.186 12.4488 117.458 12.6749 117.601C12.901 117.745 16.3111 117.96 19.95 118.104C24.3124 118.258 29.0632 118.335 29.3637 118.242C29.9117 118.075 29.4701 116.497 28.8796 116C28.2891 115.503 22.3972 112.683 22.3972 112.683V112.515L19.0483 112.465L12.3663 112.35Z" fill="#92E3A9"/>
<path d="M29.2095 117.62C26.5867 117.487 15.9999 117.2 13.3984 117.269C13.3772 117.269 13.3745 117.285 13.3984 117.285C15.9946 117.474 26.5867 117.676 29.2121 117.662C29.26 117.662 29.26 117.623 29.2095 117.62Z" fill="#263238"/>
<path opacity="0.1" d="M19.0642 112.451C19.3089 114.133 19.684 116.612 19.95 118.104C24.3124 118.258 29.0632 118.335 29.3637 118.242C29.9117 118.075 29.4701 116.497 28.8796 116C28.2891 115.503 22.3972 112.683 22.3972 112.683V112.515L19.0642 112.451Z" fill="black"/>
<path d="M11.4619 112.494L22.7244 112.603C22.7244 112.603 23.3654 94.2624 23.4133 88.1471C23.4692 81.1592 23.0728 60.2171 23.0728 60.2171H14.6513C14.6513 60.2171 12.3903 64.8348 13.683 70.0325L14.0395 88.7296L11.4619 112.494Z" fill="#37474F"/>
<path d="M12.2971 110.523C12.5944 110.483 12.8937 110.459 13.1936 110.451C13.5261 110.427 13.8586 110.403 14.1911 110.387C14.8321 110.361 15.4732 110.35 16.1142 110.347C17.407 110.347 18.7024 110.347 19.9952 110.393C20.7293 110.417 21.4662 110.446 22.2003 110.488C22.2296 110.488 22.2269 110.534 22.2003 110.534C20.9182 110.582 19.6361 110.6 18.354 110.624C17.0718 110.648 15.7871 110.675 14.5076 110.651C14.1405 110.651 13.7734 110.651 13.4064 110.619C13.0393 110.587 12.6616 110.619 12.3025 110.566C12.2785 110.563 12.2705 110.528 12.2971 110.523Z" fill="#263238"/>
<path d="M21.913 100.399C22.046 97.3666 22.1418 94.3316 22.2242 91.2992C22.3927 85.2291 22.437 79.1581 22.3572 73.0862C22.3147 69.6814 22.2216 66.2766 22.1205 62.8718C22.1205 62.8319 22.179 62.8345 22.1817 62.8718C22.5035 68.9658 22.6259 75.0732 22.6339 81.1752C22.6418 87.2773 22.5142 93.3181 22.2136 99.3829C22.046 102.785 21.8385 106.193 21.5167 109.584C21.515 109.589 21.512 109.593 21.5079 109.596C21.5039 109.599 21.499 109.6 21.494 109.6C21.4891 109.6 21.4842 109.599 21.4802 109.596C21.4761 109.593 21.4731 109.589 21.4714 109.584C21.6098 106.522 21.7827 103.474 21.913 100.399Z" fill="#263238"/>
<path d="M35.761 113.997C34.7236 113.827 33.4628 114.01 32.6914 114.763C32.6595 114.792 32.6914 114.835 32.7366 114.824C33.716 114.484 34.7291 114.251 35.7583 114.127C35.7734 114.125 35.7871 114.117 35.7971 114.105C35.8071 114.093 35.8127 114.079 35.813 114.063C35.8133 114.048 35.8083 114.033 35.7988 114.021C35.7893 114.009 35.776 114 35.761 113.997Z" fill="#263238"/>
<path d="M36.5138 114.431C35.479 114.26 34.2182 114.444 33.4441 115.197C33.4149 115.226 33.4441 115.268 33.4893 115.258C34.4698 114.918 35.4837 114.685 36.5138 114.561C36.5288 114.558 36.5423 114.55 36.552 114.538C36.5617 114.526 36.567 114.511 36.567 114.496C36.567 114.48 36.5617 114.466 36.552 114.454C36.5423 114.442 36.5288 114.434 36.5138 114.431Z" fill="#263238"/>
<path d="M37.2693 114.864C36.2345 114.691 34.9737 114.877 34.1996 115.63C34.1704 115.659 34.2129 115.702 34.2448 115.691C35.2252 115.352 36.2392 115.118 37.2693 114.994C37.2843 114.991 37.2978 114.983 37.3075 114.971C37.3172 114.959 37.3225 114.945 37.3225 114.929C37.3225 114.914 37.3172 114.899 37.3075 114.887C37.2978 114.875 37.2843 114.867 37.2693 114.864Z" fill="#263238"/>
<path d="M41.762 119.548C41.214 119.719 25.6477 119.314 25.0652 118.923C24.8417 118.777 24.7699 116.505 24.7593 113.76V113.672L34.8034 113.821V113.992C34.8034 113.992 40.698 116.811 41.2912 117.306C41.8844 117.801 42.3206 119.383 41.762 119.548Z" fill="#92E3A9"/>
<path d="M41.613 118.942C38.9902 118.809 28.4008 118.522 25.7993 118.591C25.778 118.591 25.778 118.604 25.7993 118.607C28.3954 118.796 38.9849 118.995 41.6103 118.984C41.6662 118.984 41.6688 118.945 41.613 118.942Z" fill="#263238"/>
<path d="M19.5377 70.9848C19.5377 70.9848 24.1581 85.5509 24.2406 88.2269C24.3124 90.5092 24.0198 113.928 24.0198 113.928L35.7238 113.997C35.7238 113.997 34.7343 90.1155 34.5534 87.7374C34.2103 83.2899 30.316 71.0805 27.5284 60.2038H14.912C14.912 60.2038 15.021 65.9015 17.6119 70.0192C17.6119 70.0192 18.7849 70.5618 19.5377 70.9848Z" fill="#37474F"/>
<path d="M24.6423 111.771C25.9936 111.731 27.3954 111.691 28.7467 111.725C30.0979 111.76 31.4306 111.779 32.7686 111.858C33.5293 111.904 34.2874 111.93 35.0455 112.005C35.0496 112.006 35.0531 112.009 35.0556 112.012C35.0581 112.016 35.0594 112.02 35.0594 112.025C35.0594 112.029 35.0581 112.033 35.0556 112.037C35.0531 112.04 35.0496 112.043 35.0455 112.045C33.6969 112.124 32.3403 112.108 30.9864 112.095C29.6324 112.082 28.3051 112.068 26.9645 112.007C26.2037 111.973 25.4456 111.935 24.6875 111.882C24.6024 111.877 24.5598 111.773 24.6423 111.771Z" fill="#263238"/>
<path d="M27.2012 67.0666C27.6161 68.4578 27.9699 69.8702 28.3423 71.2747C28.7147 72.6792 29.0924 74.1049 29.4648 75.5307C30.1857 78.2705 30.8986 81.013 31.4412 83.7953C31.9925 86.5877 32.3048 89.422 32.3749 92.2674C32.4387 95.1668 32.3749 98.0715 32.3563 100.971C32.3376 103.87 32.3137 106.804 32.2632 109.72C32.2632 110.081 32.2472 110.443 32.2339 110.808C32.2339 110.842 32.1807 110.84 32.1807 110.808C32.1036 107.908 32.1435 105.001 32.1541 102.101C32.1647 99.202 32.202 96.2973 32.178 93.3979C32.1657 90.5175 31.9166 87.643 31.4332 84.8035C30.9438 82.0131 30.2575 79.2627 29.5446 76.5202C29.1377 74.9562 28.7254 73.3947 28.321 71.8306C27.9167 70.2666 27.4752 68.6839 27.1161 67.0985C27.1118 67.0872 27.1122 67.0747 27.1172 67.0637C27.1222 67.0528 27.1314 67.0442 27.1427 67.04C27.1539 67.0358 27.1664 67.0362 27.1774 67.0412C27.1884 67.0462 27.1969 67.0553 27.2012 67.0666Z" fill="#263238"/>
<path d="M22.4291 71.2667C21.8468 71.2623 21.2658 71.2098 20.6921 71.1098C20.1231 70.9831 19.5611 70.8268 19.0083 70.6416C18.4648 70.5181 17.914 70.4293 17.3591 70.3756C16.7995 70.2946 16.2547 70.1324 15.7419 69.8942C15.7179 69.8809 15.6966 69.9181 15.7206 69.9287C16.2178 70.196 16.7365 70.4211 17.2714 70.6017C17.8273 70.7773 18.4072 70.8012 18.9684 70.9395C19.5366 71.1084 20.115 71.2407 20.7001 71.3359C21.2775 71.4088 21.8624 71.399 22.4371 71.3066C22.4584 71.3013 22.4504 71.2667 22.4291 71.2667Z" fill="#263238"/>
<path d="M23.1686 82.8537C23.0569 82.4201 22.9531 81.9892 22.8361 81.5582C22.5994 80.6884 22.3573 79.8186 22.0966 78.9568C21.5646 77.2437 21.0805 75.5201 20.5272 73.8177C20.216 72.8494 19.934 71.8705 19.567 70.9236C19.5652 70.9186 19.5615 70.9146 19.5568 70.9124C19.5521 70.9101 19.5466 70.9098 19.5417 70.9116C19.5367 70.9134 19.5327 70.917 19.5305 70.9218C19.5282 70.9265 19.528 70.9319 19.5297 70.9369C19.7133 71.82 19.9766 72.6845 20.2107 73.5543C20.4448 74.4241 20.6948 75.2913 20.9448 76.1585C21.4449 77.8768 21.9317 79.6005 22.477 81.3082C22.6313 81.787 22.7882 82.2631 22.9531 82.7393C23.1181 83.2154 23.2537 83.7235 23.4559 84.1943C23.4559 84.2 23.4581 84.2054 23.4621 84.2094C23.4661 84.2133 23.4715 84.2156 23.4772 84.2156C23.4828 84.2156 23.4882 84.2133 23.4922 84.2094C23.4962 84.2054 23.4984 84.2 23.4984 84.1943C23.408 83.7341 23.2803 83.2952 23.1686 82.8537Z" fill="#263238"/>
<path d="M24.1874 47.2735C26.709 50.9975 30.5075 56.0356 31.8029 55.2987C35.1173 53.4155 38.9371 47.7523 39.61 46.3266C40.0011 45.4993 34.5853 41.4189 34.0506 42.2408C33.4255 43.2011 30.8134 48.287 30.3825 48.4067C30.0553 48.4971 26.8979 45.8238 25.8605 45.2705C23.2803 43.906 23.017 45.5498 24.1874 47.2735Z" fill="#EB9481"/>
<path d="M33.0372 43.5016L39.4983 47.6433C39.4983 47.6433 33.8857 55.4317 31.4252 55.4424C29.9888 55.4424 25.8791 50.6544 24.0916 47.5608C22.1418 44.1746 24.4294 44.1294 26.2888 45.4035C27.7677 46.417 30.1724 48.2657 30.2788 48.1726C30.3852 48.0795 33.0372 43.5016 33.0372 43.5016Z" fill="#92E3A9"/>
<path opacity="0.1" d="M31.6912 48.0981C31.5885 48.3107 31.5185 48.5376 31.4838 48.7711C31.6353 48.59 31.7607 48.3886 31.8562 48.1726C31.9567 47.959 32.0274 47.7325 32.0663 47.4996C31.9139 47.6806 31.7877 47.8821 31.6912 48.0981ZM29.9942 54.7056L30.1351 54.812C30.2091 54.6419 30.2609 54.4631 30.2894 54.28C30.1748 54.4099 30.0757 54.5527 29.9942 54.7056ZM34.3433 46.6085C34.1307 46.508 33.9051 46.4382 33.6729 46.401C34.0382 46.7014 34.4756 46.9013 34.9418 46.9809C34.76 46.8303 34.5587 46.705 34.3433 46.6085ZM28.978 51.1146C28.7664 51.0113 28.5404 50.9404 28.3077 50.9044C28.4868 51.0581 28.6876 51.1845 28.9036 51.2795C29.117 51.38 29.3436 51.4498 29.5765 51.487C29.3965 51.334 29.1948 51.2085 28.978 51.1146ZM24.4135 45.7041C24.3349 45.482 24.2247 45.2723 24.0863 45.0817C24.1054 45.3159 24.1583 45.5462 24.2432 45.7653C24.3218 45.9883 24.432 46.1988 24.5704 46.3904C24.5513 46.1553 24.4985 45.9242 24.4135 45.7041ZM37.6257 48.5929C37.5461 48.3704 37.436 48.16 37.2985 47.9678C37.3173 48.2029 37.3702 48.4341 37.4555 48.6541C37.5351 48.8766 37.6452 49.0869 37.7826 49.2792C37.7638 49.044 37.711 48.8128 37.6257 48.5929ZM32.6887 52.668C32.6086 52.4457 32.4985 52.2354 32.3616 52.0429C32.4059 52.5148 32.5728 52.9668 32.8457 53.3543C32.8266 53.1192 32.7737 52.888 32.6887 52.668ZM34.9098 50.2607C34.6873 50.3403 34.477 50.4504 34.2847 50.5879C34.7571 50.5457 35.2097 50.3786 35.5961 50.1038C35.3604 50.1271 35.1292 50.1845 34.9098 50.274V50.2607ZM27.4618 47.8002C27.2404 47.8804 27.031 47.9905 26.8394 48.1274C27.3117 48.0852 27.7643 47.9181 28.1508 47.6433C27.9118 47.6633 27.6771 47.718 27.4539 47.8055L27.4618 47.8002Z" fill="black"/>
<path d="M35.378 46.925C34.9125 46.6191 34.4364 46.3292 33.9629 46.0366C33.7368 45.8956 33.5107 45.752 33.2766 45.619C33.0425 45.486 32.7818 45.3104 32.5238 45.1854C32.5052 45.1854 32.4919 45.1854 32.5079 45.2094C32.726 45.3956 32.9787 45.5498 33.2128 45.7174C33.4468 45.885 33.6517 46.0233 33.8724 46.1723C34.3326 46.4861 34.7955 46.7974 35.2636 47.0979C36.1999 47.7018 37.1522 48.279 38.1151 48.8429C38.1195 48.844 38.1242 48.8437 38.1284 48.842C38.1325 48.8403 38.1361 48.8373 38.1385 48.8334C38.1408 48.8296 38.1419 48.8251 38.1416 48.8205C38.1412 48.816 38.1394 48.8117 38.1364 48.8083C37.24 48.1619 36.325 47.5315 35.378 46.925Z" fill="#263238"/>
<path opacity="0.1" d="M35.91 52.0801C34.314 53.8331 32.5504 55.437 31.4358 55.4424C29.9994 55.4424 25.8897 50.6544 24.1022 47.5608C23.0888 45.8025 23.2191 44.946 23.8362 44.7039L35.91 52.0801Z" fill="black"/>
<path d="M55.0008 53.998C55.0008 53.998 47.8188 50.274 40.5517 46.1058C33.2846 41.9376 15.8935 36.176 15.3402 36.6016C14.7869 37.0272 31.0342 46.3186 38.6232 49.5425C46.2122 52.7664 54.1257 55.5408 54.1257 55.5408L55.0008 53.998Z" fill="#455A64"/>
<path d="M55.2003 54.0007L50.3671 51.213L49.1409 53.982L54.3013 55.8494L55.2003 54.0007Z" fill="#DBDBDB"/>
<path d="M55.2002 53.998C56.3494 53.8889 57.6581 54.0858 58.9535 55.4105C60.5176 57.0065 61.9806 56.9001 61.9806 56.9001C61.9806 56.9001 57.2405 59.3872 54.3011 55.8361L55.2002 53.998Z" fill="#263238"/>
<path d="M62.1935 56.924C61.9594 56.7085 60.5975 56.8043 59.6878 56.001C58.8312 55.2482 56.7086 57.9109 58.2859 57.9534C60.0788 57.988 62.6191 57.3044 62.1935 56.924Z" fill="#92E3A9"/>
<path d="M26.5547 47.2363C25.7035 47.2522 24.4267 45.5685 24.0915 44.4433C24.0703 44.3661 24.3336 43.6639 24.6235 42.7941C24.7911 42.2621 24.9667 41.6742 25.0864 41.1209L28.3635 42.7169C28.0157 43.364 27.7477 44.0509 27.5655 44.7625C27.5499 44.8386 27.5419 44.9162 27.5416 44.9939C27.5401 45.0063 27.5401 45.0188 27.5416 45.0311C27.507 45.486 27.3793 47.2203 26.5547 47.2363Z" fill="#EB9481"/>
<path d="M27.5336 44.9939C27.532 45.0072 27.532 45.0206 27.5336 45.0338C27.4115 45.0238 27.2905 45.0033 27.1719 44.9726C25.153 44.4406 25.1157 42.0466 25.1742 41.1688L28.3662 42.7169C28.0179 43.3638 27.75 44.0507 27.5682 44.7625C27.5504 44.8385 27.5388 44.9159 27.5336 44.9939Z" fill="#263238"/>
<path d="M25.0359 36.9501C24.4693 38.1364 24.589 41.8232 25.3524 42.7542C26.4616 44.1055 28.5444 44.5311 29.7574 43.1372C30.9358 41.7886 30.6937 36.9873 29.8159 36.1122C28.5231 34.8247 25.8685 35.1998 25.0359 36.9501Z" fill="#EB9481"/>
<path d="M28.3476 39.6606C28.3476 39.6606 28.3263 39.6739 28.3263 39.6819C28.3396 39.9319 28.3104 40.2139 28.0869 40.3043C28.3636 40.2751 28.3981 39.9 28.3476 39.6606Z" fill="#263238"/>
<path d="M28.1215 39.4052C27.7199 39.3786 27.7012 40.182 28.071 40.2032C28.4407 40.2245 28.462 39.4239 28.1215 39.4052Z" fill="#263238"/>
<path d="M29.7415 39.6925C29.7415 39.6925 29.7601 39.6925 29.7601 39.7138C29.7601 39.9612 29.7601 40.2458 29.9942 40.3362C29.9942 40.3362 29.9942 40.3522 29.9942 40.3496C29.7175 40.3043 29.6883 39.9239 29.7415 39.6925Z" fill="#263238"/>
<path d="M29.9702 39.4371C30.3692 39.4185 30.3799 40.2192 30.0101 40.2351C29.6404 40.2511 29.6351 39.4558 29.9702 39.4371Z" fill="#263238"/>
<path d="M27.8129 39.0302C27.9193 39.0021 28.0241 38.9684 28.1268 38.9291C28.2425 38.9088 28.3481 38.8508 28.4274 38.7642C28.4466 38.7317 28.4546 38.6939 28.4503 38.6564C28.446 38.619 28.4295 38.5839 28.4034 38.5567C28.344 38.5112 28.2735 38.4823 28.1992 38.4729C28.1249 38.4636 28.0494 38.4741 27.9805 38.5035C27.8313 38.5445 27.7024 38.6393 27.6188 38.7695C27.6032 38.7996 27.5965 38.8335 27.5992 38.8672C27.602 38.901 27.6142 38.9333 27.6345 38.9605C27.6547 38.9876 27.6822 39.0086 27.7137 39.0209C27.7453 39.0332 27.7796 39.0364 27.8129 39.0302Z" fill="#263238"/>
<path d="M30.2894 39.0408C30.1821 39.0175 30.0763 38.9873 29.9729 38.9504C29.8567 38.9341 29.7492 38.8798 29.667 38.7961C29.6466 38.765 29.637 38.728 29.6399 38.6909C29.6428 38.6539 29.6579 38.6188 29.683 38.5913C29.7405 38.5433 29.8098 38.5117 29.8837 38.4995C29.9576 38.4873 30.0334 38.4952 30.1032 38.5221C30.2536 38.5542 30.3865 38.6415 30.4756 38.7668C30.4943 38.7966 30.5039 38.8311 30.5033 38.8663C30.5026 38.9014 30.4918 38.9356 30.472 38.9646C30.4523 38.9937 30.4245 39.0164 30.3921 39.0299C30.3596 39.0434 30.324 39.0472 30.2894 39.0408Z" fill="#263238"/>
<path d="M28.3077 41.1741C28.3685 41.2735 28.4489 41.3594 28.544 41.4267C28.6392 41.4939 28.747 41.541 28.861 41.5651C28.9616 41.5856 29.0644 41.5928 29.1669 41.5864H29.2254H29.2786C29.2918 41.5847 29.304 41.5784 29.3132 41.5687C29.3224 41.5591 29.328 41.5465 29.3291 41.5332V41.496V41.4747C29.3291 41.2832 29.3291 40.9906 29.3291 40.9906C29.3983 41.0278 29.7521 41.1981 29.7468 41.097C29.7471 40.2345 29.6579 39.3742 29.4808 38.5301C29.4808 38.5035 29.4329 38.5088 29.4355 38.5301C29.4355 39.3281 29.5685 40.1261 29.5765 40.9241C29.4513 40.862 29.3178 40.8181 29.1802 40.7938C29.1536 40.7938 29.2121 41.3577 29.2015 41.4428C29.0447 41.4546 28.8871 41.4348 28.7382 41.3845C28.5892 41.3343 28.4519 41.2546 28.3343 41.1502C28.313 41.1369 28.2917 41.1528 28.3077 41.1741Z" fill="#263238"/>
<path d="M29.0552 41.496C28.9472 41.6302 28.806 41.7339 28.6455 41.7966C28.559 41.8243 28.466 41.8243 28.3795 41.7966C28.1827 41.7407 28.1827 41.5572 28.2226 41.4029C28.2445 41.3203 28.2766 41.2407 28.3183 41.1662C28.5223 41.3521 28.7806 41.4677 29.0552 41.496Z" fill="#263238"/>
<path d="M28.6455 41.7859C28.559 41.8136 28.466 41.8136 28.3795 41.7859C28.1827 41.7301 28.1827 41.5465 28.2226 41.3923C28.3271 41.4006 28.4258 41.4441 28.5025 41.5155C28.5793 41.587 28.6297 41.6823 28.6455 41.7859Z" fill="#FF97B8"/>
<path opacity="0.2" d="M25.9137 35.9286C25.9137 36.4207 25.8499 37.9422 25.6264 38.2614C25.403 38.5806 24.9322 39.3254 24.6821 39.4398C24.6821 38.4264 24.7938 37.4581 25.0359 36.9501C25.2329 36.5379 25.5358 36.1854 25.9137 35.9286Z" fill="#263238"/>
<path d="M27.664 34.2289C27.3454 34.2308 27.0323 34.3127 26.7534 34.4669C26.4746 34.6212 26.2389 34.843 26.068 35.112C25.9241 35.3835 25.8772 35.696 25.935 35.9978H25.9616C25.9471 35.7303 26.0047 35.4639 26.1282 35.2262C26.2517 34.9885 26.4367 34.7884 26.6639 34.6465C26.913 34.4831 27.1966 34.3797 27.4924 34.3441C27.7882 34.3086 28.0882 34.342 28.3689 34.4417C28.6439 34.5346 28.8762 34.7235 29.0233 34.9737C29.0233 34.9976 29.0898 34.9737 29.0765 34.9551C28.8743 34.5082 28.2944 34.2129 27.664 34.2289Z" fill="#263238"/>
<path d="M31.7418 35.7477C31.6257 35.401 31.3912 35.1062 31.0794 34.9152C30.6485 34.6492 30.1617 34.6891 29.6776 34.7396C29.6776 34.7396 29.6776 34.7609 29.6776 34.7582C30.0856 34.6846 30.5063 34.7317 30.8879 34.8939C31.2017 35.0522 31.4508 35.3145 31.5928 35.636C31.7299 35.9654 31.7435 36.3333 31.6311 36.6719C31.5187 37.0106 31.2879 37.2973 30.981 37.4794C30.8011 37.5797 30.6027 37.6422 30.3978 37.6633C30.1929 37.6843 29.9859 37.6634 29.7893 37.6018C29.7893 37.6018 29.7627 37.6204 29.7893 37.6257C30.0548 37.7211 30.3415 37.7406 30.6174 37.682C30.8933 37.6233 31.1474 37.4889 31.3511 37.2938C31.5547 37.0987 31.7 36.8506 31.7704 36.5775C31.8408 36.3044 31.8337 36.017 31.7497 35.7477H31.7418Z" fill="#263238"/>
<path d="M24.7725 37.6629C24.7725 37.6629 24.1102 36.4021 24.6688 35.6759C24.988 35.2663 26.036 35.3221 26.036 35.3221C26.3179 34.9064 26.7531 34.6194 27.2463 34.5241C28.1241 34.3273 29.1668 34.8433 29.1668 34.8433C29.1668 34.8433 30.0021 34.3699 30.7815 34.8194C31.8694 35.4445 31.7258 37.1043 30.6298 37.6337C29.8584 38.0034 28.8157 37.3198 28.8157 37.3198C28.7146 37.3198 27.6826 37.9502 26.9085 37.0272C26.9085 37.0272 26.2728 37.5885 25.7062 37.1921C25.6173 37.3566 25.4802 37.4899 25.3132 37.574C25.1463 37.6582 24.9576 37.6892 24.7725 37.6629Z" fill="#263238"/>
<path d="M25.3657 39.9904C25.3657 39.9904 24.7007 38.7216 24.1368 38.9424C23.5728 39.1632 23.9639 40.9321 24.5544 41.2406C24.6273 41.2857 24.7085 41.3156 24.7932 41.3285C24.8779 41.3414 24.9644 41.337 25.0474 41.3156C25.1304 41.2943 25.2082 41.2564 25.2761 41.2042C25.3441 41.152 25.4008 41.0865 25.4428 41.0119L25.3657 39.9904Z" fill="#EB9481"/>
<path d="M24.2618 39.4478C24.2618 39.4478 24.2618 39.4478 24.2618 39.4638C24.4485 39.5882 24.6067 39.7506 24.7264 39.9404C24.846 40.1301 24.9243 40.3429 24.9561 40.565C24.9361 40.5186 24.9063 40.477 24.8689 40.4431C24.8314 40.4092 24.7871 40.3837 24.739 40.3683C24.6908 40.3529 24.64 40.3481 24.5898 40.354C24.5396 40.3599 24.4913 40.3765 24.448 40.4027C24.4445 40.4027 24.4411 40.4041 24.4386 40.4066C24.4361 40.4091 24.4347 40.4125 24.4347 40.416C24.4347 40.4196 24.4361 40.4229 24.4386 40.4254C24.4411 40.4279 24.4445 40.4293 24.448 40.4293C24.5275 40.4146 24.6095 40.4249 24.6828 40.4587C24.7562 40.4926 24.8173 40.5483 24.8577 40.6182C24.9243 40.7361 24.9778 40.861 25.0173 40.9906C25.0332 41.0305 25.1051 41.0198 25.0971 40.9746C25.1795 40.4107 24.8497 39.5781 24.2618 39.4478Z" fill="#263238"/>
<path d="M12.8824 62.8106C12.9116 62.8585 28.8424 66.1223 29.0206 65.9866C29.268 65.7978 30.1165 49.5904 27.6161 45.9781C26.999 45.0897 24.613 43.8341 23.7325 44.2491C21.4502 45.3131 19.801 48.1433 18.7636 49.7766C17.9949 50.9842 16.9415 53.0963 15.944 55.2748C14.2948 58.8658 12.7813 62.6324 12.8824 62.8106Z" fill="#92E3A9"/>
<path opacity="0.1" d="M23.9559 50.54C23.853 50.7527 23.7822 50.9795 23.7458 51.213C23.8988 51.0339 24.0243 50.8331 24.1182 50.6171C24.2203 50.4041 24.2911 50.1775 24.3283 49.9442C24.1753 50.1232 24.0498 50.324 23.9559 50.54ZM17.0239 53.982C16.9235 54.1955 16.8536 54.422 16.8165 54.655C16.9695 54.476 17.095 54.2752 17.1889 54.0592C17.2905 53.8462 17.3604 53.6195 17.3963 53.3862C17.2452 53.5666 17.1199 53.7671 17.0239 53.982ZM25.3577 64.5023C25.2569 64.7156 25.187 64.9423 25.1502 65.1753C25.3031 64.9957 25.4294 64.795 25.5253 64.5795C25.6243 64.3654 25.694 64.1391 25.7328 63.9065C25.5762 64.0855 25.4462 64.2862 25.3471 64.5023H25.3577ZM17.3165 63.7043V63.7336L17.5001 63.7682C17.598 63.5588 17.666 63.3368 17.7022 63.1085C17.5404 63.2876 17.4067 63.4903 17.3059 63.7097L17.3165 63.7043ZM13.2707 61.9275C13.1701 62.1411 13.0994 62.3675 13.0605 62.6004C13.2153 62.4212 13.3418 62.2194 13.4356 62.0019C13.5376 61.7891 13.6075 61.5623 13.6431 61.329C13.4883 61.5117 13.3594 61.7149 13.26 61.9328L13.2707 61.9275ZM21.9423 58.786C21.8417 58.9996 21.771 59.2261 21.7321 59.459C21.8869 59.2807 22.0133 59.0797 22.1072 58.8631C22.2085 58.65 22.2784 58.4233 22.3147 58.1902C22.1635 58.3705 22.0382 58.5711 21.9423 58.786ZM20.7878 47.2842C20.6859 47.497 20.616 47.7238 20.5804 47.9571C20.7316 47.7758 20.8569 47.5744 20.9528 47.3586C21.0549 47.1465 21.1256 46.9207 21.1629 46.6883C21.0102 46.8672 20.8839 47.0669 20.7878 47.2815V47.2842ZM28.9939 51.1199C28.7823 51.0166 28.5563 50.9457 28.3236 50.9097C28.5027 51.0634 28.7035 51.1898 28.9195 51.2848L29.0312 51.33C29.0072 51.2555 28.9939 51.1864 28.9939 51.1199ZM17.4256 58.9749C17.212 58.8743 16.9855 58.8036 16.7526 58.7647C16.9315 58.92 17.1334 59.0466 17.3511 59.1398C17.5632 59.2419 17.789 59.3127 18.0214 59.3499C17.8424 59.1962 17.6416 59.0698 17.4256 58.9749ZM29.0924 65.2126C28.8794 65.111 28.6526 65.0411 28.4194 65.0051C28.5998 65.1575 28.8014 65.283 29.0179 65.3775L29.1136 65.42C29.1136 65.3615 29.1136 65.3003 29.1323 65.2338L29.0924 65.2126ZM23.384 62.1775C23.1707 62.0766 22.9441 62.0068 22.711 61.97C22.8914 62.1225 23.093 62.2479 23.3095 62.3424C23.5223 62.4453 23.749 62.5161 23.9825 62.5526C23.8015 62.4002 23.6 62.2739 23.384 62.1775ZM28.2944 57.8124C28.0821 57.7112 27.8563 57.6413 27.624 57.605C27.8038 57.757 28.0044 57.8824 28.2199 57.9774C28.4332 58.0787 28.6598 58.1494 28.8929 58.1875C28.7123 58.0346 28.5107 57.9083 28.2944 57.8124ZM22.195 53.4474C21.982 53.3458 21.7552 53.2759 21.522 53.2399C21.7024 53.3924 21.904 53.5178 22.1205 53.6123C22.3332 53.7152 22.56 53.786 22.7935 53.8224C22.6129 53.6695 22.4113 53.5432 22.195 53.4474ZM15.7338 61.6801C15.656 61.4576 15.5458 61.2479 15.4067 61.0576C15.4261 61.2927 15.4789 61.5238 15.5636 61.7439C15.6438 61.9653 15.7539 62.1747 15.8908 62.3664C15.872 62.1312 15.8191 61.9 15.7338 61.6801ZM24.4134 45.7041C24.3349 45.482 24.2247 45.2723 24.0862 45.0817C24.1054 45.3159 24.1582 45.5462 24.2432 45.7653C24.3217 45.9883 24.4319 46.1988 24.5704 46.3904C24.5513 46.1553 24.4984 45.9242 24.4134 45.7041ZM26.9537 53.6389C26.8746 53.417 26.7644 53.2075 26.6265 53.0165C26.6457 53.2516 26.6985 53.4827 26.7835 53.7027C26.8624 53.9252 26.9736 54.1349 27.1133 54.3252C27.093 54.09 27.0393 53.8589 26.9537 53.6389ZM21.2028 64.1805C21.1237 63.9586 21.0135 63.749 20.8756 63.558C20.895 63.7931 20.9479 64.0242 21.0326 64.2443C21.0698 64.3374 21.107 64.4305 21.1523 64.5103L21.3145 64.5422C21.2849 64.4194 21.2476 64.2986 21.2028 64.1805ZM25.645 59.8181C25.5648 59.5967 25.4547 59.3872 25.3178 59.1956C25.3372 59.4307 25.3901 59.6618 25.4748 59.8819C25.5544 60.1044 25.6645 60.3148 25.8019 60.507C25.7828 60.271 25.73 60.039 25.645 59.8181ZM19.7478 56.2324C19.6679 56.0095 19.5568 55.7991 19.4179 55.6073C19.4371 55.8433 19.4899 56.0753 19.5749 56.2962C19.6553 56.5202 19.7673 56.7316 19.9074 56.924C19.8879 56.687 19.8341 56.454 19.7478 56.2324ZM15.1433 57.0543L15.0449 57.2778L15.1114 57.2565C15.3336 57.1758 15.5432 57.0638 15.7338 56.924C15.5319 56.9398 15.3332 56.9837 15.1433 57.0543ZM19.6334 61.1401C19.4109 61.2197 19.2005 61.3298 19.0083 61.4673C19.2443 61.4482 19.4763 61.3953 19.6972 61.3103C19.9185 61.2317 20.1273 61.1215 20.317 60.9832C20.0828 61.0023 19.8525 61.0551 19.6334 61.1401ZM19.4951 51.1119C19.2775 51.1914 19.0724 51.3016 18.8859 51.4391C19.121 51.4197 19.3521 51.3668 19.5722 51.2821C19.7942 51.2021 20.0038 51.091 20.1947 50.9523C19.955 50.9713 19.7193 51.0251 19.4951 51.1119ZM27.6081 62.4674C27.3856 62.547 27.1752 62.6572 26.983 62.7946C27.2181 62.7755 27.4492 62.7226 27.6693 62.6377C27.8919 62.5602 28.1017 62.4499 28.2917 62.3105C28.0575 62.3296 27.8272 62.3825 27.6081 62.4674ZM24.8763 56.2085C24.6538 56.2881 24.4434 56.3982 24.2512 56.5356C24.4863 56.5165 24.7174 56.4637 24.9374 56.3787C25.1601 56.3012 25.3699 56.191 25.5599 56.0515C25.3256 56.0706 25.0954 56.1235 24.8763 56.2085ZM27.4538 47.8055C27.2324 47.8857 27.023 47.9958 26.8314 48.1327C27.3037 48.0905 27.7563 47.9234 28.1427 47.6486C27.9068 47.6677 27.6748 47.7205 27.4538 47.8055Z" fill="black"/>
<path d="M26.1052 49.0238C28.0976 52.7983 32.1514 59.6638 35.1492 60.1958C38.32 60.7491 42.8845 57.7034 44.8024 56.8123C45.6004 56.4346 41.7992 51.1146 40.8576 51.2981C39.916 51.4816 36.9341 53.5405 36.2186 53.5431C35.503 53.5458 31.4598 49.1541 28.5923 46.7681C25.2168 43.9512 24.488 45.9595 26.1052 49.0238Z" fill="#EB9481"/>
<path d="M45.3105 46.284C45.5131 46.3547 45.6896 46.485 45.8168 46.6578C45.944 46.8306 46.016 47.0378 46.0233 47.2522C46.3771 47.1554 46.7535 47.1856 47.0873 47.3374C47.6592 47.6326 47.4491 48.6674 47.4491 48.6674C47.8346 48.6434 48.2183 48.7361 48.5503 48.9334C49.069 49.2685 49.0052 50.3352 49.0052 50.3352C49.3715 50.5102 49.6624 50.8115 49.8245 51.1837C50.2208 52.1919 49.2313 53.5219 48.6142 54.3757C47.9971 55.2296 44.688 57.0996 44.1986 57.0996L39.5436 52.4499C39.5436 52.4499 40.2964 49.8723 42.044 48.0236C42.7675 47.2576 44.5204 46.0526 45.3105 46.284Z" fill="#EB9481"/>
<path d="M45.9062 47.2309C44.9327 47.8481 44.1959 48.7205 43.4112 49.5478C43.3925 49.5664 43.4112 49.593 43.4404 49.5744C44.2118 48.7418 45.1375 48.0742 45.9408 47.2735C45.9647 47.2522 45.9328 47.215 45.9062 47.2309Z" fill="#263238"/>
<path d="M47.348 48.6301C47.1411 48.7918 46.956 48.9795 46.7973 49.1887C46.6138 49.4015 46.4382 49.6143 46.2653 49.8324C45.9107 50.2651 45.5728 50.7085 45.2519 51.1624C45.2386 51.1811 45.2519 51.2103 45.2811 51.189C45.6296 50.7555 45.9834 50.3299 46.3451 49.9122C46.5287 49.7021 46.7149 49.4946 46.9011 49.2898C47.0892 49.1063 47.2569 48.903 47.4011 48.6833C47.4047 48.6759 47.4059 48.6675 47.4045 48.6594C47.4031 48.6512 47.3992 48.6437 47.3934 48.6379C47.3875 48.6321 47.38 48.6282 47.3719 48.6268C47.3638 48.6254 47.3554 48.6266 47.348 48.6301Z" fill="#263238"/>
<path d="M48.9839 50.3538C48.7992 50.5037 48.6409 50.6835 48.5157 50.8858L48.0475 51.487C47.7337 51.886 47.4198 52.285 47.0899 52.6733C47.074 52.6919 47.1032 52.7212 47.1192 52.6999C47.4544 52.3089 47.7948 51.9205 48.1273 51.5242C48.2896 51.33 48.4519 51.1358 48.6115 50.939C48.7758 50.7754 48.9092 50.5835 49.0051 50.3724C49.0076 50.3696 49.0089 50.3659 49.0086 50.3622C49.0084 50.3584 49.0066 50.3549 49.0038 50.3525C49.001 50.35 48.9973 50.3488 48.9936 50.349C48.9898 50.3492 48.9863 50.351 48.9839 50.3538Z" fill="#263238"/>
<path d="M39.4239 51.7237L43.0867 58.6397C43.0867 58.6397 37.0777 61.6216 34.0906 60.1905C31.1034 58.7594 26.9378 51.6545 25.6477 48.4705C24.3576 45.2865 25.818 44.2438 28.4886 46.5074C31.1592 48.7711 35.8621 53.1149 36.0536 53.2106C36.2452 53.3064 39.4239 51.7237 39.4239 51.7237Z" fill="#92E3A9"/>
<path opacity="0.1" d="M27.4539 47.8055C27.2324 47.8857 27.023 47.9958 26.8314 48.1327C27.3037 48.0905 27.7563 47.9234 28.1428 47.6486C27.9068 47.6677 27.6748 47.7205 27.4539 47.8055ZM35.9818 57.7007C35.7588 57.7792 35.5483 57.8894 35.3567 58.0279C35.8292 57.9843 36.2816 57.8163 36.6681 57.5411C36.4329 57.5611 36.2017 57.6149 35.9818 57.7007ZM39.7883 52.402C39.6925 52.4259 39.6021 52.4579 39.5223 52.4898C39.2993 52.5683 39.0888 52.6785 38.8972 52.817C39.1331 52.7978 39.3652 52.745 39.5861 52.66C39.6831 52.6233 39.7781 52.5816 39.8707 52.535L39.7883 52.402ZM32.6887 52.668C32.6086 52.4457 32.4985 52.2354 32.3616 52.0429C32.4059 52.5147 32.5728 52.9668 32.8457 53.3543C32.8266 53.1192 32.7737 52.888 32.6887 52.668ZM33.8272 59.8128C33.747 59.5913 33.6369 59.3819 33.5 59.1903C33.5194 59.4254 33.5723 59.6565 33.657 59.8766L33.6969 59.975C33.7714 60.0202 33.8458 60.0628 33.9177 60.1C33.8911 60.0069 33.8591 59.9138 33.8272 59.8181V59.8128ZM38.8812 55.7164C38.8016 55.4947 38.6915 55.2852 38.554 55.0939C38.5734 55.329 38.6263 55.5601 38.711 55.7802C38.7906 56.0019 38.9007 56.2113 39.0382 56.4026C39.016 56.1689 38.9605 55.9396 38.8732 55.7217L38.8812 55.7164ZM32.4972 56.4665C32.2839 56.3656 32.0573 56.2957 31.8242 56.259C32.0053 56.4105 32.2068 56.5359 32.4227 56.6314C32.6359 56.7331 32.8625 56.8039 33.0957 56.8415C32.9078 56.6893 32.6991 56.5648 32.4759 56.4718L32.4972 56.4665ZM42.6052 57.6741C42.5095 57.6156 42.411 57.5651 42.31 57.5145C42.0965 57.4145 41.8699 57.3455 41.637 57.3097C41.8187 57.4603 42.0201 57.5856 42.2355 57.6821C42.3849 57.7506 42.5397 57.8066 42.6983 57.8497L42.6052 57.6741ZM29.0073 51.1092C28.7957 51.0059 28.5697 50.9351 28.337 50.8991C28.516 51.0528 28.7168 51.1792 28.9328 51.2742C29.1463 51.3746 29.3728 51.4445 29.6058 51.4816C29.4165 51.328 29.2048 51.2042 28.978 51.1146L29.0073 51.1092ZM29.9436 54.8625C29.8428 55.0758 29.7729 55.3024 29.7361 55.5355C29.889 55.3558 30.0153 55.1552 30.1112 54.9396C30.2113 54.7261 30.2812 54.4995 30.3187 54.2667C30.155 54.446 30.0188 54.6486 29.9144 54.8678L29.9436 54.8625ZM35.9925 54.6125C35.8896 54.8252 35.8188 55.052 35.7823 55.2854C36.0849 54.9212 36.2859 54.4835 36.3649 54.0166C36.2011 54.1953 36.0656 54.3981 35.9632 54.6178L35.9925 54.6125ZM38.4929 59.2488C38.3931 59.4628 38.3224 59.6891 38.2827 59.9218C38.4374 59.7435 38.5639 59.5426 38.6578 59.326C38.7597 59.1131 38.8297 58.8863 38.8653 58.653C38.7046 58.8342 38.5695 59.0364 38.4636 59.2542L38.4929 59.2488Z" fill="black"/>
<path d="M39.7138 55.7057C39.4691 55.2056 39.2111 54.7109 38.9557 54.2188C38.8307 53.9794 38.711 53.7426 38.578 53.5086C38.445 53.2745 38.312 52.9899 38.1551 52.7505C38.1551 52.7318 38.1205 52.7505 38.1258 52.7638C38.2216 53.0298 38.3599 53.2958 38.4716 53.5618C38.5833 53.8278 38.6924 54.0485 38.8068 54.2906C39.0408 54.7933 39.2776 55.2987 39.525 55.7961C40.0224 56.7963 40.5438 57.7779 41.0811 58.7541C41.0819 58.7571 41.0834 58.76 41.0854 58.7624C41.0874 58.7648 41.09 58.7668 41.0929 58.7681C41.0958 58.7694 41.0989 58.77 41.1021 58.77C41.1052 58.7699 41.1084 58.7692 41.1112 58.7677C41.114 58.7663 41.1165 58.7643 41.1185 58.7618C41.1204 58.7593 41.1218 58.7564 41.1225 58.7533C41.1231 58.7502 41.1231 58.747 41.1224 58.7439C41.1217 58.7408 41.1203 58.7379 41.1183 58.7354C40.6688 57.722 40.2059 56.7059 39.7138 55.7057Z" fill="#263238"/>
<path d="M29.2893 55.062C28.9408 54.4848 27.6374 52.1679 27.4034 51.737C26.9325 50.8645 26.4697 49.9867 25.9989 49.1169H25.9829C26.1984 49.6728 26.4378 50.2181 26.6958 50.7555L26.624 50.6544C26.4723 50.4496 26.3128 50.2501 26.1532 50.0506C26.1532 50.0373 26.1239 50.0506 26.1319 50.0665C26.2755 50.2846 26.4138 50.5028 26.5655 50.7156C26.6612 50.8486 26.765 50.9816 26.8634 51.1066C26.9804 51.3407 27.1001 51.5694 27.2225 51.8008C27.4592 52.2424 28.7467 54.5619 29.2547 55.0753C29.2733 55.1046 29.3026 55.0859 29.2893 55.062Z" fill="#263238"/>
<path d="M33.0372 41.7434C34.1012 41.5572 35.5749 40.7539 36.3676 40.8736C36.5635 40.8962 36.747 40.9814 36.8907 41.1165C37.0345 41.2516 37.1308 41.4295 37.1656 41.6237C37.1656 41.6237 37.7587 40.9613 38.461 41.1901C38.8227 41.3071 38.9531 41.9881 38.9531 41.9881C39.0959 41.8465 39.2749 41.7468 39.4704 41.6999C39.666 41.653 39.8708 41.6607 40.0623 41.7221C40.5491 41.9136 40.5943 42.5653 40.5943 42.5653C40.5943 42.5653 41.2992 42.2993 41.7328 42.6531C42.6132 43.3713 41.4215 47.7071 39.642 47.9359C38.8121 48.0423 39.1606 46.9995 39.1606 46.9995C39.1606 46.9995 38.296 48.3774 37.397 48.154C36.4979 47.9305 37.0326 46.6032 37.0326 46.6032C37.0326 46.6032 36.184 47.9332 35.2743 47.606C34.3646 47.2788 35.112 46.018 35.112 46.018C35.112 46.018 34.1943 46.8 33.5533 46.3931C32.4893 45.7174 34.4524 44.2917 34.4869 43.2782L33.0612 42.3206L33.0372 41.7434Z" fill="#EB9481"/>
<path d="M34.6411 41.2513C33.6197 41.3391 32.7791 39.8787 31.8002 39.8229C30.4702 39.7484 31.3108 41.512 33.0557 42.3312L34.5241 42.7302L34.6411 41.2513Z" fill="#EB9481"/>
<path d="M38.969 41.9668C38.969 41.9482 39.0009 41.9535 39.0009 41.9668C38.9378 43.7092 38.2538 45.3715 37.0724 46.6538C37.0298 46.6963 36.95 46.6937 36.9953 46.6538C37.756 45.752 38.7056 43.3952 38.969 41.9668Z" fill="#263238"/>
<path d="M34.9869 46.0925C36.1307 44.8263 36.7531 43.3234 37.1708 41.6875C37.1708 41.6662 37.2053 41.6875 37.2053 41.6875C37.2053 42.544 36.8436 43.5495 36.4845 44.3236C36.166 45.0404 35.6652 45.6613 35.0321 46.1244C35.0055 46.151 34.963 46.1191 34.9869 46.0925Z" fill="#263238"/>
<path d="M26.7569 45.1987C25.6504 44.1932 22.2136 43.0175 20.5618 43.6027C18.4763 44.3555 15.1008 50.8885 15.7259 51.4816C16.8431 52.5456 22.3493 49.6196 23.7431 48.2152C25.137 46.8107 26.7569 45.1987 26.7569 45.1987Z" fill="#92E3A9"/>
<path opacity="0.1" d="M21.6737 43.4511C21.5672 43.5039 21.4657 43.5662 21.3704 43.6373C21.6047 43.6182 21.8349 43.5653 22.0541 43.4804H22.0833C21.945 43.4564 21.812 43.4511 21.6737 43.4511ZM19.1653 45.0471C19.1334 44.9673 19.1015 44.8875 19.0642 44.8104L18.9419 44.9513C18.9578 45.0045 18.9764 45.0577 18.9951 45.1109C19.0742 45.3328 19.1843 45.5424 19.3222 45.7334C19.3029 45.4992 19.25 45.269 19.1653 45.0498V45.0471ZM24.4135 45.7015C24.3349 45.4793 24.2247 45.2697 24.0863 45.079C24.1054 45.3133 24.1583 45.5435 24.2432 45.7626C24.3218 45.9856 24.432 46.1961 24.5704 46.3877C24.5511 46.1535 24.4982 45.9233 24.4135 45.7041V45.7015ZM17.4257 48.678C17.2124 48.5771 16.9858 48.5073 16.7527 48.4705C16.9323 48.6234 17.133 48.7497 17.3485 48.8456C17.5621 48.9457 17.7886 49.0155 18.0215 49.0531C17.8419 48.9002 17.6412 48.7739 17.4257 48.678ZM20.7879 47.2921C20.6859 47.505 20.616 47.7318 20.5804 47.9651C20.7316 47.7838 20.857 47.5824 20.9528 47.3666C21.0549 47.1545 21.1257 46.9287 21.163 46.6963C21.0109 46.8727 20.8847 47.0697 20.7879 47.2815V47.2921Z" fill="black"/>
<path d="M25.3284 47.0474C25.0385 47.231 24.7432 47.4092 24.456 47.5954C24.8789 47.1911 25.3045 46.7974 25.7141 46.3718C25.7141 46.3558 25.7141 46.3319 25.6902 46.3452C25.1672 46.7431 24.6664 47.1693 24.19 47.622C23.6846 48.0635 23.1792 48.5078 22.6551 48.9254C22.1373 49.3477 21.5887 49.731 21.0139 50.0718C20.3999 50.4166 19.7616 50.7162 19.104 50.9683C18.7316 51.1119 18.3592 51.2502 17.9842 51.3806C17.5808 51.519 17.1673 51.6257 16.7473 51.6998C16.6675 51.6998 16.71 51.745 16.7473 51.7423C17.1006 51.7044 17.4496 51.634 17.79 51.5322C18.1438 51.4311 18.5002 51.33 18.854 51.2236C19.5317 51.0304 20.192 50.7803 20.8277 50.4762C22.0646 49.8617 23.0861 48.9546 24.0623 47.9917L24.1181 47.9359C24.291 47.8241 24.4613 47.7071 24.6262 47.5847C24.8683 47.4065 25.113 47.2416 25.3683 47.082C25.3737 47.082 25.3524 47.0341 25.3284 47.0474Z" fill="#263238"/>
<path d="M103.474 93.3926C103.474 93.3926 104.647 97.3028 106.038 101.295C107.429 105.288 108.669 114.46 108.408 114.697C108.148 114.933 105.07 106.017 104.166 101.944C103.261 97.872 102.636 93.6985 102.636 93.6985L103.474 93.3926Z" fill="#92E3A9"/>
<path d="M103.493 93.2942L104.424 95.9489L102.945 96.308L102.5 93.5735L103.493 93.2942Z" fill="#DBDBDB"/>
<path d="M103.495 93.2942C103.599 92.9576 103.621 92.6012 103.56 92.2543C103.499 91.9074 103.357 91.5801 103.144 91.2992C102.498 90.3762 102.687 89.658 102.687 89.658C102.687 89.658 101.021 91.786 102.5 93.5735L103.495 93.2942Z" fill="#455A64"/>
<path d="M102.7 89.5516C102.785 89.6872 102.612 90.3496 102.923 90.8816C103.235 91.4136 101.708 92.1903 101.833 91.4002C101.976 90.5065 102.546 89.3042 102.7 89.5516Z" fill="#92E3A9"/>
<path d="M110.768 95.6802C110.768 95.6802 109.635 98.8456 108.318 102.064C107.001 105.283 105.586 112.776 105.788 112.97C105.99 113.164 108.919 105.977 109.829 102.665C110.738 99.3537 111.454 95.9595 111.454 95.9595L110.768 95.6802Z" fill="#A6A6A6"/>
<path d="M110.757 95.5977L109.877 97.7417L111.076 98.1035L111.56 95.8717L110.757 95.5977Z" fill="#DBDBDB"/>
<path d="M110.754 95.6004C110.882 93.8342 112.284 92.4084 112.284 92.4084C112.284 92.4084 112.853 94.4805 111.56 95.8824L110.754 95.6004Z" fill="#455A64"/>
<path d="M107.283 91.5306C107.283 91.5306 107.73 94.8636 108.347 98.2897C108.964 101.716 108.781 109.337 108.539 109.496C108.297 109.656 106.943 102.003 106.74 98.5743C106.538 95.1455 106.565 91.6583 106.565 91.6583L107.283 91.5306Z" fill="#37474F"/>
<path d="M107.31 91.4535L107.725 93.7331L106.474 93.8342L106.466 91.5519L107.31 91.4535Z" fill="#DBDBDB"/>
<path d="M106.467 91.5519C106.467 91.5519 107.265 91.4721 107.31 91.4534C107.558 90.6742 107.756 89.8799 107.903 89.0754C107.855 89.0116 105.211 89.384 105.224 89.6314C105.238 89.8787 106.467 91.5519 106.467 91.5519Z" fill="#455A64"/>
<path d="M110.206 104.15H103.213C102.57 104.15 102.048 104.671 102.048 105.315V114.723C102.048 115.367 102.57 115.888 103.213 115.888H110.206C110.85 115.888 111.372 115.367 111.372 114.723V105.315C111.372 104.671 110.85 104.15 110.206 104.15Z" fill="#455A64"/>
<path d="M110.193 102.296H103.224V104.15H110.193V102.296Z" fill="#455A64"/>
</svg>
