<svg width="127" height="127" viewBox="0 0 127 127" fill="none" xmlns="http://www.w3.org/2000/svg">
<path d="M63.4975 118.788C93.2116 118.788 117.3 105.495 117.3 89.0981C117.3 72.7008 93.2116 59.4081 63.4975 59.4081C33.7833 59.4081 9.69519 72.7008 9.69519 89.0981C9.69519 105.495 33.7833 118.788 63.4975 118.788Z" fill="#92E3A9"/>
<path opacity="0.1" d="M63.4975 118.788C93.2116 118.788 117.3 105.495 117.3 89.0981C117.3 72.7008 93.2116 59.4081 63.4975 59.4081C33.7833 59.4081 9.69519 72.7008 9.69519 89.0981C9.69519 105.495 33.7833 118.788 63.4975 118.788Z" fill="black"/>
<path opacity="0.2" d="M17.3076 86.36C15.2044 87.5081 13.462 91.2216 17.7292 91.948C19.0983 92.1817 21.5621 91.9861 24.3789 91.4756C26.3728 91.1124 28.1585 91.1581 29.9212 92.1588C31.2293 92.903 32.8117 93.8149 34.5542 94.5972C45.0393 99.3115 47.7749 94.8512 47.7749 94.8512C48.6359 95.1865 49.8729 94.9757 51.3741 95.2907C53.1317 95.6564 55.9105 98.0847 60.5562 97.4497C65.2018 96.8147 64.4322 93.6396 58.0466 91.915C51.6611 90.1903 33.4086 84.2239 27.8867 83.4695C22.3647 82.7151 17.3076 86.36 17.3076 86.36Z" fill="black"/>
<path d="M90.1141 94.9808L89.9465 95.0747C88.0999 96.0907 86.5022 95.7656 85.8825 95.1052C85.8825 95.1052 85.217 92.0953 87.7443 90.3376C90.2716 88.58 92.677 88.9737 92.677 88.9737C92.677 88.9737 93.2358 93.1266 90.1141 94.9808Z" fill="#92E3A9"/>
<path opacity="0.25" d="M90.1141 94.9808L89.9465 95.0747C88.0999 96.0907 86.5022 95.7656 85.8825 95.1052C85.8825 95.1052 85.217 92.0953 87.7443 90.3376C90.2716 88.58 92.677 88.9737 92.677 88.9737C92.677 88.9737 93.2358 93.1266 90.1141 94.9808Z" fill="black"/>
<path opacity="0.2" d="M90.1141 94.9808L89.9465 95.0747C88.0999 96.0907 86.5022 95.7656 85.8825 95.1052C87.089 91.3079 92.677 88.9737 92.677 88.9737C92.677 88.9737 93.2358 93.1266 90.1141 94.9808Z" fill="black"/>
<path d="M85.2195 97.282C85.2195 97.282 83.9343 99.9439 86.0958 101.562C88.2573 103.18 91.8413 102.616 91.8413 102.616C91.8413 102.616 92.2375 98.8974 89.5426 97.2337C88.8923 96.8289 88.1399 96.6184 87.374 96.6269C86.6081 96.6355 85.8606 96.8628 85.2195 97.282Z" fill="#92E3A9"/>
<path opacity="0.25" d="M85.2195 97.282C85.2195 97.282 83.9343 99.9439 86.0958 101.562C88.2573 103.18 91.8413 102.616 91.8413 102.616C91.8413 102.616 92.2375 98.8974 89.5426 97.2337C88.8923 96.8289 88.1399 96.6184 87.374 96.6269C86.6081 96.6355 85.8606 96.8628 85.2195 97.282Z" fill="black"/>
<path opacity="0.2" d="M86.106 101.564C88.232 103.154 91.8515 102.613 91.8515 102.613C90.3275 99.3267 85.2297 97.2795 85.2297 97.2795C85.2297 97.2795 83.9343 99.9465 86.106 101.564Z" fill="black"/>
<path d="M77.4319 91.4756C77.3599 91.5566 77.3008 91.6483 77.2566 91.7473C77.1901 91.9013 77.1558 92.0673 77.1558 92.235C77.1558 92.4028 77.1901 92.5687 77.2566 92.7227C77.2287 92.6617 76.896 92.9894 76.8731 93.0224C76.7664 93.177 76.7162 93.3635 76.7309 93.5507C76.7715 93.9724 77.1296 94.3432 77.437 94.5972C78.3234 95.3287 79.8297 95.7783 80.9752 95.7707C80.3168 95.8722 79.6474 95.8816 78.9864 95.7986C78.2752 95.7148 77.5386 95.3821 76.8248 95.316C76.6583 95.2827 76.4853 95.3159 76.3429 95.4085C76.2005 95.501 76.1 95.6456 76.0628 95.8113C76.0201 95.9632 76.0291 96.125 76.0884 96.2713C76.1477 96.4175 76.254 96.5398 76.3905 96.6191C76.2238 96.6047 76.0561 96.6317 75.9023 96.6977C75.7486 96.7637 75.6135 96.8667 75.5091 96.9975C75.4248 97.145 75.3873 97.3146 75.4019 97.4839C75.4164 97.6532 75.4822 97.814 75.5904 97.9449C75.815 98.2038 76.1287 98.3688 76.4692 98.4072C76.8071 98.4464 77.1485 98.4421 77.4852 98.3945C77.2084 98.6485 77.2897 99.1565 77.5716 99.4105C77.7227 99.5274 77.8954 99.6134 78.0797 99.6636C78.2641 99.7137 78.4565 99.727 78.646 99.7026C79.8678 99.6239 80.9117 98.8263 81.8693 98.0618C81.6871 98.3059 81.5622 98.5879 81.5037 98.8869C81.4452 99.1859 81.4547 99.4942 81.5315 99.789C81.618 100.065 81.7584 100.321 81.9446 100.543C82.1308 100.764 82.359 100.947 82.616 101.079C82.7264 101.145 82.8515 101.182 82.9798 101.186C83.1082 101.191 83.2355 101.163 83.3501 101.105C83.4681 101.007 83.5919 100.917 83.7209 100.835C83.859 100.782 84.0121 100.782 84.1502 100.835C84.5287 100.955 84.9122 101.117 85.2729 100.818C85.3474 100.755 85.4083 100.677 85.452 100.59C85.4956 100.502 85.5211 100.407 85.5269 100.31C85.9567 100.355 86.3879 100.238 86.7359 99.982C87.2617 99.5985 87.1906 99.0524 86.7563 98.6028C86.3219 98.1532 85.6742 97.8408 85.25 97.2845C85.9722 97.8357 86.8347 98.1728 87.7392 98.2573C88.6587 98.3056 89.5782 98.3691 90.4647 98.0364C90.753 97.9481 91.0057 97.7701 91.186 97.5284C91.2704 97.4048 91.3059 97.2543 91.2857 97.1061C91.2655 96.9578 91.1911 96.8223 91.0768 96.7257C91.3806 96.5349 91.6231 96.2607 91.7753 95.9358C91.8497 95.7709 91.8767 95.5885 91.8534 95.4091C91.8301 95.2296 91.7573 95.0602 91.6432 94.9198C91.5258 94.7987 91.3725 94.7185 91.2061 94.6911C91.0396 94.6637 90.8688 94.6904 90.7187 94.7674C90.9904 94.4778 90.8482 93.9571 90.5104 93.7514C90.3331 93.6621 90.1374 93.6155 89.9389 93.6155C89.7404 93.6155 89.5446 93.6621 89.3674 93.7514C89.0128 93.9346 88.6731 94.1452 88.3514 94.3813C87.6986 94.8091 86.9347 95.036 86.1543 95.0341C86.5845 94.6902 86.939 94.2611 87.1955 93.7738C87.4521 93.2864 87.6052 92.7513 87.6453 92.202C87.6791 91.9214 87.654 91.6367 87.5716 91.3663C87.5287 91.2319 87.4566 91.1087 87.3604 91.0055C87.2642 90.9023 87.1464 90.8217 87.0153 90.7694C86.8815 90.7228 86.7359 90.7225 86.6018 90.7686C86.4678 90.8147 86.3531 90.9044 86.2762 91.0234C86.1873 90.3148 85.5878 89.5604 84.803 89.8195C84.621 89.8877 84.4574 89.9974 84.3252 90.1398C84.1929 90.2822 84.0956 90.4534 84.041 90.6399C84.0892 90.4824 83.632 90.3859 83.5482 90.3859C83.4366 90.3821 83.3255 90.4029 83.2228 90.4468C83.1201 90.4906 83.0283 90.5566 82.9539 90.6399C82.7638 90.8798 82.6729 91.1834 82.6999 91.4883C82.7255 91.7912 82.7816 92.0907 82.8675 92.3823C83.0906 93.1682 83.19 93.984 83.1621 94.8004C82.5377 94.1261 82.0717 93.3208 81.7982 92.4433C81.711 92.1386 81.6084 91.8385 81.4908 91.5441C81.1936 90.8837 80.4266 90.2995 79.6773 90.5713C79.4684 90.6493 79.2849 90.7832 79.147 90.9583C79.009 91.1334 78.9218 91.3431 78.8949 91.5645C78.8027 91.4247 78.6723 91.3143 78.5193 91.2463C78.3662 91.1783 78.1969 91.1556 78.0313 91.1809C77.8037 91.2076 77.5921 91.3116 77.4319 91.4756Z" fill="#455A64"/>
<path d="M89.0092 95.9637C88.607 96.1364 88.1766 96.2337 87.7392 96.2508C87.2957 96.2787 86.8506 96.2608 86.4108 96.1974C85.9993 96.1415 85.5853 96.078 85.1789 95.9942C84.9782 95.9536 84.7826 95.9053 84.5871 95.8494C84.3915 95.7936 84.2442 95.7301 84.0791 95.6945C84.1248 95.6412 84.168 95.5827 84.2112 95.5294C84.5405 95.1489 84.784 94.7019 84.9249 94.2188C85.0475 93.8587 85.1401 93.4892 85.2018 93.1139C85.2551 92.7887 85.3694 92.3519 85.2018 92.042C85.1865 92.009 85.1281 91.9709 85.1129 92.0293C85.0646 92.1842 85.0443 92.3392 84.9884 92.4941C84.9325 92.649 84.8741 92.8218 84.8284 92.9869C84.731 93.3403 84.614 93.6879 84.4779 94.0283C84.3588 94.3378 84.2109 94.6355 84.0359 94.9173C83.9493 95.0455 83.8551 95.1685 83.754 95.2856C83.6722 95.3735 83.6022 95.4717 83.5457 95.5777C83.4896 95.5665 83.4315 95.5745 83.3806 95.6005L83.3145 95.6361C83.2612 95.6208 83.2079 95.6132 83.1647 95.6005C83.0605 95.5751 82.9564 95.5497 82.8523 95.5192C82.636 95.4557 82.4267 95.3706 82.2274 95.2652C81.8719 95.0848 81.5358 94.8687 81.2241 94.6201C80.9383 94.3751 80.6826 94.0971 80.4621 93.792C80.3046 93.5888 80.1573 93.3806 80.0075 93.1748C79.8747 93.0253 79.7698 92.8532 79.6976 92.6668C79.6976 92.6262 79.6442 92.6211 79.6366 92.6668C79.6291 92.8128 79.6626 92.9579 79.7331 93.0859C79.8322 93.2967 79.944 93.505 80.0506 93.7133C80.2563 94.1332 80.5359 94.5126 80.8761 94.8334C81.2176 95.1535 81.6014 95.4252 82.0166 95.6412C82.2297 95.7472 82.4525 95.8323 82.6821 95.8952L82.771 95.9231C82.6135 96.0095 82.456 96.0933 82.2909 96.1771C81.924 96.3488 81.5484 96.5015 81.1657 96.6343C80.3144 96.9143 79.4327 97.0917 78.5393 97.1626C78.4758 97.1626 78.5063 97.2998 78.5597 97.3074C80.17 97.5741 81.8617 97.0382 83.2866 96.233C83.2601 96.7061 83.3186 97.1801 83.4593 97.6325C83.5502 97.9521 83.6728 98.2618 83.8251 98.5571C83.9038 98.7069 83.9851 98.8568 84.0791 99.0016C84.172 99.1325 84.2569 99.2691 84.3331 99.4105C84.3509 99.4512 84.3864 99.4105 84.3864 99.3877C84.3795 99.1537 84.3268 98.9233 84.2315 98.7095C84.1172 98.3894 83.9952 98.0694 83.9038 97.7417C83.7198 97.1553 83.6815 96.5328 83.7921 95.9282C83.7979 95.9397 83.8047 95.9508 83.8124 95.9612C83.9737 96.091 84.1649 96.1783 84.3686 96.2152C84.6136 96.29 84.863 96.3493 85.1154 96.393C85.5574 96.4717 86.0044 96.5479 86.4514 96.5835C86.9046 96.6259 87.361 96.6199 87.8129 96.5657C88.044 96.5356 88.2714 96.4811 88.4911 96.4032C88.6935 96.3143 88.8853 96.2026 89.0626 96.0704C89.0829 96.0501 89.0625 95.9383 89.0092 95.9637Z" fill="#37474F"/>
<path d="M84.1477 95.4786C84.7573 95.7555 84.8716 96.2533 84.4017 96.5911C83.9318 96.929 83.0529 96.9772 82.4408 96.7004C81.8286 96.4235 81.7194 95.9383 82.1868 95.5878C82.6541 95.2373 83.5381 95.2017 84.1477 95.4786Z" fill="#F0997A"/>
<path opacity="0.05" d="M83.6752 96.5352C82.9335 96.68 82.1512 96.3803 81.8972 96.0145C81.8667 96.2685 82.0547 96.5225 82.4357 96.7003C83.0478 96.9772 83.9241 96.9289 84.3966 96.5911C84.4627 96.5572 84.5209 96.5096 84.5673 96.4515C84.6137 96.3934 84.6472 96.3261 84.6657 96.2541C84.6842 96.1821 84.6872 96.107 84.6745 96.0337C84.6618 95.9605 84.6338 95.8907 84.5922 95.8291C84.5414 96.1085 84.2899 96.4184 83.6752 96.5352Z" fill="black"/>
<path d="M100.035 96.0552C100.035 96.0552 99.9261 95.2475 99.2733 95.1992C99.2733 95.1992 98.7476 95.1433 98.5113 95.9739C98.5113 95.9739 97.8535 95.6945 97.0153 96.2279C96.9963 96.4591 97.0636 96.6891 97.2044 96.8735C97.3451 97.0579 97.5493 97.1835 97.7773 97.2261C97.7773 97.2261 97.3074 97.6351 97.5944 98.519C97.5944 98.519 98.9254 98.8721 99.1946 98.0415C99.1946 98.0415 99.3546 98.7578 100.63 98.679C100.772 98.46 100.84 98.2011 100.824 97.9405C100.808 97.6798 100.709 97.4312 100.541 97.2312C100.541 97.2312 101.435 97.1474 101.539 96.4692C101.544 96.4844 100.874 95.504 100.035 96.0552Z" fill="#FAFAFA"/>
<path d="M99.2581 96.2304C99.0516 96.2157 98.8464 96.2733 98.6777 96.3933C98.509 96.5133 98.3873 96.6883 98.3336 96.8883C98.3336 96.8883 98.364 97.3607 99.1794 97.3785C99.9947 97.3963 100.091 96.9162 100.091 96.9162C100.062 96.7188 99.9611 96.5392 99.8071 96.4124C99.6531 96.2857 99.4574 96.2208 99.2581 96.2304Z" fill="#F0997A"/>
<path d="M101.572 91.5848C101.572 91.5848 101.252 91.026 100.78 90.9879C100.538 91.2115 100.391 91.5184 100.368 91.8464C100.186 91.8157 99.9994 91.8279 99.823 91.8821C99.6466 91.9364 99.4853 92.0311 99.3521 92.1588C99.4037 92.3239 99.4936 92.4744 99.6146 92.5981C99.7356 92.7217 99.8841 92.8149 100.048 92.87C99.9453 93.2256 99.9816 93.607 100.15 93.9368C100.15 93.9368 101.054 93.9495 101.326 93.1748C101.326 93.1748 101.689 93.6523 102.596 93.4288C102.655 93.2308 102.648 93.0188 102.576 92.8252C102.503 92.6316 102.369 92.4671 102.194 92.3569C102.194 92.3569 102.74 91.9937 102.639 91.4527C102.28 91.3535 101.896 91.401 101.572 91.5848Z" fill="#FAFAFA"/>
<path d="M101.092 91.948C100.939 91.9595 100.795 92.0242 100.684 92.1309C100.574 92.2376 100.504 92.3796 100.487 92.5322C100.487 92.5322 100.561 92.8751 101.161 92.7989C101.76 92.7227 101.778 92.3569 101.778 92.3569C101.735 92.2158 101.641 92.0957 101.514 92.0202C101.387 91.9446 101.237 91.9188 101.092 91.948Z" fill="#F0997A"/>
<path d="M96.8451 92.2223C96.8451 92.2223 96.6368 91.7143 96.3092 91.915C95.9815 92.1156 96.1187 92.423 96.4184 92.4865C96.4184 92.4865 95.7961 92.7405 95.9942 93.0605C96.1923 93.3806 96.7156 92.9996 96.8223 92.8065C96.8223 92.8065 96.9721 93.3145 97.4014 93.1037C97.8306 92.8929 97.3633 92.4763 97.3633 92.4763C97.3633 92.4763 98.0262 92.169 97.6376 91.882C97.249 91.5949 96.8451 92.2223 96.8451 92.2223Z" fill="#FAFAFA"/>
<path d="M103.787 95.0544C103.787 95.0544 103.807 94.5083 103.426 94.5464C103.045 94.5845 103.04 94.9376 103.289 95.1103C103.289 95.1103 102.624 95.0773 102.667 95.4583C102.71 95.8393 103.348 95.7123 103.523 95.5777C103.523 95.5777 103.447 96.106 103.927 96.0856C104.407 96.0653 104.153 95.4964 104.153 95.4964C104.153 95.4964 104.882 95.4964 104.645 95.0697C104.409 94.6429 103.787 95.0544 103.787 95.0544Z" fill="#FAFAFA"/>
<path d="M94.7775 95.4405C94.7775 95.4405 94.3051 94.8893 94.6302 94.7268C94.9553 94.5642 95.1255 95.057 95.1255 95.057C95.1255 95.057 95.4329 94.6429 95.6081 94.9147C95.7834 95.1865 95.3973 95.5065 95.3973 95.5065C95.3973 95.5065 95.8697 95.725 95.6208 95.9866C95.3719 96.2482 95.0341 95.8799 95.0341 95.8799C95.0341 95.8799 94.8817 96.3295 94.5972 96.2253C94.3127 96.1212 94.455 95.6005 94.7775 95.4405Z" fill="#FAFAFA"/>
<path d="M80.6983 104.831C80.6983 104.831 80.2208 104.104 79.5833 104.092C79.2755 104.411 79.1019 104.837 79.0981 105.28C78.8517 105.256 78.6031 105.29 78.3717 105.378C78.1404 105.466 77.9326 105.607 77.7646 105.788C77.8482 106.007 77.9822 106.202 78.1557 106.359C78.3291 106.516 78.5372 106.629 78.7629 106.69C78.6523 107.176 78.7314 107.686 78.9838 108.115C78.9838 108.115 80.203 108.057 80.5078 106.998C80.5078 106.998 81.0387 107.61 82.2401 107.226C82.3048 106.955 82.2784 106.67 82.1651 106.415C82.0517 106.16 81.8576 105.95 81.6127 105.816C81.6127 105.816 82.3189 105.283 82.1385 104.562C81.8926 104.51 81.6387 104.506 81.3916 104.553C81.1444 104.599 80.9089 104.693 80.6983 104.831Z" fill="#FAFAFA"/>
<path d="M80.0659 105.372C79.8618 105.401 79.6741 105.499 79.5351 105.651C79.396 105.804 79.3143 105.999 79.3039 106.205C79.3039 106.205 79.4309 106.662 80.2335 106.51C81.0361 106.357 81.026 105.865 81.026 105.865C80.9568 105.677 80.8197 105.522 80.6419 105.431C80.4641 105.34 80.2585 105.319 80.0659 105.372Z" fill="#F0997A"/>
<path d="M72.0598 102.926C72.0598 102.926 71.6534 102.367 71.1479 102.38C70.9163 102.645 70.7946 102.988 70.8076 103.34C70.6112 103.33 70.4152 103.365 70.2349 103.444C70.0547 103.522 69.8951 103.641 69.7687 103.792C69.843 103.962 69.9565 104.112 70.1001 104.229C70.2436 104.347 70.4129 104.428 70.5942 104.468C70.5238 104.858 70.6046 105.26 70.8203 105.593C70.8203 105.593 71.7855 105.499 71.9861 104.648C71.9861 104.648 72.4281 105.115 73.3679 104.765C73.4077 104.547 73.3754 104.323 73.276 104.125C73.1765 103.927 73.0152 103.768 72.8167 103.67C72.8167 103.67 73.3577 103.223 73.1901 102.654C72.7922 102.592 72.3858 102.689 72.0598 102.926Z" fill="#FAFAFA"/>
<path d="M71.5797 103.378C71.4178 103.408 71.2713 103.493 71.1656 103.619C71.0598 103.745 71.0015 103.904 71.0006 104.069C71.0006 104.069 71.12 104.424 71.7626 104.275C72.4052 104.125 72.3671 103.734 72.3671 103.734C72.3059 103.585 72.1904 103.466 72.044 103.4C71.8977 103.333 71.7316 103.326 71.5797 103.378Z" fill="#F0997A"/>
<path d="M76.2305 102.898C76.2305 102.898 75.9765 102.202 75.5294 102.443C75.0824 102.685 75.2373 103.124 75.6361 103.221C75.6361 103.221 74.7827 103.505 75.024 103.96C75.2653 104.414 75.9993 103.934 76.1568 103.693C76.1568 103.693 76.3219 104.394 76.9188 104.137C77.5157 103.881 76.9188 103.289 76.9188 103.289C76.9188 103.289 77.8307 102.926 77.3303 102.512C76.8299 102.098 76.2305 102.898 76.2305 102.898Z" fill="#FAFAFA"/>
<path d="M74.1045 107.518C74.1045 107.518 73.1444 107.716 73.1647 107.229C73.185 106.741 73.8784 106.86 73.8784 106.86C73.8784 106.86 73.5914 106.225 74.0258 106.195C74.4601 106.164 74.5871 106.83 74.5871 106.83C74.5871 106.83 75.151 106.416 75.2983 106.881C75.4456 107.345 74.7903 107.503 74.7903 107.503C74.7903 107.503 75.2221 107.978 74.9097 108.245C74.5973 108.511 74.0816 108.003 74.1045 107.518Z" fill="#FAFAFA"/>
<path d="M21.1354 76.708L23.368 75.6666C23.368 75.6666 24.2799 71.1479 24.2367 67.5843C24.1757 62.5754 21.4783 56.3245 17.526 57.404C13.5738 58.4835 18.7274 64.008 19.6088 68.326C20.4902 72.644 21.1354 76.708 21.1354 76.708Z" fill="#92E3A9"/>
<path opacity="0.3" d="M21.1354 76.708L23.368 75.6666C23.368 75.6666 24.2799 71.1479 24.2367 67.5843C24.1757 62.5754 21.4783 56.3245 17.526 57.404C13.5738 58.4835 18.7274 64.008 19.6088 68.326C20.4902 72.644 21.1354 76.708 21.1354 76.708Z" fill="black"/>
<path d="M22.2987 76.2914C22.265 76.2864 22.2345 76.2685 22.2137 76.2415C22.1929 76.2145 22.1833 76.1806 22.1869 76.1467C23.5052 65.1459 18.4861 59.1287 18.4379 59.0652C18.4267 59.0523 18.4181 59.0374 18.4127 59.0213C18.4073 59.0051 18.4051 58.9881 18.4063 58.9711C18.4075 58.9541 18.412 58.9375 18.4196 58.9223C18.4272 58.907 18.4377 58.8934 18.4506 58.8823C18.4768 58.8603 18.5105 58.8494 18.5446 58.8517C18.5787 58.8541 18.6105 58.8696 18.6335 58.895C18.6843 58.9559 23.777 65.0646 22.4435 76.167C22.4429 76.1849 22.4386 76.2026 22.4308 76.2187C22.4231 76.2349 22.412 76.2493 22.3984 76.261C22.3848 76.2728 22.3689 76.2815 22.3517 76.2867C22.3346 76.292 22.3165 76.2936 22.2987 76.2914Z" fill="white"/>
<path d="M19.7282 77.3659L21.3208 76.6216C21.3208 76.6216 21.8465 73.5101 20.635 69.5757C19.5834 66.1492 16.5024 63.119 14.793 63.5534C13.0835 63.9877 13.015 65.1739 13.7211 66.4845C14.4272 67.7951 19.116 71.1759 19.7282 77.3659Z" fill="#92E3A9"/>
<path opacity="0.15" d="M19.7282 77.3659L21.3208 76.6216C21.3208 76.6216 21.8465 73.5101 20.635 69.5757C19.5834 66.1492 16.5024 63.119 14.793 63.5534C13.0835 63.9877 13.015 65.1739 13.7211 66.4845C14.4272 67.7951 19.116 71.1759 19.7282 77.3659Z" fill="black"/>
<path d="M20.5562 77.1017C20.5393 77.1004 20.5228 77.0958 20.5077 77.088C20.4926 77.0803 20.4792 77.0696 20.4683 77.0565C20.4574 77.0435 20.4492 77.0284 20.4443 77.0122C20.4393 76.996 20.4377 76.9789 20.4394 76.962C21.0668 69.9872 14.92 64.7116 14.8514 64.6582C14.8384 64.6472 14.8277 64.6338 14.8199 64.6186C14.8121 64.6035 14.8073 64.5869 14.8059 64.5699C14.8045 64.553 14.8064 64.5359 14.8116 64.5196C14.8168 64.5034 14.8251 64.4884 14.8362 64.4753C14.8472 64.4623 14.8606 64.4516 14.8758 64.4438C14.8909 64.436 14.9075 64.4313 14.9244 64.4299C14.9414 64.4284 14.9585 64.4304 14.9747 64.4356C14.991 64.4408 15.006 64.4491 15.019 64.4601C15.0825 64.5134 21.3309 69.8779 20.6909 76.9849C20.6876 77.0179 20.6719 77.0484 20.6468 77.0701C20.6218 77.0919 20.5894 77.1032 20.5562 77.1017Z" fill="white"/>
<path d="M104.295 76.2965L102.187 75.0773C102.187 75.0773 100.929 69.8576 101.425 65.1713C102.128 58.5673 105.682 55.6946 108.125 56.6547C109.753 57.2948 110.256 59.1439 107.523 63.0758C105.918 65.3898 103.934 70.2208 104.295 76.2965Z" fill="#92E3A9"/>
<g opacity="0.3">
<path opacity="0.3" d="M104.295 76.2965L102.187 75.0773C102.187 75.0773 100.929 69.8576 101.425 65.1713C102.128 58.5673 105.682 55.6946 108.125 56.6547C109.753 57.2948 110.256 59.1439 107.523 63.0758C105.918 65.3898 103.934 70.2208 104.295 76.2965Z" fill="black"/>
</g>
<path d="M103.421 73.7311H103.442C103.479 73.7237 103.513 73.7017 103.535 73.6699C103.557 73.6381 103.565 73.5989 103.558 73.5609C102.4 67.4649 104.529 60.6298 107.163 57.7825C107.189 57.7549 107.204 57.718 107.204 57.6796C107.204 57.6412 107.189 57.6042 107.163 57.5767C107.135 57.5497 107.097 57.5346 107.058 57.5346C107.02 57.5346 106.982 57.5497 106.954 57.5767C104.272 60.4774 102.105 67.4294 103.279 73.6066C103.283 73.6412 103.3 73.673 103.326 73.6959C103.353 73.7189 103.386 73.7314 103.421 73.7311Z" fill="white"/>
<path d="M109.822 79.4867C110.155 79.6569 111.041 78.8975 111.29 78.7247C111.713 78.4036 112.046 77.9795 112.258 77.4928C112.495 76.9395 112.554 76.3263 112.428 75.7377C112.359 75.4282 112.27 75.1236 112.161 74.8258L111.857 73.9394C111.737 73.6549 111.677 73.3488 111.681 73.0402C111.727 72.423 112.25 71.9658 112.728 71.5696C113.256 71.1301 113.8 70.5536 113.759 69.8195C113.692 69.2446 113.436 68.7083 113.03 68.2955C112.654 67.8663 112.215 67.4903 111.869 67.0255C111.601 66.7089 111.45 66.31 111.44 65.8952C111.462 65.6404 111.534 65.3925 111.653 65.1662C111.892 64.6709 112.212 64.2137 112.367 63.6854C112.522 63.1571 112.464 62.517 112.039 62.1614C111.694 61.8744 111.199 61.8566 110.752 61.9074C110.335 61.9801 109.938 62.1431 109.591 62.3849C108.448 63.0961 107.848 64.5211 106.629 65.085C106.143 65.2641 105.646 65.4126 105.141 65.5295C104.645 65.6869 104.148 65.9689 103.939 66.4439C103.528 67.3811 104.432 68.4759 104.16 69.4487C103.919 70.3224 103.101 70.6933 102.674 71.4807C102.5 71.8321 102.443 72.2299 102.512 72.6161C102.585 73.2705 102.778 73.9058 103.081 74.4906C103.42 75.0904 103.796 75.6689 104.206 76.2228C104.206 76.2228 109.771 79.4613 109.822 79.4867Z" fill="#92E3A9"/>
<g opacity="0.15">
<path opacity="0.15" d="M109.822 79.4867C110.155 79.6569 111.041 78.8975 111.29 78.7247C111.713 78.4036 112.046 77.9795 112.258 77.4928C112.495 76.9395 112.554 76.3263 112.428 75.7377C112.359 75.4282 112.27 75.1236 112.161 74.8258L111.857 73.9394C111.737 73.6549 111.677 73.3488 111.681 73.0402C111.727 72.423 112.25 71.9658 112.728 71.5696C113.256 71.1301 113.8 70.5536 113.759 69.8195C113.692 69.2446 113.436 68.7083 113.03 68.2955C112.654 67.8663 112.215 67.4903 111.869 67.0255C111.601 66.7089 111.45 66.31 111.44 65.8952C111.462 65.6404 111.534 65.3925 111.653 65.1662C111.892 64.6709 112.212 64.2137 112.367 63.6854C112.522 63.1571 112.464 62.517 112.039 62.1614C111.694 61.8744 111.199 61.8566 110.752 61.9074C110.335 61.9801 109.938 62.1431 109.591 62.3849C108.448 63.0961 107.848 64.5211 106.629 65.085C106.143 65.2641 105.646 65.4126 105.141 65.5295C104.645 65.6869 104.148 65.9689 103.939 66.4439C103.528 67.3811 104.432 68.4759 104.16 69.4487C103.919 70.3224 103.101 70.6933 102.674 71.4807C102.5 71.8321 102.443 72.2299 102.512 72.6161C102.585 73.2705 102.778 73.9058 103.081 74.4906C103.42 75.0904 103.796 75.6689 104.206 76.2228C104.206 76.2228 109.771 79.4613 109.822 79.4867Z" fill="black"/>
</g>
<path d="M106.594 77.8053C106.613 77.804 106.632 77.7989 106.649 77.7902C106.666 77.7816 106.682 77.7696 106.694 77.7549C106.707 77.7402 106.716 77.7232 106.722 77.7048C106.728 77.6864 106.73 77.667 106.728 77.6478C106.195 71.8566 108.605 65.311 110.5 63.3501C110.516 63.3369 110.529 63.3205 110.538 63.3019C110.547 63.2833 110.553 63.2629 110.553 63.2422C110.554 63.2215 110.551 63.2009 110.543 63.1816C110.535 63.1624 110.523 63.145 110.508 63.1307C110.493 63.1163 110.476 63.1052 110.456 63.0982C110.437 63.0911 110.416 63.0883 110.395 63.0898C110.375 63.0913 110.354 63.0972 110.336 63.1071C110.318 63.1169 110.302 63.1305 110.289 63.1469C108.356 65.1459 105.895 71.8007 106.436 77.6732C106.441 77.7111 106.459 77.746 106.489 77.7705C106.518 77.7951 106.555 77.8075 106.594 77.8053Z" fill="white"/>
<path d="M107.168 70.6628C107.182 70.6654 107.197 70.6654 107.211 70.6628C108.567 70.215 109.968 69.9161 111.389 69.7713C111.428 69.7674 111.463 69.7484 111.488 69.7184C111.513 69.6885 111.525 69.6499 111.521 69.6112C111.52 69.5918 111.515 69.5729 111.506 69.5556C111.497 69.5382 111.485 69.5229 111.47 69.5105C111.455 69.4982 111.437 69.489 111.419 69.4836C111.4 69.4782 111.381 69.4767 111.361 69.4792C109.916 69.6261 108.491 69.931 107.112 70.3885C107.078 70.3995 107.05 70.4224 107.032 70.453C107.014 70.4835 107.008 70.5195 107.015 70.5542C107.022 70.5889 107.041 70.6198 107.069 70.6412C107.097 70.6627 107.132 70.673 107.168 70.6704V70.6628Z" fill="white"/>
<path d="M61.9354 94.0181C61.7753 94.3534 60.0431 95.3313 57.7063 95.1713C55.9757 95.0491 54.3093 94.4659 52.8803 93.4822C51.9913 92.8904 51.0642 92.7811 49.9059 92.7202C49.0576 92.6748 48.2269 92.4607 47.4624 92.0902C47.225 91.9951 47.0246 91.8258 46.8909 91.6076C46.8453 91.5038 46.8235 91.3911 46.827 91.2777C46.8305 91.1643 46.8593 91.0532 46.9113 90.9523C47.0165 90.7507 47.178 90.584 47.3761 90.4723C48.0416 90.0735 48.6969 90.3757 49.3878 90.5053L51.1175 90.8329L55.8292 91.7219L60.2437 92.5551L62.0217 92.8904C62.1366 93.2637 62.1057 93.6666 61.9354 94.0181Z" fill="#263238"/>
<path d="M48.7452 85.344C48.8036 85.1611 50.3225 78.7273 50.3225 78.7273L56.04 80.5434C56.1721 80.5434 53.4365 87.2084 53.5 87.2084C53.5635 87.2084 51.7728 88.4403 50.0152 87.8764C48.2575 87.3125 48.7452 85.344 48.7452 85.344Z" fill="#FFA8A7"/>
<path d="M61.9989 92.8878C61.8804 93.1919 61.6606 93.4458 61.3766 93.6066C60.4749 94.14 58.1025 94.7115 55.6159 94.0079C54.262 93.6218 52.7558 92.174 50.9753 92.0369C50.362 91.99 49.7526 91.9009 49.1516 91.7702C48.5674 91.6406 47.8816 91.5492 47.3736 91.2292C46.9392 90.9752 46.7665 90.3732 46.769 89.8855C46.7931 89.3761 46.912 88.8756 47.1196 88.4098C47.3283 87.9446 47.4982 87.4628 47.6276 86.9696C47.6718 86.6023 47.757 86.241 47.8816 85.8926C48.039 85.5574 48.3896 85.2703 48.7502 85.3389C48.669 85.918 49.0042 87.0204 49.7485 86.9544C50.0964 86.9213 50.325 86.5861 50.6273 86.4108C50.9912 86.2364 51.4053 86.1968 51.7957 86.299C52.1824 86.4028 52.5793 86.4633 52.9793 86.4794C53.4873 86.4591 53.6321 86.4438 53.942 86.04C54.0411 86.6546 54.6176 87.1931 55.0469 87.663C55.5015 88.0988 56.0218 88.4605 56.5887 88.7349C57.3507 89.1413 58.1127 89.4613 58.8925 89.8169C59.6722 90.1725 60.7619 90.3986 61.3918 90.8329C61.7047 91.0612 61.9337 91.3861 62.0434 91.7575C62.1531 92.1289 62.1375 92.5261 61.9989 92.8878Z" fill="#37474F"/>
<path d="M25.6769 77.5716L29.3243 79.1921L25.908 84.2975L22.6238 82.6541C22.3292 82.3088 22.1094 81.9062 21.9782 81.4716C21.8471 81.0371 21.8074 80.58 21.8618 80.1294C21.9939 78.5114 24.4399 76.1848 25.6769 77.5716Z" fill="#FFA8A7"/>
<path d="M21.7551 89.3623C20.9525 89.789 19.2481 89.6722 17.8638 88.7603C16.4795 87.8485 16.1493 85.7885 16.6497 84.2899C17.2568 82.4713 18.3261 81.5848 18.7249 80.4977C19.1237 79.4106 19.1059 77.8155 19.6139 76.868C20.0965 75.9714 21.2471 75.3618 21.8999 75.2069C22.1611 75.1492 22.432 75.1512 22.6924 75.2128C22.9527 75.2744 23.1958 75.3939 23.4036 75.5625L23.8023 75.8851C21.1938 78.8467 21.336 83.9978 21.7551 89.3623Z" fill="#263238"/>
<path d="M25.6769 77.5716C25.654 77.3794 25.5832 77.1961 25.4709 77.0386C25.3586 76.881 25.2084 76.7542 25.0342 76.6699C24.7224 76.4967 24.4266 76.2961 24.1503 76.0704C21.6637 74.6099 20.0279 77.4243 19.9568 79.4385C19.8857 81.4527 17.7571 82.7252 17.3126 84.7725C17.0028 86.2051 17.2161 88.1355 19.1821 89.06C20.8991 89.8703 21.9939 89.85 22.7381 88.9686C22.8765 88.7639 22.9548 88.5246 22.9641 88.2777C23.0027 87.949 23.0146 87.6177 22.9997 87.2871C22.9997 86.929 22.9616 86.5708 22.9235 86.2178C22.9108 86.1085 22.9032 85.9993 22.8854 85.8926C22.8448 85.6513 23.048 85.4253 23.1851 85.2399C23.5238 84.7776 23.8625 84.3119 24.2011 83.8428C24.2621 83.7565 24.3637 83.6117 24.3281 83.5127L24.191 83.4288C23.9094 83.2708 23.6476 83.0798 23.4112 82.8599C23.2236 82.694 23.1027 82.4656 23.0708 82.2172C23.0727 81.9775 23.1069 81.7392 23.1724 81.5086C23.2461 81.1733 23.2588 80.7847 23.0251 80.5332C22.9337 80.4367 22.8168 80.3707 22.7178 80.2792C22.6648 80.2396 22.6223 80.1877 22.594 80.1279C22.5657 80.0682 22.5524 80.0024 22.5552 79.9363C22.5927 79.8142 22.6695 79.708 22.7736 79.6341C23.0255 79.4072 23.2497 79.1514 23.4417 78.8721C23.6322 78.6028 23.7896 78.3082 23.9903 78.0466C24.1795 77.7723 24.4442 77.5587 24.7523 77.4319C24.9049 77.3706 25.071 77.3513 25.2336 77.3758C25.3962 77.4004 25.5492 77.468 25.6769 77.5716Z" fill="#37474F"/>
<path d="M59.0093 63.82C55.4711 63.0276 49.1541 61.501 49.1541 61.501L47.5513 56.675C43.3578 58.0619 38.3591 56.675 35.3898 54.3204L34.8209 56.515C34.8209 56.515 33.0429 59.563 32.3291 61.2851C31.4325 63.4238 31.0896 66.8731 31.5366 72.1792C31.8059 75.3821 32.4841 80.1167 32.4841 80.1167L27.1094 78.2142C26.5862 78.326 25.5549 79.0499 25.1079 80.7542C24.3154 83.8022 25.5829 84.6963 25.5829 84.6963C25.5829 84.6963 27.4752 85.659 31.4782 88.0466C35.5625 90.4773 37.752 90.772 39.5122 89.9668C40.7645 89.3928 42.23 87.5487 42.2275 82.9589C42.2275 79.1642 42.5247 72.2274 42.5247 72.2274L51.562 73.1164C51.562 73.1164 50.6552 76.0273 50.3479 77.343C50.0405 78.6587 49.7205 80.7288 49.276 82.804C49.276 82.804 51.8465 84.6988 54.803 84.2493C54.803 84.2493 61.4756 73.3628 62.3951 70.2005C63.3146 67.0382 62.4357 64.5897 59.0093 63.82Z" fill="#455A64"/>
<path d="M42.5247 72.2249V70.9193C44.2482 70.5219 45.8074 69.6031 46.99 68.2879C46.99 68.2879 46.8325 70.7796 43.561 71.6991L47.785 72.7456L42.5247 72.2249Z" fill="#37474F"/>
<path d="M51.562 73.1164C52.1857 71.4248 53.389 70.0091 54.958 69.121C54.958 69.121 51.9506 69.629 50.5994 73.0224L51.562 73.1164Z" fill="#37474F"/>
<path d="M32.4841 80.1065C32.5399 82.1385 32.8803 84.1705 33.5001 84.9325C32.7224 84.1912 32.1374 83.2714 31.7957 82.2528C31.4886 81.4156 31.3021 80.539 31.242 79.6493L32.4841 80.1065Z" fill="#37474F"/>
<path d="M56.835 56.5302C56.835 56.5302 54.9935 48.7934 54.041 45.2222C53.025 41.3944 51.7754 40.9169 49.0957 40.259L47.8079 48.8569C47.8079 48.8569 52.1259 60.3682 53.274 62.1208C54.5872 64.1528 56.3855 64.389 57.8942 62.7481C59.5173 60.9828 60.6882 59.2201 62.2122 57.3557C62.8955 56.515 63.2562 55.8089 64.5846 54.7294C65.3136 54.1376 67.1246 53.2054 67.277 52.2249C67.4014 51.3969 65.8546 50.6806 65.0951 50.3301C64.725 50.1655 64.3285 50.0683 63.9242 50.0431C63.6245 50.0202 62.9666 49.9262 62.6999 50.0761C62.4332 50.226 62.3062 50.7644 62.1792 51.0083C62.0145 51.3419 61.8107 51.6548 61.5721 51.9405C60.1447 53.5762 56.835 56.5302 56.835 56.5302Z" fill="#FFA8A7"/>
<path d="M56.835 56.5302L53.942 58.354L56.642 55.7225L56.835 56.5302Z" fill="#F28F8F"/>
<path d="M49.5884 40.386C50.7543 40.6044 51.501 40.7543 52.4485 41.6712C53.3959 42.5882 53.8582 44.0512 54.2976 45.5422C54.737 47.0332 56.4871 54.5059 56.4871 54.5059C56.4871 54.5059 54.8284 56.8325 50.8483 57.0459C50.8483 57.0459 47.9831 50.2869 47.5869 49.2557C47.1907 48.2244 46.9214 41.1607 49.5884 40.386Z" fill="#EBEBEB"/>
<path d="M40.2844 38.7934L35.8572 38.4505C35.8572 38.4505 34.7574 46.6217 33.0403 46.9519C30.6731 54.8259 31.0312 63.4746 31.0312 63.4746C31.0312 63.4746 34.9707 65.6768 41.7602 65.2069C47.7114 64.7929 49.1541 61.501 49.1541 61.501C49.1541 61.501 48.3921 57.9196 48.3667 56.7817C48.288 53.7337 49.9085 48.9407 50.1447 46.9519C50.6959 42.3799 49.0982 40.259 49.0982 40.259L45.5575 39.2887L40.2844 38.7934Z" fill="#EBEBEB"/>
<path d="M45.7759 39.4691C47.4396 40.955 47.1068 43.1216 46.8909 44.1554C46.675 45.1891 46.7512 47.0687 46.7512 48.5242C46.7512 49.9796 46.7081 58.4301 46.8071 60.7517C46.8569 62.0126 46.9807 63.2696 47.178 64.516C47.178 64.516 49.4868 63.8251 50.0151 61.5137C49.9262 61.2597 49.3141 56.2432 49.4563 53.6397C49.5986 51.0362 50.4089 48.707 50.6933 46.0451C50.9778 43.3832 50.1142 41.087 49.5884 40.3911C48.5318 39.7815 45.7987 39.2811 45.7987 39.2811L45.7759 39.4691Z" fill="#92E3A9"/>
<path opacity="0.3" d="M45.7759 39.4691C47.4396 40.955 47.1068 43.1216 46.8909 44.1554C46.675 45.1891 46.7512 47.0687 46.7512 48.5242C46.7512 49.9796 46.7081 58.4301 46.8071 60.7517C46.8569 62.0126 46.9807 63.2696 47.178 64.516C47.178 64.516 49.4868 63.8251 50.0151 61.5137C49.9262 61.2597 49.3141 56.2432 49.4563 53.6397C49.5986 51.0362 50.4089 48.707 50.6933 46.0451C50.9778 43.3832 50.1142 41.087 49.5884 40.3911C48.5318 39.7815 45.7987 39.2811 45.7987 39.2811L45.7759 39.4691Z" fill="black"/>
<path d="M39.0119 25.4C39.5021 24.9758 40.2819 24.7294 40.8076 25.2806C40.8874 25.3721 40.9486 25.4782 40.988 25.593C41.0159 25.6642 41.0388 25.7353 41.0591 25.8064C41.2293 26.4109 41.0591 26.9342 41.0261 27.5311C41.0108 28.0391 40.9939 28.5471 40.9753 29.0551C40.9524 29.7002 40.9321 30.3454 40.9092 30.9905H41.308L41.1328 33.7236L40.8991 35.9867C40.8991 35.9867 40.6933 35.941 40.6756 35.9359C40.1117 35.7632 39.7764 35.2603 39.5656 34.737C39.2811 34.0284 38.8925 33.3604 38.6334 32.6288C38.3695 31.8821 38.1565 31.1184 37.9959 30.3428C37.7927 29.3421 37.6784 28.3108 37.912 27.2948C38.0714 26.5682 38.4521 25.9089 39.0017 25.4076L39.0119 25.4Z" fill="#263238"/>
<path d="M52.9158 26.002C52.9472 25.9919 52.981 25.9919 53.0123 26.002C53.0487 26.0209 53.0787 26.0501 53.0987 26.0858C53.4072 26.584 53.5478 27.168 53.5 27.752C53.4794 28.198 53.34 28.6303 53.0962 29.0043C52.8487 29.378 52.4666 29.6419 52.0294 29.7409C51.9025 29.7778 51.7677 29.7778 51.6407 29.7409C51.5054 29.6827 51.3898 29.5865 51.308 29.464C51.1548 29.2546 51.0237 29.0299 50.9168 28.7934C50.7213 28.3845 50.5511 27.9197 50.6908 27.4879C50.7106 27.4149 50.7491 27.3484 50.8025 27.2948C50.8544 27.2519 50.9138 27.2192 50.9778 27.1983C51.2349 27.0662 51.4842 26.9195 51.7246 26.7589C51.9481 26.637 52.1665 26.5049 52.3824 26.3652C52.5983 26.2255 52.6872 26.0477 52.9158 26.002Z" fill="#263238"/>
<path d="M41.3284 31.4528C41.0159 31.59 40.673 30.9804 40.3606 30.5613C40.0482 30.1422 38.9458 29.4818 38.2092 30.6375C37.4726 31.7932 38.2397 33.5051 39.0119 34.0944C39.2821 34.3083 39.6192 34.4197 39.9636 34.409C40.3081 34.3983 40.6376 34.2662 40.894 34.036L40.1549 39.7535C40.5512 40.5093 41.0983 41.1758 41.7624 41.7118C42.4264 42.2479 43.1933 42.6421 44.0157 42.8701C46.7792 43.6016 46.4896 41.2115 45.7073 39.9593L45.9207 38.2194C45.9207 38.2194 47.3304 38.6156 48.0467 38.5953C49.2328 38.5623 50.2895 38.42 50.9118 36.5303C51.5188 34.6964 51.9583 32.9743 52.1462 28.7299C52.3418 24.2976 46.7944 23.7846 43.8328 25.1739C40.8712 26.5633 41.3284 31.4528 41.3284 31.4528Z" fill="#FFA8A7"/>
<path d="M40.2844 38.7934C40.8003 40.2792 41.5182 41.6868 42.418 42.9768C43.34 44.2087 43.434 44.5897 43.2689 45.6794C43.1038 46.769 41.6306 55.3313 41.1201 59.182C40.8074 61.6248 40.6539 64.0853 40.6603 66.548C40.6603 66.548 36.7894 66.5683 33.7719 66.0171C30.7543 65.4659 29.9263 64.4093 29.9263 64.4093C29.9263 64.4093 30.5511 55.9308 31.242 51.4705C31.9329 47.0103 35.8547 38.4581 35.8547 38.4581L40.2844 38.7934Z" fill="#92E3A9"/>
<path opacity="0.3" d="M40.2844 38.7934C40.8003 40.2792 41.5182 41.6868 42.418 42.9768C43.34 44.2087 43.434 44.5897 43.2689 45.6794C43.1038 46.769 41.6306 55.3313 41.1201 59.182C40.8074 61.6248 40.6539 64.0853 40.6603 66.548C40.6603 66.548 36.7894 66.5683 33.7719 66.0171C30.7543 65.4659 29.9263 64.4093 29.9263 64.4093C29.9263 64.4093 30.5511 55.9308 31.242 51.4705C31.9329 47.0103 35.8547 38.4581 35.8547 38.4581L40.2844 38.7934Z" fill="black"/>
<path opacity="0.15" d="M32.9413 58.6029C32.5247 61.0565 32.1386 63.8175 32.6289 64.2213C33.5509 64.9833 36.8173 65.2729 37.9629 65.2018C38.9662 65.1383 39.3141 59.5605 39.3141 59.5605L32.9413 58.6029Z" fill="black"/>
<path d="M36.2788 58.2625C34.2468 57.9145 33.086 57.724 32.9413 57.8587C32.7965 57.9933 33.1622 59.403 33.3629 59.7611C33.5636 60.1193 37.9806 60.9092 38.5191 60.612C39.0576 60.3148 39.9643 58.9763 39.4919 58.8569C38.4911 58.6029 37.0053 58.387 36.2788 58.2625Z" fill="#92E3A9"/>
<path opacity="0.55" d="M36.2788 58.2625C34.2468 57.9145 33.086 57.724 32.9413 57.8587C32.7965 57.9933 33.1622 59.403 33.3629 59.7611C33.5636 60.1193 37.9806 60.9092 38.5191 60.612C39.0576 60.3148 39.9643 58.9763 39.4919 58.8569C38.4911 58.6029 37.0053 58.387 36.2788 58.2625Z" fill="black"/>
<path opacity="0.15" d="M35.4914 46.5963C35.0749 49.0499 34.6888 51.8109 35.179 52.2148C36.101 52.9768 39.37 53.2663 40.513 53.1952C41.5163 53.1317 41.8643 47.5564 41.8643 47.5564L35.4914 46.5963Z" fill="black"/>
<path d="M38.829 46.2559C36.797 45.908 35.6362 45.7175 35.4914 45.8521C35.3466 45.9867 35.7124 47.3964 35.9131 47.7571C36.1137 48.1178 40.5308 48.9026 41.0693 48.6054C41.6078 48.3083 42.5145 46.9722 42.0421 46.8503C41.0439 46.5963 39.5554 46.3804 38.829 46.2559Z" fill="#92E3A9"/>
<path opacity="0.55" d="M38.829 46.2559C36.797 45.908 35.6362 45.7175 35.4914 45.8521C35.3466 45.9867 35.7124 47.3964 35.9131 47.7571C36.1137 48.1178 40.5308 48.9026 41.0693 48.6054C41.6078 48.3083 42.5145 46.9722 42.0421 46.8503C41.0439 46.5963 39.5554 46.3804 38.829 46.2559Z" fill="black"/>
<path d="M41.2674 31.9405C41.1226 31.9253 40.6807 30.9245 40.3606 30.5613C40.2588 30.3671 40.2248 30.1445 40.2641 29.9288C40.2895 29.2887 40.48 28.6842 40.4597 28.0441C40.4394 27.4041 40.1777 26.8478 40.0126 26.2661C39.8083 25.6509 39.7906 24.9889 39.9618 24.3637C40.2028 23.6916 40.688 23.1348 41.3207 22.8041C41.9525 22.4786 42.6438 22.285 43.3527 22.2352C44.8767 22.0828 46.4007 22.3114 47.9247 22.3622C49.4487 22.413 51.0439 22.2656 52.3316 21.4503C52.4332 21.3868 52.5628 21.3208 52.6618 21.3868C52.6939 21.4121 52.7199 21.4442 52.738 21.4808C53.0911 22.1234 52.6618 22.9032 52.639 23.6372C53.1547 23.7591 53.6972 23.6867 54.163 23.434C54.5237 23.7846 54.4602 24.3764 54.3255 24.8641C54.1206 25.6904 53.6855 26.4417 53.0708 27.0307C52.484 27.5641 51.496 27.4371 50.8457 27.0916C50.8064 27.0676 50.7621 27.0528 50.7162 27.0485C50.6423 27.0607 50.5755 27.0996 50.5282 27.1577C49.845 27.8232 48.7782 27.9197 47.8435 27.7343C46.9087 27.5488 46.0375 27.1272 45.118 26.8757C44.7659 26.7615 44.3925 26.7285 44.0258 26.7792C43.5763 26.8656 43.4112 27.1272 43.1394 27.4701C43.0062 27.627 42.8895 27.7972 42.7914 27.9781C42.7038 28.1693 42.6374 28.3694 42.5933 28.575C42.4688 29.0119 42.0472 32.0218 41.2674 31.9405Z" fill="#263238"/>
<path d="M45.9283 38.2092C45.9283 38.2092 43.3883 37.3583 42.5425 36.7614C42.0422 36.4157 41.658 35.927 41.4401 35.3593C41.5109 35.9087 41.6914 36.4382 41.971 36.9164C42.5298 37.8511 45.8419 38.9026 45.8419 38.9026L45.9283 38.2092Z" fill="#F28F8F"/>
<path d="M46.6598 31.3309C46.6431 31.4326 46.5969 31.5272 46.5268 31.6028C46.4568 31.6785 46.3661 31.7319 46.266 31.7564C46.1658 31.7809 46.0607 31.7754 45.9637 31.7407C45.8666 31.7059 45.7819 31.6434 45.7201 31.5609C45.6584 31.4784 45.6222 31.3795 45.6161 31.2766C45.6101 31.1737 45.6344 31.0713 45.6861 30.9821C45.7377 30.8929 45.8145 30.8209 45.9068 30.7749C45.9991 30.729 46.1028 30.7113 46.2052 30.7238C46.275 30.7335 46.3423 30.7569 46.4031 30.7927C46.4638 30.8285 46.5169 30.876 46.5592 30.9325C46.6015 30.9889 46.6321 31.0532 46.6494 31.1216C46.6667 31.19 46.6702 31.2611 46.6598 31.3309Z" fill="#263238"/>
<path d="M45.9893 28.7706L44.798 29.2481C44.7373 29.0852 44.742 28.905 44.8111 28.7455C44.8802 28.5859 45.0084 28.4593 45.1688 28.3921C45.2474 28.3611 45.3314 28.3464 45.4158 28.3487C45.5002 28.3511 45.5833 28.3706 45.66 28.4059C45.7366 28.4413 45.8054 28.4919 45.862 28.5545C45.9185 28.6172 45.9619 28.6907 45.9893 28.7706Z" fill="#263238"/>
<path d="M45.9232 34.7167L47.178 35.3746C47.1384 35.4596 47.0821 35.5358 47.0124 35.5985C46.9427 35.6612 46.861 35.7092 46.7723 35.7396C46.6835 35.7699 46.5896 35.7821 46.4961 35.7752C46.4025 35.7684 46.3114 35.7427 46.228 35.6997C46.0599 35.6071 45.9342 35.453 45.8774 35.2697C45.8205 35.0864 45.837 34.8882 45.9232 34.7167Z" fill="#F28F8F"/>
<path d="M51.468 29.972L50.546 29.0601C50.6022 28.9971 50.6707 28.9461 50.7473 28.9105C50.8239 28.8748 50.9069 28.8552 50.9914 28.8528C51.0758 28.8504 51.1599 28.8653 51.2384 28.8966C51.3168 28.9279 51.3881 28.9749 51.4477 29.0347C51.5706 29.1586 51.6412 29.3249 51.6449 29.4993C51.6487 29.6737 51.5854 29.8429 51.468 29.972Z" fill="#263238"/>
<path d="M50.9016 31.6357C50.8844 31.7373 50.8377 31.8316 50.7673 31.9068C50.6969 31.9821 50.6059 32.035 50.5057 32.059C50.4055 32.083 50.3004 32.077 50.2035 32.0418C50.1067 32.0066 50.0223 31.9437 49.961 31.8609C49.8996 31.7781 49.8639 31.6791 49.8583 31.5762C49.8527 31.4733 49.8774 31.3711 49.9295 31.2821C49.9815 31.1932 50.0586 31.1215 50.151 31.076C50.2435 31.0305 50.3473 31.0131 50.4495 31.0261C50.5193 31.0364 50.5863 31.0603 50.6468 31.0965C50.7073 31.1327 50.7601 31.1805 50.8021 31.2371C50.8441 31.2937 50.8745 31.3581 50.8916 31.4265C50.9086 31.4949 50.9121 31.566 50.9016 31.6357Z" fill="#263238"/>
<path d="M48.2803 30.9829L48.0594 34.1401L50.038 33.7312L48.2803 30.9829Z" fill="#F28F8F"/>
<path d="M48.006 48.166C47.813 49.6291 47.9069 52.9438 48.1482 53.3019C48.3895 53.66 49.8551 53.2841 50.0151 52.7075C50.1752 52.131 50.7771 48.3387 50.5079 48.166C50.2387 47.9933 48.006 48.166 48.006 48.166Z" fill="#92E3A9"/>
<path opacity="0.4" d="M48.006 48.166C47.813 49.6291 47.9069 52.9438 48.1482 53.3019C48.3895 53.66 49.8551 53.2841 50.0151 52.7075C50.1752 52.131 50.7771 48.3387 50.5079 48.166C50.2387 47.9933 48.006 48.166 48.006 48.166Z" fill="black"/>
<path d="M48.006 47.9654C48.415 48.166 48.3311 48.7528 48.6664 49.0957C48.8341 49.3243 50.4266 49.3243 50.64 49.1642C50.6756 48.9712 50.734 48.2371 50.5765 48.0162C50.292 47.8079 48.006 47.6326 48.006 47.9654Z" fill="#92E3A9"/>
<path opacity="0.55" d="M48.006 47.9654C48.415 48.166 48.3311 48.7528 48.6664 49.0957C48.8341 49.3243 50.4266 49.3243 50.64 49.1642C50.6756 48.9712 50.734 48.2371 50.5765 48.0162C50.292 47.8079 48.006 47.6326 48.006 47.9654Z" fill="black"/>
<path d="M47.3659 56.1924C47.3863 57.6707 47.9578 60.9371 48.2473 61.2546C48.5369 61.5721 49.9339 61.0006 50.0075 60.3987C50.0812 59.7967 50.1371 55.9664 49.8424 55.8267C49.5478 55.687 47.3659 56.1924 47.3659 56.1924Z" fill="#92E3A9"/>
<path opacity="0.4" d="M47.3659 56.1924C47.3863 57.6707 47.9578 60.9371 48.2473 61.2546C48.5369 61.5721 49.9339 61.0006 50.0075 60.3987C50.0812 59.7967 50.1371 55.9664 49.8424 55.8267C49.5478 55.687 47.3659 56.1924 47.3659 56.1924Z" fill="black"/>
<path d="M47.338 55.9968C47.7698 56.134 47.7723 56.7258 48.1533 57.0128C48.354 57.216 49.9313 56.9874 50.1167 56.7969C50.1167 56.6014 50.0761 55.8648 49.8881 55.6692C49.5732 55.5117 47.2796 55.6692 47.338 55.9968Z" fill="#92E3A9"/>
<path opacity="0.55" d="M47.338 55.9968C47.7698 56.134 47.7723 56.7258 48.1533 57.0128C48.354 57.216 49.9313 56.9874 50.1167 56.7969C50.1167 56.6014 50.0761 55.8648 49.8881 55.6692C49.5732 55.5117 47.2796 55.6692 47.338 55.9968Z" fill="black"/>
<path d="M56.4871 53.7998C56.2204 53.8849 55.9387 53.9131 55.6605 53.8824C55.3822 53.8518 55.1134 53.7631 54.8716 53.622L53.3756 52.6263C53.1282 52.4414 52.9278 52.2009 52.7906 51.9242C52.6534 51.6476 52.5832 51.3425 52.5856 51.0337L52.8523 46.8376C52.861 46.7274 52.8815 46.6184 52.9133 46.5125C52.9241 46.4754 52.9368 46.439 52.9514 46.4033C52.9514 46.4033 52.9768 46.3372 52.992 46.3042C53.0073 46.2712 53.0327 46.2204 53.0555 46.1797L53.1013 46.0934L53.1546 46.0096L53.1673 45.9892L56.388 48.1152C56.211 48.3689 56.1017 48.6635 56.0705 48.9712L55.8165 53.1673C55.7606 53.6702 56.0603 53.9268 56.4871 53.7998Z" fill="#92E3A9"/>
<path opacity="0.45" d="M56.4871 53.7998C56.2204 53.8849 55.9387 53.9131 55.6605 53.8824C55.3822 53.8518 55.1134 53.7631 54.8716 53.622L53.3756 52.6263C53.1282 52.4414 52.9278 52.2009 52.7906 51.9242C52.6534 51.6476 52.5832 51.3425 52.5856 51.0337L52.8523 46.8376C52.861 46.7274 52.8815 46.6184 52.9133 46.5125C52.9241 46.4754 52.9368 46.439 52.9514 46.4033C52.9514 46.4033 52.9768 46.3372 52.992 46.3042C53.0073 46.2712 53.0327 46.2204 53.0555 46.1797L53.1013 46.0934L53.1546 46.0096L53.1673 45.9892L56.388 48.1152C56.211 48.3689 56.1017 48.6635 56.0705 48.9712L55.8165 53.1673C55.7606 53.6702 56.0603 53.9268 56.4871 53.7998Z" fill="black"/>
<path d="M64.77 42.672L63.2739 41.6738C63.0075 41.5161 62.7074 41.4237 62.3984 41.4043C62.0893 41.3849 61.7801 41.4389 61.4959 41.562L60.96 41.8389C60.8621 41.8895 60.7565 41.9238 60.6476 41.9405L60.6958 41.971L62.4332 43.1292L62.4637 43.1495C62.5448 43.2171 62.6069 43.3047 62.644 43.4035C62.7027 43.5442 62.7898 43.6713 62.8998 43.7769C63.0097 43.8825 63.1403 43.9643 63.2833 44.0172C63.4263 44.0701 63.5786 44.093 63.7308 44.0844C63.8831 44.0758 64.0319 44.036 64.168 43.9674L64.704 43.6982C65.1891 43.4569 65.5599 43.6778 65.5625 44.1884C65.5523 43.8924 65.4758 43.6025 65.3386 43.3401C65.2015 43.0777 65.0071 42.8493 64.77 42.672Z" fill="#92E3A9"/>
<path opacity="0.15" d="M64.77 42.672L63.2739 41.6738C63.0075 41.5161 62.7074 41.4237 62.3984 41.4043C62.0893 41.3849 61.7801 41.4389 61.4959 41.562L60.96 41.8389C60.8621 41.8895 60.7565 41.9238 60.6476 41.9405L60.6958 41.971L62.4332 43.1292L62.4637 43.1495C62.5448 43.2171 62.6069 43.3047 62.644 43.4035C62.7027 43.5442 62.7898 43.6713 62.8998 43.7769C63.0097 43.8825 63.1403 43.9643 63.2833 44.0172C63.4263 44.0701 63.5786 44.093 63.7308 44.0844C63.8831 44.0758 64.0319 44.036 64.168 43.9674L64.704 43.6982C65.1891 43.4569 65.5599 43.6778 65.5625 44.1884C65.5523 43.8924 65.4758 43.6025 65.3386 43.3401C65.2015 43.0777 65.0071 42.8493 64.77 42.672Z" fill="black"/>
<path d="M63.561 43.1089L63.5864 42.6898L63.2689 42.6695C63.063 42.5537 62.8337 42.4859 62.598 42.4709C62.3623 42.456 62.1263 42.4943 61.9074 42.5831L61.5874 42.5628L61.562 42.9819C61.5638 43.0692 61.5882 43.1546 61.6327 43.2298C61.6772 43.305 61.7403 43.3675 61.816 43.4111C62.0279 43.5357 62.2662 43.6086 62.5115 43.6241C62.7568 43.6395 63.0024 43.597 63.2282 43.5C63.3134 43.4703 63.3892 43.4184 63.4477 43.3496C63.5062 43.2809 63.5453 43.1978 63.561 43.1089Z" fill="#263238"/>
<path d="M61.9074 42.164C61.501 42.3647 61.4782 42.7304 61.8541 42.9793C62.0661 43.1049 62.3047 43.1786 62.5505 43.1945C62.7964 43.2104 63.0425 43.168 63.2689 43.0708C63.6727 42.8701 63.6981 42.5044 63.3197 42.2529C63.1077 42.1284 62.8695 42.0554 62.6242 42.04C62.3788 42.0245 62.1333 42.067 61.9074 42.164Z" fill="#37474F"/>
<path d="M65.5472 44.2697L65.278 48.4657C65.2409 48.7721 65.1324 49.0655 64.9613 49.3222C64.7901 49.579 64.561 49.792 64.2925 49.944L56.642 53.7337L56.5734 53.7642L56.5226 53.7845L56.482 53.7972C56.0553 53.9267 55.753 53.6702 55.786 53.1673L56.04 48.9712C56.0716 48.6628 56.1808 48.3674 56.3575 48.1127C56.4826 47.9174 56.6407 47.7455 56.8249 47.6047L56.9138 47.5437L57.0052 47.4929H57.0179L57.0535 47.4751L58.1584 46.9341C58.5945 46.7139 58.9764 46.3996 59.2764 46.014C59.5764 45.6283 59.7871 45.1809 59.8932 44.704C59.9295 44.5502 59.9959 44.4051 60.0888 44.2773C60.1735 44.1481 60.2887 44.0417 60.4241 43.9674L62.0929 43.1419C62.1431 43.1132 62.2 43.098 62.2579 43.098C62.3159 43.098 62.3728 43.1132 62.423 43.1419L62.4535 43.1622C62.5353 43.2298 62.5983 43.3172 62.6364 43.4162C62.6952 43.5569 62.7822 43.684 62.8921 43.7897C63.002 43.8953 63.1325 43.9772 63.2754 44.0303C63.4183 44.0834 63.5706 44.1066 63.7229 44.0984C63.8751 44.0902 64.024 44.0508 64.1604 43.9826L64.6964 43.7109C65.1815 43.4721 65.5523 43.688 65.5549 44.2011C65.5472 44.2214 65.5472 44.2443 65.5472 44.2697Z" fill="#92E3A9"/>
<path opacity="0.3" d="M65.5472 44.2697L65.278 48.4657C65.2409 48.7721 65.1324 49.0655 64.9613 49.3222C64.7901 49.579 64.561 49.792 64.2925 49.944L56.642 53.7337L56.5734 53.7642L56.5226 53.7845L56.482 53.7972C56.0553 53.9267 55.753 53.6702 55.786 53.1673L56.04 48.9712C56.0716 48.6628 56.1808 48.3674 56.3575 48.1127C56.4826 47.9174 56.6407 47.7455 56.8249 47.6047L56.9138 47.5437L57.0052 47.4929H57.0179L57.0535 47.4751L58.1584 46.9341C58.5945 46.7139 58.9764 46.3996 59.2764 46.014C59.5764 45.6283 59.7871 45.1809 59.8932 44.704C59.9295 44.5502 59.9959 44.4051 60.0888 44.2773C60.1735 44.1481 60.2887 44.0417 60.4241 43.9674L62.0929 43.1419C62.1431 43.1132 62.2 43.098 62.2579 43.098C62.3159 43.098 62.3728 43.1132 62.423 43.1419L62.4535 43.1622C62.5353 43.2298 62.5983 43.3172 62.6364 43.4162C62.6952 43.5569 62.7822 43.684 62.8921 43.7897C63.002 43.8953 63.1325 43.9772 63.2754 44.0303C63.4183 44.0834 63.5706 44.1066 63.7229 44.0984C63.8751 44.0902 64.024 44.0508 64.1604 43.9826L64.6964 43.7109C65.1815 43.4721 65.5523 43.688 65.5549 44.2011C65.5472 44.2214 65.5472 44.2443 65.5472 44.2697Z" fill="black"/>
<path d="M58.3641 43.1216L56.8833 42.1361C56.7931 42.2651 56.7276 42.4098 56.6903 42.5628C56.5871 43.0401 56.3794 43.4886 56.0821 43.876C55.7847 44.2634 55.4051 44.58 54.9707 44.8031L53.8099 45.3746C53.5514 45.5212 53.3325 45.7287 53.1724 45.9791L56.388 48.1152C56.5452 47.86 56.7635 47.6479 57.023 47.498C57.023 47.498 58.1685 46.9341 58.1762 46.9316C58.6087 46.7096 58.9869 46.3948 59.2837 46.0097C59.5805 45.6247 59.7886 45.1788 59.8932 44.704C59.9306 44.5506 59.997 44.4057 60.0888 44.2773L58.3641 43.1216Z" fill="#92E3A9"/>
<path opacity="0.15" d="M58.3641 43.1216L56.8833 42.1361C56.7931 42.2651 56.7276 42.4098 56.6903 42.5628C56.5871 43.0401 56.3794 43.4886 56.0821 43.876C55.7847 44.2634 55.4051 44.58 54.9707 44.8031L53.8099 45.3746C53.5514 45.5212 53.3325 45.7287 53.1724 45.9791L56.388 48.1152C56.5452 47.86 56.7635 47.6479 57.023 47.498C57.023 47.498 58.1685 46.9341 58.1762 46.9316C58.6087 46.7096 58.9869 46.3948 59.2837 46.0097C59.5805 45.6247 59.7886 45.1788 59.8932 44.704C59.9306 44.5506 59.997 44.4057 60.0888 44.2773L58.3641 43.1216Z" fill="black"/>
<path d="M60.6857 41.971L60.6374 41.9405L59.2455 41.0134L59.2176 40.9956C59.1673 40.9669 59.1104 40.9518 59.0525 40.9518C58.9946 40.9518 58.9376 40.9669 58.8874 40.9956L57.2186 41.8211C57.0834 41.8967 56.9677 42.0028 56.8808 42.131L58.3616 43.1165L60.0862 44.2646C60.171 44.1361 60.2862 44.0305 60.4215 43.9572L62.0903 43.1292C62.1406 43.1005 62.1975 43.0853 62.2554 43.0853C62.3133 43.0853 62.3702 43.1005 62.4205 43.1292L60.6857 41.971Z" fill="#92E3A9"/>
<path d="M55.2603 45.6717C55.1993 45.6382 55.1318 45.6186 55.0624 45.6142C54.9931 45.6098 54.9236 45.6208 54.8589 45.6463H54.765V45.7683C54.7653 45.7946 54.7728 45.8203 54.7867 45.8427C54.8005 45.8651 54.8203 45.8833 54.8437 45.8953C54.9061 45.9321 54.9763 45.9538 55.0487 45.9586C55.121 45.9635 55.1935 45.9514 55.2603 45.9232C55.2848 45.9137 55.3064 45.8979 55.3229 45.8774C55.3394 45.8569 55.3502 45.8324 55.3542 45.8064V45.6844L55.2603 45.6717Z" fill="#263238"/>
<path d="M54.864 45.527C54.7446 45.5854 54.7396 45.6921 54.8488 45.7657C54.9112 45.8025 54.9814 45.8242 55.0537 45.8291C55.1261 45.8339 55.1985 45.8218 55.2653 45.7937C55.2914 45.7871 55.3147 45.7724 55.3318 45.7517C55.349 45.731 55.3592 45.7054 55.3609 45.6786C55.3626 45.6517 55.3557 45.6251 55.3413 45.6024C55.3268 45.5797 55.3056 45.5622 55.2806 45.5524C55.2179 45.516 55.1476 45.4947 55.0753 45.4903C55.003 45.4859 54.9306 45.4984 54.864 45.527Z" fill="#37474F"/>
<path d="M56.0426 45.466V45.3441H55.9486C55.8881 45.3094 55.8205 45.289 55.7509 45.2846C55.6813 45.2802 55.6116 45.2919 55.5473 45.3187H55.4533V45.4431C55.4538 45.4691 55.4614 45.4944 55.4753 45.5164C55.4892 45.5383 55.5088 45.556 55.532 45.5676C55.5945 45.6044 55.6647 45.6261 55.737 45.631C55.8093 45.6358 55.8818 45.6237 55.9486 45.5955C55.9749 45.585 55.9977 45.5673 56.0143 45.5444C56.031 45.5214 56.0408 45.4943 56.0426 45.466Z" fill="#263238"/>
<path d="M55.5549 45.1815C55.5212 45.1795 55.4881 45.1909 55.4629 45.2133C55.4376 45.2357 55.4223 45.2672 55.4203 45.3009C55.4183 45.3346 55.4297 45.3677 55.4521 45.3929C55.4745 45.4182 55.506 45.4335 55.5397 45.4355C55.6023 45.4719 55.6726 45.4932 55.7449 45.4976C55.8172 45.502 55.8896 45.4894 55.9562 45.4609C55.9814 45.4537 56.0037 45.4389 56.0202 45.4185C56.0366 45.3981 56.0463 45.3731 56.048 45.3469C56.0497 45.3208 56.0432 45.2947 56.0295 45.2724C56.0158 45.2501 55.9955 45.2325 55.9714 45.2222C55.91 45.1833 55.8403 45.1594 55.768 45.1523C55.6957 45.1452 55.6227 45.1553 55.5549 45.1815Z" fill="#37474F"/>
<path d="M55.908 46.1035C55.8472 46.0695 55.7796 46.0496 55.7102 46.0452C55.6407 46.0408 55.5712 46.0521 55.5066 46.0781H55.4127V46.2026C55.4135 46.2288 55.4213 46.2543 55.4351 46.2766C55.4489 46.2989 55.4683 46.3172 55.4914 46.3296C55.5535 46.3662 55.6234 46.3875 55.6954 46.392C55.7673 46.3964 55.8393 46.3837 55.9054 46.355C55.9299 46.3462 55.9516 46.3309 55.9681 46.3108C55.9847 46.2906 55.9955 46.2664 55.9994 46.2407V46.1162L55.908 46.1035Z" fill="#263238"/>
<path d="M55.5066 45.9562C55.3872 46.0172 55.3796 46.1239 55.4914 46.1975C55.5533 46.2347 55.6232 46.2564 55.6953 46.2608C55.7674 46.2653 55.8394 46.2522 55.9054 46.2229C55.9307 46.216 55.9533 46.2014 55.97 46.1812C55.9867 46.1609 55.9967 46.136 55.9986 46.1098C56.0006 46.0836 55.9944 46.0575 55.9809 46.035C55.9674 46.0125 55.9472 45.9947 55.9232 45.9842C55.8607 45.9473 55.7905 45.9256 55.7182 45.9208C55.6459 45.9159 55.5734 45.9281 55.5066 45.9562Z" fill="#37474F"/>
<path d="M56.6877 45.8876V45.7632H56.5963C56.5356 45.7292 56.468 45.7092 56.3985 45.7048C56.3291 45.7004 56.2595 45.7117 56.195 45.7378H56.101V45.8597C56.1018 45.8859 56.1096 45.9114 56.1234 45.9337C56.1372 45.956 56.1566 45.9743 56.1797 45.9867C56.2418 46.0233 56.3117 46.0446 56.3837 46.049C56.4556 46.0535 56.5276 46.0408 56.5937 46.0121C56.6198 46.0028 56.6426 45.986 56.6593 45.9639C56.676 45.9418 56.6859 45.9153 56.6877 45.8876Z" fill="#263238"/>
<path d="M56.2026 45.6133C56.1774 45.6205 56.1551 45.6354 56.1386 45.6558C56.1222 45.6762 56.1125 45.7012 56.1108 45.7273C56.1091 45.7535 56.1156 45.7795 56.1293 45.8018C56.143 45.8242 56.1633 45.8417 56.1873 45.8521C56.2497 45.8891 56.3199 45.9109 56.3923 45.9158C56.4647 45.9206 56.5371 45.9084 56.6039 45.88C56.6289 45.8722 56.6509 45.8569 56.667 45.8363C56.6832 45.8157 56.6927 45.7907 56.6944 45.7646C56.696 45.7385 56.6897 45.7125 56.6763 45.69C56.6629 45.6675 56.6429 45.6496 56.6191 45.6387C56.5568 45.6015 56.4864 45.5798 56.414 45.5754C56.3415 45.571 56.269 45.584 56.2026 45.6133Z" fill="#37474F"/>
<path d="M57.4955 46.8274V46.6369H57.3532C57.2602 46.5836 57.1563 46.5522 57.0493 46.5452C56.9423 46.5381 56.8352 46.5556 56.736 46.5963H56.5912V46.7868C56.5921 46.8267 56.6036 46.8656 56.6246 46.8996C56.6456 46.9335 56.6753 46.9612 56.7106 46.9798C56.8064 47.0368 56.9144 47.0703 57.0257 47.0773C57.137 47.0844 57.2484 47.0649 57.3507 47.0205C57.3904 47.005 57.425 46.9787 57.4506 46.9446C57.4762 46.9105 57.4917 46.8699 57.4955 46.8274Z" fill="#263238"/>
<path d="M56.7462 46.4033C56.7072 46.4143 56.6726 46.4372 56.6472 46.4687C56.6218 46.5002 56.6068 46.5389 56.6043 46.5793C56.6018 46.6197 56.6119 46.6599 56.6332 46.6944C56.6545 46.7288 56.686 46.7558 56.7233 46.7716C56.8191 46.8286 56.9272 46.862 57.0384 46.8691C57.1497 46.8761 57.2611 46.8566 57.3634 46.8122C57.5463 46.7233 57.5564 46.5582 57.3862 46.4439C57.2902 46.3875 57.1822 46.3544 57.071 46.3473C56.9599 46.3403 56.8486 46.3594 56.7462 46.4033Z" fill="#37474F"/>
<path d="M63.7693 46.5658L63.7032 46.5226C63.3222 46.2915 62.7837 46.2991 62.1792 46.6014C60.9092 47.2262 59.8221 48.8721 59.7332 50.2793C59.7152 50.5134 59.7323 50.7488 59.784 50.9778C59.8392 51.2249 59.9634 51.4512 60.1421 51.6306C60.1823 51.6696 60.2257 51.7053 60.2717 51.7373L60.3047 51.7601L61.7322 52.7101C61.6739 52.6675 61.6195 52.6199 61.5696 52.5679C61.4187 52.3864 61.3073 52.1754 61.2426 51.9484C61.1779 51.7214 61.1612 51.4834 61.1937 51.2496C61.2826 49.845 62.3799 48.2016 63.6423 47.5717C63.8452 47.452 64.0708 47.3759 64.3048 47.3484C64.5388 47.3208 64.776 47.3424 65.0012 47.4116C65.0621 47.4339 65.1208 47.462 65.1764 47.4955L63.7693 46.5658Z" fill="#92E3A9"/>
<path opacity="0.15" d="M63.7693 46.5658L63.7032 46.5226C63.3222 46.2915 62.7837 46.2991 62.1792 46.6014C60.9092 47.2262 59.8221 48.8721 59.7332 50.2793C59.7152 50.5134 59.7323 50.7488 59.784 50.9778C59.8392 51.2249 59.9634 51.4512 60.1421 51.6306C60.1823 51.6696 60.2257 51.7053 60.2717 51.7373L60.3047 51.7601L61.7322 52.7101C61.6739 52.6675 61.6195 52.6199 61.5696 52.5679C61.4187 52.3864 61.3073 52.1754 61.2426 51.9484C61.1779 51.7214 61.1612 51.4834 61.1937 51.2496C61.2826 49.845 62.3799 48.2016 63.6423 47.5717C63.8452 47.452 64.0708 47.3759 64.3048 47.3484C64.5388 47.3208 64.776 47.3424 65.0012 47.4116C65.0621 47.4339 65.1208 47.462 65.1764 47.4955L63.7693 46.5658Z" fill="black"/>
<path d="M60.1345 51.6306C60.1742 51.6702 60.2175 51.7059 60.264 51.7373L59.502 51.2293C59.1261 50.9753 58.9128 50.4673 58.9585 49.7688C59.0474 48.3641 60.1421 46.7208 61.4045 46.0908C61.7164 45.9238 62.0669 45.8423 62.4205 45.8546C62.6223 45.8638 62.8179 45.9269 62.9869 46.0375L63.721 46.5252C63.34 46.294 62.8015 46.3017 62.197 46.6039C60.927 47.2288 59.8399 48.8747 59.751 50.2818C59.7329 50.5159 59.7501 50.7514 59.8018 50.9804C59.8492 51.2241 59.9646 51.4495 60.1345 51.6306Z" fill="#92E3A9"/>
<path opacity="0.55" d="M60.1345 51.6306C60.1742 51.6702 60.2175 51.7059 60.264 51.7373L59.502 51.2293C59.1261 50.9753 58.9128 50.4673 58.9585 49.7688C59.0474 48.3641 60.1421 46.7208 61.4045 46.0908C61.7164 45.9238 62.0669 45.8423 62.4205 45.8546C62.6223 45.8638 62.8179 45.9269 62.9869 46.0375L63.721 46.5252C63.34 46.294 62.8015 46.3017 62.197 46.6039C60.927 47.2288 59.8399 48.8747 59.751 50.2818C59.7329 50.5159 59.7501 50.7514 59.8018 50.9804C59.8492 51.2241 59.9646 51.4495 60.1345 51.6306Z" fill="black"/>
<path d="M68.0923 50.546C68.0034 51.9506 66.9087 53.594 65.6463 54.2214C65.3389 54.3884 64.9927 54.4708 64.643 54.4601C64.4433 54.4503 64.2497 54.3881 64.0817 54.2798L61.783 52.7558L61.75 52.7355C61.6917 52.6929 61.6373 52.6453 61.5874 52.5932C61.4365 52.4117 61.3251 52.2008 61.2604 51.9738C61.1957 51.7468 61.179 51.5088 61.2115 51.275C61.3004 49.8704 62.3977 48.227 63.66 47.5971C63.863 47.4774 64.0886 47.4013 64.3226 47.3738C64.5566 47.3462 64.7938 47.3678 65.0189 47.437C65.0799 47.4593 65.1386 47.4874 65.1942 47.5209L65.2526 47.5615L67.5386 49.0855C67.9221 49.3243 68.138 49.8348 68.0923 50.546Z" fill="#92E3A9"/>
<path opacity="0.45" d="M68.0923 50.546C68.0034 51.9506 66.9087 53.594 65.6463 54.2214C65.3389 54.3884 64.9927 54.4708 64.643 54.4601C64.4433 54.4503 64.2497 54.3881 64.0817 54.2798L61.783 52.7558L61.75 52.7355C61.6917 52.6929 61.6373 52.6453 61.5874 52.5932C61.4365 52.4117 61.3251 52.2008 61.2604 51.9738C61.1957 51.7468 61.179 51.5088 61.2115 51.275C61.3004 49.8704 62.3977 48.227 63.66 47.5971C63.863 47.4774 64.0886 47.4013 64.3226 47.3738C64.5566 47.3462 64.7938 47.3678 65.0189 47.437C65.0799 47.4593 65.1386 47.4874 65.1942 47.5209L65.2526 47.5615L67.5386 49.0855C67.9221 49.3243 68.138 49.8348 68.0923 50.546Z" fill="black"/>
<path d="M67.31 50.1752C67.343 50.5282 67.3735 50.8787 67.3837 51.2343C67.4091 51.9303 67.3227 52.7355 67.5005 53.4137C67.5005 53.4619 67.5488 53.6677 67.6351 53.5737C67.9018 53.3197 68.0517 52.7964 68.1889 52.4586C68.4719 51.7903 68.6517 51.0829 68.7223 50.3606C68.7426 50.0685 68.6867 49.7764 68.7223 49.4919C68.7359 49.3046 68.7059 49.1167 68.6344 48.943C68.563 48.7694 68.4522 48.6147 68.3108 48.4911C68.0152 48.2442 67.687 48.039 67.3354 47.8815C66.9818 47.7241 66.6684 47.4888 66.4185 47.1932C66.2918 46.9593 66.125 46.7495 65.9257 46.5734C65.7253 46.4683 65.4974 46.4275 65.2729 46.4566C64.5909 46.4959 63.9286 46.6998 63.3425 47.051C63.2198 47.1092 63.1217 47.2091 63.0657 47.3329C63.0477 47.4022 63.0492 47.475 63.0698 47.5435C63.0904 47.6121 63.1294 47.6736 63.1825 47.7215C63.2914 47.8162 63.424 47.8794 63.5661 47.9044C63.7919 47.9568 64.0259 47.9637 64.2544 47.9247C64.2851 47.9134 64.3179 47.9092 64.3504 47.9123C64.3829 47.9153 64.4144 47.9257 64.4424 47.9425C64.5109 47.9984 64.4805 48.1076 64.4805 48.1965C64.4926 48.2969 64.5363 48.3908 64.6052 48.4647C64.6741 48.5387 64.7647 48.5888 64.864 48.608C65.0611 48.6449 65.2606 48.6678 65.4609 48.6766C65.6633 48.7242 65.8588 48.7976 66.0426 48.895C66.3346 49.0151 66.6083 49.1758 66.8554 49.3725C66.9819 49.4682 67.0875 49.5888 67.1656 49.7268C67.2438 49.8649 67.293 50.0174 67.31 50.1752Z" fill="#FFA8A7"/>
<path d="M67.2414 48.6232C66.835 48.3514 66.2534 48.3464 65.5853 48.6766C64.262 49.3395 63.0911 51.0819 62.992 52.578C62.9437 53.307 63.1622 53.8353 63.5533 54.102C63.6854 54.1934 64.5693 54.7472 64.6963 54.831C65.1027 55.1028 65.6869 55.1078 66.355 54.7776C67.691 54.1147 68.8492 52.3723 68.9458 50.8864C68.9915 50.1523 68.768 49.6164 68.3717 49.3471C68.2473 49.2582 67.3684 48.707 67.2414 48.6232Z" fill="#455A64"/>
<path d="M64.1147 53.2816C64.0207 54.7675 65.0266 55.438 66.3601 54.7776C67.6936 54.1172 68.8543 52.3723 68.9509 50.8864C69.0474 49.4005 68.039 48.7299 66.703 49.3928C65.3669 50.0558 64.2087 51.7957 64.1147 53.2816Z" fill="#37474F"/>
<path d="M65.3365 54.4551C64.6888 54.4144 64.6684 53.6473 64.6887 53.3171C64.77 52.0471 65.8114 50.4774 66.9595 49.9059C67.1935 49.7791 67.4554 49.7128 67.7215 49.7129C68.3667 49.7535 68.3895 50.5231 68.3692 50.8508C68.2879 52.1208 67.2465 53.6905 66.0985 54.262C65.8644 54.3886 65.6025 54.455 65.3365 54.4551Z" fill="#263238"/>
<path d="M67.658 50.038C67.667 49.9315 67.667 49.8245 67.658 49.718C67.4141 49.7297 67.1757 49.7948 66.9595 49.9085C65.8114 50.48 64.77 52.0421 64.6887 53.3197C64.6812 53.4271 64.6812 53.5349 64.6887 53.6423C64.933 53.6307 65.1717 53.5647 65.3872 53.4492C66.548 52.8777 67.5767 51.308 67.658 50.038Z" fill="#92E3A9"/>
<path opacity="0.3" d="M67.658 50.038C67.667 49.9315 67.667 49.8245 67.658 49.718C67.4141 49.7297 67.1757 49.7948 66.9595 49.9085C65.8114 50.48 64.77 52.0421 64.6887 53.3197C64.6812 53.4271 64.6812 53.5349 64.6887 53.6423C64.933 53.6307 65.1717 53.5647 65.3872 53.4492C66.548 52.8777 67.5767 51.308 67.658 50.038Z" fill="black"/>
<path d="M66.3143 50.5892C66.7842 50.0812 67.3608 49.9466 67.437 50.1472C67.5132 50.3479 67.1145 52.2427 65.1993 53.2511C65.8472 52.7395 66.3919 52.1094 66.8046 51.3944C67.1297 50.7771 66.9011 50.2412 66.3143 50.5892Z" fill="#E0E0E0"/>
<path d="M60.8559 44.3484L61.9989 43.782C62.1716 43.6956 62.3037 43.782 62.291 43.9547C62.2775 44.0563 62.24 44.1533 62.1818 44.2376C62.1235 44.322 62.046 44.3913 61.9557 44.4398L60.8152 45.0063C60.64 45.0901 60.5104 45.0063 60.5206 44.831C60.5351 44.73 60.5729 44.6338 60.6311 44.55C60.6893 44.4662 60.7663 44.3972 60.8559 44.3484Z" fill="#92E3A9"/>
<path d="M56.9417 52.3062L58.2879 51.6407C58.4937 51.5391 58.6486 51.6407 58.6334 51.8439C58.6177 51.9636 58.5738 52.0778 58.5054 52.1771C58.4369 52.2765 58.3458 52.3581 58.2397 52.4154L56.896 53.086C56.6903 53.1876 56.5353 53.086 56.548 52.8803C56.5633 52.7602 56.607 52.6455 56.6755 52.5457C56.744 52.4458 56.8352 52.3637 56.9417 52.3062Z" fill="#37474F"/>
<path opacity="0.15" d="M64.3052 54.3865C64.1434 54.042 64.0775 53.6603 64.1147 53.2816C64.1786 52.5821 64.4029 51.9068 64.77 51.308L59.596 47.8638C59.2387 48.437 59.0204 49.0859 58.9585 49.7586C58.9128 50.4546 59.1261 50.9626 59.502 51.2191L60.264 51.7271L60.2971 51.75L61.722 52.6974L61.755 52.7177L63.1749 53.66C63.2604 53.824 63.3831 53.9658 63.533 54.0741C63.6524 54.1579 64.3915 54.6202 64.6227 54.7675C64.4906 54.6649 64.3823 54.5349 64.3052 54.3865Z" fill="black"/>
<path d="M57.8434 48.5394L57.7418 48.3235C57.5903 48.0862 57.4707 47.83 57.3862 47.5615C57.3819 47.3361 57.3291 47.1143 57.2313 46.9113C57.1281 46.7731 56.9855 46.6694 56.8224 46.6137C56.6592 46.5579 56.483 46.5528 56.3169 46.5988C55.9853 46.6991 55.6863 46.8858 55.4507 47.1399C55.306 47.2796 55.1663 47.4294 55.0189 47.5666C54.4906 48.0568 53.9699 48.5648 53.4035 49.0169C53.2308 49.1541 53.0555 49.2887 52.8727 49.4182C52.8523 49.4309 52.6821 49.5224 52.6821 49.5478C52.6821 49.5732 52.738 48.6029 52.766 48.2117C52.0979 48.1178 51.2674 49.4005 50.48 50.7009C50.0655 51.2881 49.5493 51.7965 48.956 52.2021C47.6225 53.0352 43.8277 54.9783 41.2115 55.786C40.5765 53.66 39.2354 48.4454 38.6893 46.609C38.8976 42.5933 36.6293 39.1516 35.8216 38.7198C31.6992 38.7198 31.0286 43.1673 31.943 47.183C32.6111 50.1167 34.2621 56.4921 35.6362 59.8018C36.3068 61.4121 37.1805 62.2681 37.6936 62.5475C38.2067 62.8269 39.6215 63.0733 43.3807 61.1734C45.3923 60.1574 47.7164 58.5978 50.5435 56.7436C51.9557 55.8165 53.0098 55.0545 53.9674 54.4271C55.3263 53.5356 56.7284 52.4612 57.5513 51.0261C57.7966 50.6061 57.9684 50.1474 58.0593 49.6697C58.1058 49.2797 58.0303 48.8848 57.8434 48.5394Z" fill="#FFA8A7"/>
<path d="M36.1721 38.4734C36.1721 38.4734 33.7922 38.067 32.6568 39.4691C32.0694 40.1906 31.6432 41.0295 31.4066 41.9293C31.1701 42.8291 31.1287 43.7691 31.2852 44.6862C31.6179 46.6115 32.8092 53.5762 33.594 55.9054C33.594 55.9054 38.1838 55.9841 40.7619 53.3908L38.9661 46.0248C38.9661 46.0248 38.8163 42.8473 38.0517 41.1023C36.9138 38.5115 36.1721 38.4734 36.1721 38.4734Z" fill="#EBEBEB"/>
<path d="M59.8576 53.7159C60.3656 53.2943 60.3301 52.2757 60.0913 51.7017C59.9952 51.3823 59.9735 51.0452 60.0278 50.7162C60.0581 50.369 60.1341 50.0274 60.2539 49.7002C60.2708 49.6271 60.3038 49.5587 60.3503 49.4998C60.3969 49.441 60.4559 49.3931 60.5231 49.3598C60.6098 49.3456 60.6987 49.3584 60.7778 49.3966C60.8569 49.4348 60.9223 49.4965 60.9651 49.5732C61.1274 49.8408 61.2094 50.1493 61.2013 50.4622C61.1951 50.7744 61.2249 51.0864 61.2902 51.3918C61.4038 51.7203 61.5836 52.0221 61.8185 52.2783C61.9124 52.4048 61.9909 52.5421 62.0522 52.6872C62.1094 52.8372 62.1958 52.9745 62.3062 53.0911L62.5602 53.2511C62.4151 53.3489 62.2488 53.4108 62.0751 53.4314C61.8829 53.3985 61.6884 53.3806 61.4934 53.3781C61.2648 53.3959 61.0362 53.4391 60.8101 53.4695C60.5841 53.5 60.1167 53.6804 59.8576 53.7159Z" fill="#FFA8A7"/>
<path d="M102.489 16.3449C102.507 16.1668 102.479 15.9871 102.409 15.8227C102.338 15.6583 102.227 15.5146 102.085 15.4051C101.816 15.2324 100.693 14.6228 100.442 14.4628C100.19 14.3027 99.7941 14.3053 99.3724 14.5491L74.6481 28.8239C74.2183 29.1036 73.8606 29.4808 73.6042 29.9248C73.3477 30.3688 73.1998 30.8671 73.1723 31.3792V35.4609L68.453 40.3657C68.4175 40.4029 68.3902 40.4472 68.373 40.4957C68.3558 40.5442 68.349 40.5958 68.353 40.6471C68.3571 40.6984 68.372 40.7483 68.3966 40.7935C68.4213 40.8386 68.4552 40.8781 68.4962 40.9092C68.5648 40.9626 69.9821 41.7322 70.1421 41.8541C70.2154 41.9075 70.3059 41.9319 70.3961 41.9227L73.1673 41.6027V51.9379C73.1506 52.114 73.1782 52.2914 73.2474 52.4542C73.3165 52.6169 73.4252 52.7599 73.5635 52.8701C73.8327 53.0479 74.9605 53.6473 75.2018 53.8099C75.4431 53.9725 75.8571 53.9801 76.2864 53.7337L101.011 39.4589C101.44 39.1785 101.797 38.8011 102.052 38.3572C102.308 37.9133 102.456 37.4153 102.484 36.9037L102.489 16.3449Z" fill="#92E3A9"/>
<path opacity="0.15" d="M102.489 16.3449C102.507 16.1668 102.479 15.9871 102.409 15.8227C102.338 15.6583 102.227 15.5146 102.085 15.4051C101.816 15.2324 100.693 14.6228 100.442 14.4628C100.19 14.3027 99.7941 14.3053 99.3724 14.5491L74.6481 28.8239C74.2183 29.1036 73.8606 29.4808 73.6042 29.9248C73.3477 30.3688 73.1998 30.8671 73.1723 31.3792V35.4609L68.453 40.3657C68.4175 40.4029 68.3902 40.4472 68.373 40.4957C68.3558 40.5442 68.349 40.5958 68.353 40.6471C68.3571 40.6984 68.372 40.7483 68.3966 40.7935C68.4213 40.8386 68.4552 40.8781 68.4962 40.9092C68.5648 40.9626 69.9821 41.7322 70.1421 41.8541C70.2154 41.9075 70.3059 41.9319 70.3961 41.9227L73.1673 41.6027V51.9379C73.1506 52.114 73.1782 52.2914 73.2474 52.4542C73.3165 52.6169 73.4252 52.7599 73.5635 52.8701C73.8327 53.0479 74.9605 53.6473 75.2018 53.8099C75.4431 53.9725 75.8571 53.9801 76.2864 53.7337L101.011 39.4589C101.44 39.1785 101.797 38.8011 102.052 38.3572C102.308 37.9133 102.456 37.4153 102.484 36.9037L102.489 16.3449Z" fill="black"/>
<path opacity="0.15" d="M102.489 16.3449C102.489 15.8902 75.6361 31.0947 75.6361 31.0947L73.6041 29.9212C73.3369 30.362 73.1873 30.864 73.1698 31.3792V35.4609L68.453 40.3657C68.4175 40.4029 68.3902 40.4472 68.373 40.4957C68.3558 40.5442 68.349 40.5958 68.353 40.6471C68.3571 40.6984 68.372 40.7483 68.3966 40.7935C68.4213 40.8386 68.4552 40.8781 68.4962 40.9092C68.5648 40.9626 69.9821 41.7322 70.1421 41.8541C70.2154 41.9075 70.3059 41.9319 70.3961 41.9227L73.1672 41.6027V51.9379C73.1506 52.114 73.1782 52.2914 73.2474 52.4542C73.3165 52.6169 73.4252 52.7599 73.5635 52.8701C73.8327 53.0479 74.9605 53.6473 75.2018 53.8099C75.4431 53.9725 75.8571 53.9801 76.2864 53.7337L101.011 39.4589C101.44 39.1785 101.796 38.8011 102.052 38.3572C102.308 37.9133 102.456 37.4153 102.484 36.9037L102.489 16.3449Z" fill="black"/>
<path opacity="0.15" d="M73.1723 35.4635L74.8157 36.4058L73.1165 38.1737L71.4756 37.2262L73.1723 35.4635Z" fill="black"/>
<path opacity="0.15" d="M75.2069 53.8099C74.9656 53.6473 73.8403 53.0479 73.5686 52.8701C73.4307 52.7596 73.3226 52.6165 73.2538 52.4538C73.1851 52.291 73.158 52.1138 73.1749 51.9379V41.6027L72.6237 41.6662L73.1469 40.1041L74.8157 41.4122V52.8803C74.7992 53.0555 74.8262 53.232 74.8945 53.3942C74.9627 53.5564 75.07 53.6992 75.2069 53.8099Z" fill="black"/>
<path d="M102.489 16.3449C102.489 15.4026 101.829 15.0216 101.016 15.4915L76.2915 29.7663C75.862 30.0462 75.5045 30.4235 75.2481 30.8674C74.9917 31.3114 74.8436 31.8096 74.8157 32.3215V36.4058L70.104 41.3106C70.0522 41.3646 70.0184 41.4333 70.0071 41.5073C69.9958 41.5812 70.0076 41.6569 70.041 41.7239C70.0744 41.7909 70.1276 41.8459 70.1934 41.8815C70.2593 41.9171 70.3345 41.9315 70.4088 41.9227L74.8233 41.4147V52.8828C74.8233 53.8251 75.4838 54.2061 76.2991 53.7362L101.023 39.4614C101.452 39.1811 101.809 38.8036 102.065 38.3597C102.321 37.9158 102.469 37.4179 102.497 36.9062L102.489 16.3449Z" fill="#92E3A9"/>
<path d="M102.489 16.3449V36.9037C102.461 37.4153 102.313 37.9133 102.058 38.3572C101.802 38.8011 101.445 39.1785 101.016 39.4589L76.2914 53.7337C75.4761 54.2036 74.8157 53.8226 74.8157 52.8803V32.3215C74.8435 31.8096 74.9917 31.3114 75.2481 30.8674C75.5045 30.4235 75.8619 30.0462 76.2914 29.7663L101.016 15.494C101.829 15.0216 102.489 15.4026 102.489 16.3449Z" fill="#92E3A9"/>
<path d="M89.6341 31.8033C89.6341 31.8033 88.3133 29.9923 90.4088 26.4947C92.5043 22.9972 95.2805 22.098 95.2805 22.098C95.2805 22.098 97.4624 26.67 94.7522 30.6248C92.042 34.5796 89.6341 31.8033 89.6341 31.8033Z" fill="#92E3A9"/>
<path opacity="0.1" d="M89.6341 31.8033C89.6341 31.8033 88.3133 29.9923 90.4088 26.4947C92.5043 22.9972 95.2805 22.098 95.2805 22.098C95.2805 22.098 97.4624 26.67 94.7522 30.6248C92.042 34.5796 89.6341 31.8033 89.6341 31.8033Z" fill="black"/>
<path opacity="0.1" d="M94.742 30.6324C93.0809 33.053 91.5365 32.9438 90.5891 32.4968C90.4773 27.3431 95.2805 22.098 95.2805 22.098C95.2805 22.098 97.4624 26.6878 94.742 30.6324Z" fill="black"/>
<path d="M91.2851 35.2704C91.2851 35.2704 92.8091 38.4937 95.4761 37.7647C98.0973 37.051 99.9312 33.3121 99.9312 33.3121C99.9312 33.3121 97.1829 30.0634 94.1451 31.2445C91.5695 32.258 91.2851 35.2704 91.2851 35.2704Z" fill="#92E3A9"/>
<path opacity="0.1" d="M91.2851 35.2704C91.2851 35.2704 92.8091 38.4937 95.4761 37.7647C98.0973 37.051 99.9312 33.3121 99.9312 33.3121C99.9312 33.3121 97.1829 30.0634 94.1451 31.2445C91.5695 32.258 91.2851 35.2704 91.2851 35.2704Z" fill="black"/>
<path opacity="0.1" d="M95.4761 37.7647C98.0974 37.051 99.9312 33.3121 99.9312 33.3121C96.3193 32.1666 91.2952 35.2704 91.2952 35.2704C91.2952 35.2704 92.8116 38.4937 95.4761 37.7647Z" fill="black"/>
<path d="M79.5249 35.9308C79.5062 36.2373 79.5692 36.5431 79.7076 36.8172C79.8459 37.0912 80.0546 37.3235 80.3123 37.4904C80.2386 37.4472 80.1624 38.1254 80.165 38.1838C80.1779 38.4475 80.271 38.7009 80.4317 38.9103C80.7924 39.3471 81.4248 39.431 81.9201 39.431C83.3476 39.431 85.1612 38.5293 86.2737 37.4523C85.7226 38.1652 85.0765 38.7993 84.3534 39.337C83.5914 39.9059 82.6186 40.2184 81.8718 40.8102C81.6767 40.9497 81.5346 41.1512 81.4687 41.3818C81.4027 41.6124 81.4168 41.8586 81.5086 42.0802C81.564 42.2774 81.6896 42.4475 81.8618 42.5585C82.034 42.6694 82.2409 42.7134 82.4433 42.6822C82.2618 42.835 82.1162 43.026 82.017 43.2416C81.9178 43.4572 81.8674 43.692 81.8693 43.9293C81.8854 44.1569 81.9714 44.3739 82.1155 44.5508C82.2596 44.7276 82.4548 44.8557 82.6745 44.9174C82.8859 44.9573 83.1035 44.9514 83.3125 44.9001C83.5215 44.8488 83.7171 44.7534 83.8861 44.6202C84.2513 44.3419 84.5806 44.0194 84.8665 43.6601C84.8531 43.7862 84.8647 43.9136 84.9006 44.0353C84.9366 44.1569 84.9961 44.2702 85.0758 44.3688C85.1555 44.4674 85.2539 44.5493 85.3653 44.6099C85.4767 44.6705 85.5989 44.7085 85.725 44.7218C86.1975 44.7472 86.6445 44.4297 86.995 44.0487C88.1304 42.8193 88.5394 40.9524 88.8924 39.1998C88.8917 39.6241 88.9792 40.0439 89.1493 40.4326C89.3194 40.8213 89.5684 41.1705 89.8805 41.4579C90.1645 41.6835 90.4968 41.8406 90.8514 41.9168C91.2061 41.993 91.5735 41.9863 91.9252 41.8973C92.0937 41.8584 92.2496 41.7778 92.3788 41.6628C92.508 41.5479 92.6061 41.4023 92.6643 41.2394C92.7329 41.0312 92.7304 40.7949 92.8193 40.5943C92.9027 40.412 93.0499 40.2665 93.2333 40.1853C93.6956 39.9694 94.1883 39.7993 94.3179 39.1185C94.3699 38.8435 94.3222 38.5589 94.1832 38.3159C94.6594 37.9416 94.9893 37.4122 95.1154 36.8198C95.3389 35.8978 94.8614 35.3492 94.0842 35.2501C93.2587 35.1434 92.451 35.4101 91.6026 35.1688C92.7638 35.1031 93.8751 34.6749 94.7801 33.9446C95.7149 33.1419 96.6623 32.3571 97.2744 31.1506C97.4917 30.7742 97.6015 30.3455 97.5919 29.911C97.5538 29.4792 97.2439 29.0652 96.8731 29.1084C97.0243 28.6094 97.0514 28.081 96.9518 27.5692C96.8299 27.0612 96.4921 26.6344 96.0552 26.5532C95.8334 26.5364 95.6124 26.595 95.428 26.7195C95.2436 26.8439 95.1066 27.027 95.0392 27.239C95.0476 27.1092 95.0276 26.9791 94.9807 26.8578C94.9338 26.7365 94.8611 26.6269 94.7675 26.5365C94.674 26.4462 94.562 26.3772 94.4391 26.3345C94.3163 26.2917 94.1857 26.2762 94.0562 26.289C93.5686 26.3703 93.1723 26.8351 92.9386 27.3533C92.732 27.8897 92.5622 28.4396 92.4306 28.9992C92.1405 30.061 91.5713 31.0257 90.7822 31.7932C91.0965 30.2308 90.8367 28.6075 90.0507 27.2212C89.8771 26.8849 89.6348 26.589 89.3395 26.3525C89.2008 26.2414 89.0354 26.1686 88.8598 26.1415C88.6842 26.1143 88.5045 26.1336 88.3387 26.1976C88.1621 26.2857 88.0165 26.4255 87.9213 26.5983C87.826 26.7712 87.7855 26.9689 87.8053 27.1653C87.1779 26.449 86.0273 26.1493 85.4456 27.1831C85.3159 27.4342 85.2379 27.7088 85.2161 27.9906C85.1942 28.2725 85.2291 28.5558 85.3186 28.8239C85.245 28.6004 84.7268 28.9255 84.6405 28.9966C84.4047 29.2078 84.2623 29.5037 84.2442 29.8196C84.2313 30.2529 84.3686 30.6773 84.6328 31.021C84.8857 31.3323 85.1699 31.6166 85.4812 31.8694C86.3151 32.569 87.0349 33.3942 87.6148 34.3154C86.4698 34.1294 85.3911 33.6547 84.4804 32.9362C84.1665 32.6756 83.8374 32.4339 83.4949 32.2123C82.6999 31.7449 81.5061 31.8008 80.9778 32.8066C80.8343 33.0933 80.7596 33.4094 80.7596 33.7299C80.7596 34.0505 80.8343 34.3666 80.9778 34.6532C80.7732 34.5844 80.5519 34.5836 80.3468 34.6509C80.1417 34.7182 79.9639 34.85 79.8398 35.0266C79.6472 35.2899 79.5375 35.6048 79.5249 35.9308Z" fill="#455A64"/>
<path d="M94.2645 30.193C94.013 30.7479 93.6695 31.2563 93.2485 31.6967C92.8444 32.1349 92.3958 32.5299 91.9099 32.8752C91.4654 33.1953 91.0133 33.5077 90.5485 33.7947C90.325 33.9344 90.0938 34.0639 89.8601 34.1833C89.6265 34.3027 89.436 34.3687 89.2353 34.4932C89.2353 34.3916 89.2353 34.2875 89.2353 34.1859C89.2353 33.9623 89.2353 33.7388 89.2353 33.5178C89.1891 33.0178 89.0904 32.524 88.9407 32.0446C88.7881 31.5311 88.5962 31.0301 88.3666 30.546C88.1736 30.1295 87.9526 29.53 87.5589 29.3319C87.5157 29.3116 87.4319 29.3319 87.4598 29.4005C87.5335 29.6189 87.63 29.8145 87.6935 30.0406C87.757 30.2666 87.8332 30.513 87.9145 30.7442C88.0847 31.2344 88.2447 31.7297 88.3666 32.2402C88.4899 32.7032 88.5748 33.1755 88.6206 33.6525C88.6359 33.876 88.6206 34.1046 88.6206 34.3281C88.6061 34.5035 88.6121 34.6799 88.6384 34.8539C88.5718 34.896 88.5216 34.9596 88.4962 35.0342C88.4809 35.0672 88.4708 35.1003 88.4581 35.1333C88.3946 35.1663 88.3361 35.2069 88.2853 35.2349C88.1634 35.3009 88.0313 35.3695 87.917 35.433C87.6631 35.5634 87.3957 35.6656 87.1195 35.7378C86.6384 35.8658 86.1439 35.9365 85.6463 35.9486C85.1756 35.9412 84.7081 35.8694 84.2569 35.7353C83.9496 35.654 83.6473 35.5549 83.34 35.466C83.0929 35.4172 82.858 35.3196 82.6491 35.179C82.6084 35.146 82.5602 35.179 82.5907 35.2349C82.686 35.4007 82.8295 35.5336 83.0021 35.6159C83.2561 35.7607 83.5305 35.8902 83.7946 36.0248C84.3067 36.3042 84.8718 36.473 85.4532 36.5201C86.0352 36.56 86.6198 36.5077 87.1855 36.3652C87.4799 36.286 87.7658 36.1779 88.039 36.0426L88.1456 35.9893C88.0593 36.2433 87.9704 36.4769 87.8662 36.7132C87.6376 37.2466 87.3887 37.7723 87.1169 38.2753C86.5124 39.3693 85.7864 40.3918 84.9529 41.3233C84.8944 41.3918 85.024 41.5112 85.0824 41.4706C86.8604 40.2692 88.1177 38.0797 88.8924 35.8572C89.2146 36.4005 89.6339 36.8801 90.1294 37.272C90.457 37.5418 90.813 37.7752 91.1911 37.9679C91.3841 38.0644 91.5797 38.1559 91.7778 38.2346C91.9686 38.2962 92.1545 38.3717 92.3341 38.4607C92.3849 38.4886 92.3976 38.4251 92.3697 38.3845C92.1908 38.1352 91.9637 37.9244 91.7016 37.7647C91.3435 37.5107 90.9803 37.2567 90.6399 36.9824C89.9934 36.4676 89.4817 35.8034 89.1489 35.0469C89.1627 35.0544 89.1771 35.0603 89.1921 35.0647C89.4565 35.0634 89.7149 34.9857 89.9363 34.8412C90.2346 34.6948 90.523 34.5294 90.7999 34.3459C91.3022 34.0273 91.7872 33.6822 92.2528 33.3121C92.7368 32.9319 93.1787 32.501 93.5711 32.0269C93.776 31.7728 93.9563 31.4998 94.1096 31.2115C94.2398 30.9199 94.341 30.6162 94.4118 30.3047C94.4017 30.226 94.295 30.1142 94.2645 30.193Z" fill="#37474F"/>
<path d="M89.154 34.1757C89.9617 33.9217 90.4519 34.3738 90.2487 35.1917C90.1116 35.6343 89.8754 36.0397 89.5581 36.3773C89.2408 36.7149 88.8506 36.9757 88.4174 37.1399C87.6097 37.3939 87.1195 36.9418 87.3227 36.1239C87.4598 35.6813 87.696 35.2758 88.0133 34.9383C88.3306 34.6007 88.7208 34.3399 89.154 34.1757Z" fill="#F0997A"/>
<path opacity="0.05" d="M89.4893 35.814C88.8746 36.6649 87.8789 37.0611 87.3557 36.8783C87.5208 37.1932 87.9018 37.3126 88.4072 37.15C88.8405 36.9858 89.2306 36.7251 89.5479 36.3875C89.8653 36.0499 90.1015 35.6444 90.2386 35.2019C90.3707 34.6659 90.203 34.29 89.8474 34.163C90.0075 34.5186 89.9998 35.1003 89.4893 35.814Z" fill="black"/>
<path d="M77.122 34.798C77.098 34.798 77.0742 34.7933 77.052 34.7841C77.0299 34.7749 77.0097 34.7614 76.9927 34.7444C76.9757 34.7274 76.9623 34.7073 76.9531 34.6851C76.9439 34.6629 76.9391 34.6391 76.9391 34.6151V31.9481C76.9396 31.9162 76.9482 31.885 76.9642 31.8574C76.9802 31.8298 77.0031 31.8068 77.0306 31.7906L79.3344 30.4597C79.3625 30.4447 79.3939 30.4369 79.4258 30.4368C79.4578 30.4367 79.4893 30.4451 79.5169 30.4612C79.5446 30.4773 79.5675 30.5004 79.5833 30.5283C79.5967 30.549 79.6057 30.5722 79.6097 30.5966C79.6136 30.621 79.6125 30.6459 79.6062 30.6698C79.6 30.6937 79.5889 30.716 79.5736 30.7354C79.5583 30.7548 79.5391 30.7707 79.5173 30.7823L77.3049 32.0523V34.61C77.3056 34.6345 77.3014 34.6588 77.2925 34.6816C77.2836 34.7044 77.2702 34.7251 77.2532 34.7426C77.2361 34.7602 77.2157 34.7741 77.1932 34.7836C77.1707 34.7931 77.1465 34.798 77.122 34.798Z" fill="#FAFAFA"/>
<path d="M77.122 50.7721C77.0901 50.772 77.0587 50.7642 77.0306 50.7492C77.0027 50.7328 76.9796 50.7094 76.9636 50.6814C76.9475 50.6533 76.9391 50.6215 76.9391 50.5892V47.9273C76.9391 47.8788 76.9584 47.8322 76.9927 47.7979C77.027 47.7636 77.0735 47.7444 77.122 47.7444C77.1705 47.7444 77.217 47.7636 77.2513 47.7979C77.2856 47.8322 77.3049 47.8788 77.3049 47.9273V50.2742L79.3369 49.1007C79.3649 49.0855 79.3964 49.0776 79.4283 49.0779C79.4561 49.0783 79.4835 49.0849 79.5084 49.0973C79.5333 49.1097 79.5551 49.1275 79.5722 49.1494C79.5892 49.1714 79.6012 49.1969 79.607 49.2241C79.6129 49.2513 79.6126 49.2794 79.6061 49.3065C79.5999 49.3299 79.589 49.3518 79.5742 49.371C79.5593 49.3902 79.5409 49.4063 79.5198 49.4182L77.216 50.7492C77.1872 50.7649 77.1548 50.7728 77.122 50.7721Z" fill="#FAFAFA"/>
<path d="M100.183 21.4808C100.134 21.4808 100.088 21.4615 100.053 21.4272C100.019 21.3929 99.9998 21.3464 99.9998 21.2979V18.9509L97.9678 20.1244C97.9403 20.1413 97.9086 20.1501 97.8764 20.1498C97.844 20.1499 97.8123 20.1414 97.7842 20.1254C97.7561 20.1093 97.7327 20.0862 97.7163 20.0584C97.6928 20.0158 97.6864 19.9658 97.6986 19.9187C97.7058 19.8956 97.7176 19.8743 97.7333 19.8559C97.749 19.8376 97.7683 19.8226 97.79 19.812L100.094 18.4785C100.122 18.4635 100.153 18.4557 100.185 18.4556C100.217 18.4554 100.249 18.4632 100.277 18.4785C100.305 18.4945 100.328 18.5178 100.344 18.5459C100.36 18.5741 100.369 18.6061 100.368 18.6385V21.2979C100.368 21.3221 100.363 21.3461 100.354 21.3685C100.345 21.3908 100.331 21.4111 100.314 21.4281C100.296 21.4451 100.276 21.4586 100.253 21.4676C100.231 21.4766 100.207 21.4811 100.183 21.4808Z" fill="#FAFAFA"/>
<path d="M97.8789 38.7909C97.8466 38.7909 97.8148 38.7825 97.7867 38.7665C97.7587 38.7504 97.7353 38.7273 97.7189 38.6994C97.6953 38.6569 97.689 38.6069 97.7011 38.5597C97.7137 38.5131 97.7437 38.4731 97.7849 38.448L99.9998 37.178V34.6126C99.9998 34.5641 100.019 34.5176 100.053 34.4833C100.088 34.449 100.134 34.4297 100.183 34.4297C100.231 34.4297 100.278 34.449 100.312 34.4833C100.346 34.5176 100.366 34.5641 100.366 34.6126V37.2745C100.366 37.3069 100.358 37.3389 100.342 37.3671C100.326 37.3952 100.302 37.4185 100.274 37.4345L97.9678 38.7655C97.9408 38.7812 97.9102 38.79 97.8789 38.7909Z" fill="#FAFAFA"/>
<g opacity="0.5">
<path opacity="0.5" d="M87.2541 41.3563C86.8248 41.3604 86.4022 41.2499 86.0298 41.0362C85.0011 40.4419 84.4093 39.0804 84.4093 37.3024C84.4093 34.0004 86.4413 30.1371 88.9203 28.702C89.4772 28.3578 90.1151 28.1668 90.7695 28.1483C91.1996 28.1442 91.623 28.2546 91.9963 28.4683C93.025 29.0627 93.6143 30.4216 93.6143 32.1996C93.6143 35.5016 91.5823 39.3675 89.1032 40.8026C88.5465 41.1471 87.9085 41.3382 87.2541 41.3563ZM90.7695 28.514C90.1792 28.5347 89.6046 28.7098 89.1032 29.022C86.7182 30.4013 84.7852 34.1173 84.7852 37.3075C84.7852 38.9534 85.3085 40.198 86.2229 40.7238C86.54 40.9068 86.9007 41.0007 87.2668 40.9956C87.8565 40.9759 88.4304 40.8007 88.9305 40.4876C91.3181 39.1109 93.2485 35.4076 93.2485 32.2021C93.2485 30.5587 92.7253 29.3141 91.8134 28.7884C91.496 28.6056 91.1356 28.5109 90.7695 28.514Z" fill="#FAFAFA"/>
<path opacity="0.5" d="M89.0118 30.1117C88.9878 30.1117 88.964 30.107 88.9418 30.0978C88.9196 30.0886 88.8994 30.0751 88.8825 30.0581C88.8655 30.0412 88.852 30.021 88.8428 29.9988C88.8336 29.9766 88.8289 29.9528 88.8289 29.9288V26.9697C88.8289 26.9212 88.8482 26.8747 88.8825 26.8404C88.9167 26.8061 88.9633 26.7868 89.0118 26.7868C89.0603 26.7868 89.1068 26.8061 89.1411 26.8404C89.1754 26.8747 89.1946 26.9212 89.1946 26.9697V29.9288C89.1946 29.9773 89.1754 30.0238 89.1411 30.0581C89.1068 30.0924 89.0603 30.1117 89.0118 30.1117Z" fill="#FAFAFA"/>
<path opacity="0.5" d="M83.1774 38.3032C83.1372 38.3034 83.0981 38.2904 83.066 38.2661C83.034 38.2419 83.0108 38.2077 83.0001 38.169C82.9894 38.1303 82.9918 38.0891 83.0068 38.0518C83.0219 38.0145 83.0488 37.9833 83.0834 37.9628L85.3034 36.6928C85.3309 36.676 85.3626 36.6672 85.3948 36.6674C85.4271 36.6674 85.4589 36.6758 85.487 36.6919C85.5151 36.7079 85.5384 36.731 85.5548 36.7589C85.5674 36.78 85.5757 36.8033 85.579 36.8277C85.5824 36.852 85.5808 36.8767 85.5744 36.9004C85.568 36.9241 85.5569 36.9463 85.5418 36.9656C85.5266 36.9849 85.5077 37.001 85.4862 37.0129L83.2663 38.2956C83.2378 38.3056 83.2072 38.3083 83.1774 38.3032Z" fill="#FAFAFA"/>
<path opacity="0.5" d="M89.0118 42.7177C88.9635 42.7171 88.9173 42.6976 88.8832 42.6634C88.849 42.6293 88.8295 42.5831 88.8289 42.5348V39.5732C88.8289 39.5247 88.8482 39.4782 88.8825 39.4439C88.9167 39.4096 88.9633 39.3903 89.0118 39.3903C89.0603 39.3903 89.1068 39.4096 89.1411 39.4439C89.1754 39.4782 89.1946 39.5247 89.1946 39.5732V42.5348C89.1946 42.5833 89.1754 42.6299 89.1411 42.6642C89.1068 42.6985 89.0603 42.7177 89.0118 42.7177Z" fill="#FAFAFA"/>
<path opacity="0.5" d="M92.6287 32.8473C92.5968 32.8469 92.5656 32.8382 92.538 32.8222C92.5104 32.8062 92.4874 32.7833 92.4712 32.7558C92.4582 32.735 92.4495 32.7118 92.4458 32.6875C92.442 32.6632 92.4433 32.6384 92.4495 32.6146C92.4556 32.5908 92.4666 32.5685 92.4817 32.5491C92.4968 32.5298 92.5157 32.5137 92.5373 32.5018L94.7573 31.2318C94.7851 31.2158 94.8166 31.2071 94.8487 31.2064C94.8895 31.2058 94.9293 31.2188 94.9619 31.2434C94.9944 31.268 95.0178 31.3028 95.0283 31.3422C95.0389 31.3816 95.0359 31.4234 95.0199 31.4609C95.0039 31.4985 94.9758 31.5296 94.9401 31.5493L92.7202 32.8193C92.6926 32.8363 92.6611 32.8459 92.6287 32.8473Z" fill="#FAFAFA"/>
</g>
</svg>
